<svg width="45" height="19" viewBox="0 0 45 19" fill="none" xmlns="http://www.w3.org/2000/svg">
<path d="M7.07392 7.94711C7.07392 9.31243 8.18687 10.4254 9.55218 10.4254C10.9175 10.4254 12.0305 9.31243 12.0305 7.94711C12.0305 7.32124 12.5402 6.81397 13.1636 6.81397C13.7895 6.81397 14.2967 7.32124 14.2967 7.94711V15.7453C14.2967 17.204 15.4829 18.3876 16.9416 18.3876C18.4003 18.3876 19.5864 17.204 19.5864 15.7453V7.97487C19.5864 7.349 20.0962 6.84174 20.7195 6.84174H45C41.7823 2.68774 36.7551 0 31.0995 0H13.8803C8.23734 0 3.22023 2.67764 0 6.81397H5.94078C6.56413 6.81397 7.07392 7.32124 7.07392 7.94711Z" fill="#6D3805"/>
</svg>
