<svg width="330" height="362" viewBox="0 0 330 362" fill="none" xmlns="http://www.w3.org/2000/svg">
<path d="M148.928 38.2623C150.373 37.9579 151.806 37.637 153.228 37.2995C188.27 29.2236 228.343 24.5424 258.729 38.7852C288.518 52.7375 284.858 82.3104 267.436 109.468C237.614 155.948 124.676 200.054 94.1982 152.794C84.3461 137.522 101.328 110.63 89.1103 92.6273C75.1995 72.1263 10.8247 85.0909 23.6897 39.7978C30.8194 14.682 49.1126 16.1594 68.767 24.31C80.0467 28.9829 90.8201 34.8012 102.49 38.752C116.658 43.5577 133.192 41.6321 148.928 38.2623Z" fill="#F37A20"/>
<path opacity="0.9" d="M148.928 38.2623C150.373 37.9579 151.806 37.637 153.228 37.2995C188.27 29.2236 228.343 24.5424 258.729 38.7852C288.518 52.7375 284.858 82.3104 267.436 109.468C237.614 155.948 124.676 200.054 94.1982 152.794C84.3461 137.522 101.328 110.63 89.1103 92.6273C75.1995 72.1263 10.8247 85.0909 23.6897 39.7978C30.8194 14.682 49.1126 16.1594 68.767 24.31C80.0467 28.9829 90.8201 34.8012 102.49 38.752C116.658 43.5577 133.192 41.6321 148.928 38.2623Z" fill="white"/>
<path d="M245.966 168.259C245.966 172.446 241.123 177.525 235.226 175.84C229.751 175.84 227.434 169.287 227.434 165.1C227.434 160.913 232.608 158.361 236.911 158.361C241.214 158.361 245.966 164.072 245.966 168.259Z" fill="#FFB55E"/>
<path d="M233.752 172.26C233.752 176.447 230.383 182.579 224.486 180.894C219.011 180.894 216.484 176.447 216.484 172.26C216.484 168.073 220.183 164.89 224.486 164.89C228.789 164.89 233.752 168.073 233.752 172.26Z" fill="#FFBD71"/>
<path d="M269.762 170.154C269.762 174.341 265.551 180.473 259.654 178.788C255.351 178.788 251.862 175.394 251.862 171.207C251.862 167.02 255.351 163.626 259.654 163.626C263.957 163.626 269.762 165.967 269.762 170.154Z" fill="#EC8E23"/>
<path d="M257.548 168.891C257.548 173.078 254.179 179.21 248.283 177.525C242.807 177.525 240.28 173.078 240.28 168.891C240.28 164.704 243.979 161.521 248.283 161.521C252.586 161.521 257.548 164.704 257.548 168.891Z" fill="#F99D32"/>
<path d="M281.134 172.682C281.134 176.868 276.923 183 271.026 181.316C266.723 181.316 263.234 177.921 263.234 173.734C263.234 169.548 266.723 166.153 271.026 166.153C275.329 166.153 281.134 168.495 281.134 172.682Z" fill="#FFB55E"/>
<path d="M209.956 184.75C210.798 191.488 208.482 196.332 200.479 195.068C196.176 195.068 194.583 189.714 194.583 185.527C194.583 181.34 198.071 177.946 202.375 177.946C206.678 177.946 209.956 180.563 209.956 184.75Z" fill="#E98C21"/>
<path d="M236.068 180.473C236.911 187.212 234.805 190.16 226.802 188.897C222.499 188.897 219.011 185.502 219.011 181.316C219.011 177.129 222.499 173.734 226.802 173.734C231.106 173.734 236.068 176.286 236.068 180.473Z" fill="#EC8F25"/>
<path d="M221.959 181.947C222.801 188.686 220.485 193.529 212.482 192.266C208.179 192.266 206.586 186.912 206.586 182.725C206.586 178.538 210.074 175.144 214.378 175.144C218.681 175.144 221.959 177.76 221.959 181.947Z" fill="#F99C32"/>
<path d="M260.497 180.894C261.339 187.633 259.233 190.581 251.231 189.318C246.928 189.318 243.439 185.923 243.439 181.736C243.439 177.549 246.928 174.155 251.231 174.155C255.534 174.155 260.497 176.707 260.497 180.894Z" fill="#FFBD71"/>
<path d="M247.862 180.473C248.704 187.212 246.598 190.16 238.596 188.897C234.292 188.897 230.804 185.502 230.804 181.316C230.804 177.129 234.292 173.734 238.596 173.734C242.899 173.734 247.862 176.286 247.862 180.473Z" fill="#FFA033"/>
<circle cx="295.454" cy="184.053" r="7.37057" fill="#F99C32"/>
<circle cx="247.861" cy="192.898" r="7.37057" fill="#F99C32"/>
<circle cx="33.6938" cy="352.733" r="8.84468" fill="#F99C32"/>
<path d="M298.613 192.898C298.613 196.969 295.313 200.268 291.243 200.268C287.172 200.268 283.24 198.232 283.24 194.161C280.713 188.265 287.172 185.527 291.243 185.527C295.313 185.527 298.613 188.827 298.613 192.898Z" fill="#EC8F25"/>
<path d="M290.821 180.684C290.821 184.871 288.294 190.581 282.398 188.897C274.606 188.897 274.185 186.58 274.606 181.316C274.606 177.129 278.095 173.734 282.398 173.734C286.701 173.734 290.821 176.497 290.821 180.684Z" fill="#FFBD71"/>
<path d="M274.817 181.737C275.659 188.476 273.553 191.424 265.551 190.16C261.248 190.16 257.759 186.766 257.759 182.579C257.759 178.392 261.248 174.998 265.551 174.998C269.854 174.998 274.817 177.55 274.817 181.737Z" fill="#F99C32"/>
<circle cx="305.141" cy="192.897" r="8.21292" fill="#FEB35B"/>
<path d="M185.528 192.056C185.528 196.01 181.058 200.058 177.104 200.058C173.15 200.058 169.944 196.688 169.944 192.477C169.944 188.522 174.203 185.527 178.157 185.527C182.111 185.527 185.528 188.101 185.528 192.056Z" fill="#F99C32"/>
<circle cx="277.343" cy="192.898" r="7.37057" fill="#FA9B32"/>
<path d="M271.026 193.95C271.026 198.486 266.717 201.11 262.181 201.11C257.645 201.11 253.968 197.433 253.968 192.897C253.968 188.362 257.645 184.685 262.181 184.685C266.717 184.685 271.026 189.415 271.026 193.95Z" fill="#FFB55E"/>
<path d="M243.439 192.898C243.439 196.969 240.139 200.268 236.068 200.268C231.998 200.268 228.698 196.969 228.698 192.898C227.013 187.633 231.998 185.527 236.068 185.527C240.139 185.527 243.439 188.827 243.439 192.898Z" fill="#F99C32"/>
<circle cx="220.906" cy="195.004" r="9.89762" fill="#FEB55D"/>
<path d="M211.64 194.372C211.64 198.094 207.57 200.269 203.849 200.269C200.127 200.269 196.268 198.094 196.268 194.372C196.268 190.65 200.127 186.791 203.849 186.791C207.57 186.791 212.904 189.529 211.64 194.372Z" fill="#F89D34"/>
<path d="M197.952 191.845C197.952 195.799 194.746 199.005 190.792 199.005C186.838 199.005 183.211 197.273 183.211 193.319C183.211 189.364 186.838 184.685 190.792 184.685C194.746 184.685 197.952 187.89 197.952 191.845Z" fill="#FEB55E"/>
<path d="M318.829 196.057H261.128V361.578H318.829V196.057Z" fill="#FAE0A7"/>
<path d="M167.207 196.057H261.129V361.578H167.207V196.057Z" fill="#FEF2B6"/>
<path d="M241.333 202.795V196.057H217.326V202.795H241.333Z" fill="white"/>
<circle cx="320.725" cy="353.366" r="8.63409" fill="#FA9C31"/>
<circle cx="307.248" cy="353.365" r="8.21292" fill="#FFBD71"/>
<path d="M103.399 53.1935C102.219 53.1935 101.925 51.7194 101.293 51.7194H98.3445L98.1339 59.0899L96.6597 61.8275L97.0809 63.9334C96.8703 64.7758 97.9232 65.8287 95.3962 66.2499C94.0661 66.4716 89.1609 62.9653 89.2891 60.1428C89.4997 55.5099 87.1661 56.4006 87.8151 55.0887C88.4737 53.7575 90.1315 55.7205 91.8162 53.1935C92.4023 52.3145 93.5554 51.8287 95.1857 51.0876C97.5021 50.0346 99.1869 48.9817 101.293 48.7711C103.399 48.5606 104.873 48.5605 105.504 48.9817C106.136 49.4029 106.557 52.3511 106.347 52.7723C106.136 53.1935 104.873 53.1935 103.399 53.1935Z" fill="black"/>
<path d="M80.2918 308.331H115.46C113.928 320.64 109.337 346.753 108.663 350.964C107.989 355.176 107.387 357.749 107.668 357.819L112.933 361.399H96.7177L95.8173 359.809C95.8173 359.809 80.2918 336.396 80.2918 335.918C80 335.625 80.2918 308.331 80.2918 308.331Z" fill="#9F2733"/>
<path d="M8.69209 144.167H30.5932C30.5932 147.326 30.8395 147.299 32.2778 149.221C34.3258 151.959 43.1583 161.084 47.8614 165.858L19.4319 193.655C12.5527 175.404 -0.994941 140.166 0.057988 140.166C2.21546 140.166 6.867 143.255 8.69209 144.167Z" fill="#9F2731"/>
<path d="M173.524 12.8763C173.187 10.5177 172 8.12536 172 7.62536C172 7.19047 172.658 6.78841 173.5 7.12535C174.342 7.46229 175 9.62536 175.63 10.3493C176.262 10.2409 176 8.12536 176.262 7.19047C177.5 7.12536 177.525 10.1387 177.525 12.8763C177.525 18.3516 180.289 16.2842 180.5 13.1254C181 12.1254 181.231 12.3793 181.526 12.6657C182 13.1254 181.597 16.6669 181.105 18.141C180.614 19.6151 179.21 22.5634 173.524 27.6175L179.21 41.9374L195.425 79.422C197.321 83.6338 197.742 92.689 195.425 95.4267C191.176 100.449 172.05 106.051 158.783 107.525L154.782 64.1438L159.625 64.4703L157.73 23.4057C157.73 23.4057 156.354 14.2309 157.941 17.2987C161.099 23.4057 164.028 25.4266 168.681 22.5634C174.156 19.194 173.935 15.7488 173.524 12.8763Z" fill="#9F2731"/>
<path d="M108.453 68.9869C110.769 68.9869 114.349 66.2493 117.508 64.7752V69.6187C117.508 72.3142 116.525 75.3748 116.244 76.5681C115.753 78.1124 113.086 82.633 107.189 84.1492C99.8185 86.0445 93.0796 82.254 89.7101 79.0951C87.0146 76.5681 86.1303 72.1458 86.9726 66.0387C86.9726 66.0387 89.9787 67.8393 91.6634 68.6816C92.9269 69.3134 93.4146 69.1975 94.975 69.1975C95.605 69.1975 95.7522 68.6846 96.0256 67.7316L96.028 67.7234C96.1761 67.2072 96.3199 66.7044 96.4491 66.0387C96.6325 65.0942 96.7175 63.9328 96.7175 63.9328C95.8751 62.8799 94.1327 63.0905 94.1327 61.6164C94.1327 59.9186 97.7316 60.3097 97.9999 58.625L98.1915 56.1411V52.8876V51.7188H102.135C103.82 54.0352 106.194 57.0993 106.194 57.0993C107.177 58.6436 108.931 61.1005 108.931 62.9958C108.931 64.512 108.663 65.4069 105.715 65.4069V67.934C105.868 68.871 107.545 68.9869 108.453 68.9869Z" fill="#9F2731"/>
<path d="M103 56C103.211 56.2106 105.106 58.1059 106.369 59.1588L107.001 59.58" stroke="#380A0E"/>
<path d="M135.839 61.6836C138.703 61.6836 150.009 63.3719 154.992 64.144L158.793 107.592L142.147 108.157L138.777 112.79V116.58C138.777 116.58 105.304 116.647 103.83 116.647C102.987 113.699 98.9864 100.853 98.9864 100.853H96.4594L61.0806 111.382L52.4465 94.1141C48.8665 86.9541 48.4453 77.6883 50.5512 73.6871C53.4994 65.053 62.1335 60.6306 69.2935 59.7883C75.0215 59.1144 83.6135 63.7193 87.1934 66.1059C86.9127 67.7906 86.5258 71.3441 87.6147 74.1083C90.3524 81.0577 94.9852 84.0059 102.566 84.2165C110.147 84.4271 113.31 80.3679 115.412 77.4777C117.097 75.1612 117.307 66.5271 117.307 64.8424C120.256 62.1048 132.259 61.6836 135.839 61.6836Z" fill="#DB6036"/>
<path d="M139.198 92.4482C139.128 94.6243 137.724 99.8188 137.724 99.8188C137.724 99.8188 143.199 101.925 142.989 107.821" stroke="black" stroke-width="2"/>
<path d="M98.5549 98.7658L93.0796 83.6035" stroke="black" stroke-width="2"/>
<path d="M104.241 116.58H138.777C138.777 117.844 139.24 123.024 138.567 137.849C137.893 152.675 131.113 200.861 128.306 223.043L115.46 308.541H80.2918L81.0762 258.632H72.0789C47.9877 251.725 26.8026 212.233 19.2214 193.35L45.7555 167.237L47.5928 165.436L48.0139 163.331C48.0139 161.646 46.9489 159.652 46.5398 154.907C45.4869 142.693 44.2234 139.324 47.3822 130.268C49.9092 123.024 60.3684 119.599 64.8609 119.528L104.241 116.58Z" fill="#FBA53E"/>
<path d="M47.8035 165.732H49.6988V171.208" stroke="black" stroke-width="2"/>
<path d="M82.9999 49.9998C83.9999 48.9998 86.3409 48.7157 86.9726 49.0667C88.9999 50.1929 88.8257 52.7309 88.6573 53.9102C88.4467 55.3843 88.2361 55.8055 87.1831 56.6478C86.1302 57.4902 84.8667 57.9114 83.3926 57.7008C81.9186 57.4902 81.7079 55.3843 81.4973 54.1208C81.2868 52.8573 81.0929 51.9068 82.9999 49.9998Z" fill="black"/>
<path d="M99.1867 98.2588L103.609 113.211L104.662 117.633L105.504 121.423L154.782 153.222C158.572 156.17 165.762 155.493 168.5 156.125C169.323 156.315 171.443 156.907 171.5 157.625C171 158.625 168.89 157.625 167.5 157.625C166.11 157.625 165.275 158.35 165 158.625C164.725 158.9 164.5 159.125 165.5 160.125C165.817 160.442 166.372 160.209 167.5 163.125C167.619 163.433 167.69 165.436 167 165.625C166.905 165.651 166.373 165.508 166 165.625C165.83 165.678 165.634 165.648 165.438 165.625H165C164.469 165.745 164.008 166.009 163.627 165.436C162.731 164.093 160.886 163.823 159.5 163.625C156 163.125 148.885 162.699 148.885 162.699L137.093 161.224L103.609 150.906C96.8 149.361 81.7501 143.998 76.0221 134.901C70.2941 125.804 63.106 114.263 60.228 109.631L99.1867 98.2588Z" fill="#9F2733"/>
<path d="M105.083 65.2822V67.8093" stroke="#380A0E"/>
<path d="M115.191 165.101L111.19 167.838C113.366 193.6 110.558 247.946 81.9185 259.233" stroke="black" stroke-width="2"/>
<path d="M167 165.125L166 162.625L164.5 161.125M166 165.125L165.5 163.625L163.5 162.125M165 165.125L164.5 164.125L163 163.125" stroke="#380A0E" stroke-width="0.25"/>
<path d="M178 16.5C177 21 172.5 23 170.5 23.5C167.59 24.2276 163 24.5 162 28.5" stroke="#380A0E"/>
<path d="M175.268 15.6341C175.268 20.4026 171.403 24.2682 166.634 24.2682C161.866 24.2682 158 20.4026 158 15.6341C158 10.1588 160.316 7 166.634 7C171.403 7 175.268 10.8656 175.268 15.6341Z" fill="#F99C32"/>
<path d="M281.345 257.128V255.864H282.609V258.391H259.654C259.654 258.391 258.812 262.182 255.232 262.814H225.118C225.118 262.814 199.005 300.298 184.475 320.725C183.843 321.357 183.843 322.41 183.843 323.252C183.843 324.095 184.685 325.569 184.685 325.569L188.055 332.097C197.531 331.957 218.885 332.097 227.645 332.097C234.805 332.097 241.965 339.468 243.86 344.522H241.755C239.733 338.12 231.436 333.992 227.645 333.571H188.686L195.215 344.522H192.898C192.898 344.522 189.318 338.836 187.423 337.151C186.378 336.222 185.002 335.424 183.843 334.835C182.753 334.281 180.643 333.571 179.421 333.571H140.041L138.988 332.097H180.895C184.054 332.097 188.055 335.466 188.055 335.466C188.055 335.466 185.106 329.57 183.211 325.569C182.857 324.82 182.5 323.632 182.5 323C182.5 322.369 182.369 321.778 183.001 320.725C199.757 295.59 223.644 262.814 223.644 262.814C223.644 262.814 221.903 261.782 221.328 260.918C220.752 260.055 220.696 258.391 220.696 258.391H209.745V257.128H258.391H281.345Z" fill="black"/>
<path d="M281.977 254.601H210.166V255.864H283.03L297.771 215.01L298.403 209.535H160.678V211.009H253.337L254.811 213.747H272.29L273.974 211.009H288.716L289.558 213.747H295.876L296.507 215.01L281.977 254.601Z" fill="black"/>
<path d="M128.459 161.1H183.422L197.321 171.84V174.367L233.542 254.179H230.594L195.215 176.051L191.635 174.367L181.948 165.733H177.315V164.048L137.093 164.68V166.154C137.093 166.154 142.147 169.944 144.463 171.629C144.674 172.682 144.674 174.367 144.674 174.367L181.527 254.601H210.588C210.728 255.653 210.925 257.928 210.588 258.602C209.64 260.497 207.85 261.76 206.165 262.392H177.104L136.461 320.093C136.461 320.093 135.829 320.936 135.829 322.831C135.829 324.516 136.461 325.569 136.461 325.569L145.727 344.1L279.66 344.311V345.364L264.077 345.338C264.077 345.338 267.657 351.26 269.552 354.208C271.869 354.208 273.975 355.472 273.975 357.788C273.975 360.947 272.29 361.79 270.184 361.79C267.657 361.79 265.762 360.526 265.762 358.21C265.762 354.419 268.499 354.208 268.499 354.208L263.235 345.337L232.278 345.286C232.278 345.286 235.226 351.05 237.122 354.208C238.806 353.998 241.123 355.126 241.123 357.578C241.123 359.684 240.912 362 237.543 362C234.595 362 233.728 359.852 233.752 357.578C233.778 355.177 235.858 354.419 235.858 354.419L231.015 345.283L184.475 345.207C184.475 345.207 187.634 351.26 189.108 354.208C190.582 354.208 193.53 354.629 193.53 357.999C193.53 360.315 192.688 362 189.318 362C187.423 362 185.317 360.947 185.317 357.999C185.317 355.051 187.844 354.208 187.844 354.208L183.211 345.205L152.044 345.153C153.378 348.238 156.467 352.945 157.309 354.419C159.625 354.419 160.889 355.472 160.889 357.999C160.889 360.526 159.625 361.79 157.309 361.79C156.046 361.79 153.729 361.158 153.729 357.999C153.729 355.472 154.993 354.981 155.835 354.419L150.57 345.153H144.674L134.566 324.937C134.566 324.937 134.144 323.884 134.144 322.62C134.144 321.357 134.566 320.514 134.566 320.514L174.577 263.445V262.392H173.103C173.103 262.392 171.629 261.76 171.629 259.444C171.629 256.496 173.103 255.653 173.103 255.653H177.736V254.179L158.783 212.272L143.2 176.051C143.2 176.051 139.409 174.472 138.567 173.735C137.724 172.998 131.196 166.154 131.196 166.154H124.247C124.247 166.154 123.194 164.68 123.194 163.205C123.194 161.942 125.931 161.521 125.931 161.521L128.459 161.1Z" fill="#0C0A05"/>
<path d="M249.967 254.811L264.708 213.746H265.972L251.441 254.811H249.967Z" fill="black"/>
<path d="M293.138 227.225H168.049V228.488H292.083L293.138 227.225Z" fill="#0C0A05"/>
<path d="M287.663 241.544H173.945V242.807H286.704L287.663 241.544Z" fill="#0C0A05"/>
<path d="M229.961 159.625C228.161 158.169 226.171 157.73 224.697 157.94C223.858 158.06 222.801 158.993 222.801 158.993L225.328 159.836L232.067 161.52C232.067 161.52 230.731 160.248 229.961 159.625Z" fill="#527576"/>
<path d="M277.344 163.627C278.608 163.206 280.713 163.206 280.713 163.206L283.451 162.995C282.609 163.837 281.766 165.101 280.924 165.522C280.381 165.794 276.08 167.698 273.553 168.26C273.273 168.47 272.964 168.47 273.975 166.786C274.985 165.101 276.08 164.048 277.344 163.627Z" fill="#527576"/>
<path d="M160.678 5.26469L164.89 0C164.75 0.982742 164.427 3.03246 164.258 3.3694C164.09 3.70634 162.503 5.33489 161.731 6.10704L163 9L162 9.5L160.5 6.5L158.5 5.5L159.415 5.26469H160.678Z" fill="#7A9592"/>
</svg>
