<svg width="25" height="30" viewBox="0 0 25 30" fill="none" xmlns="http://www.w3.org/2000/svg">
<path d="M22.4518 22.1899C22.9572 22.1899 23.4013 22.3163 23.7842 22.5689C24.1671 22.8216 24.4619 23.1777 24.6686 23.6372C24.8831 24.0889 24.9903 24.6058 24.9903 25.1878C24.9903 25.7697 24.8831 26.2866 24.6686 26.7384C24.4619 27.1902 24.1671 27.5424 23.7842 27.7951C23.4013 28.0478 22.9572 28.1742 22.4518 28.1742C22.0536 28.1742 21.7014 28.0938 21.3951 27.933C21.0965 27.7722 20.8476 27.5386 20.6485 27.2323V30.0005H19.454V22.3048H20.6026V23.2007C21.0084 22.5268 21.6248 22.1899 22.4518 22.1899ZM22.1876 27.1174C22.6701 27.1174 23.0529 26.9413 23.3363 26.5891C23.6272 26.2292 23.7727 25.7621 23.7727 25.1878C23.7727 24.6058 23.6272 24.1387 23.3363 23.7865C23.0529 23.4266 22.6701 23.2466 22.1876 23.2466C21.7052 23.2466 21.3185 23.4266 21.0275 23.7865C20.7442 24.1387 20.6026 24.6058 20.6026 25.1878C20.6026 25.7621 20.7442 26.2292 21.0275 26.5891C21.3185 26.9413 21.7052 27.1174 22.1876 27.1174Z" fill="#6D3805"/>
<path d="M15.5049 28.2079C14.9382 28.2079 14.4366 28.0777 14.0002 27.8173C13.5637 27.5493 13.2268 27.1856 12.9894 26.7262C12.752 26.2667 12.6333 25.7537 12.6333 25.187C12.6333 24.6204 12.752 24.1073 12.9894 23.6479C13.2268 23.1808 13.5637 22.8171 14.0002 22.5567C14.4366 22.2887 14.9382 22.1547 15.5049 22.1547C16.0715 22.1547 16.5731 22.2887 17.0095 22.5567C17.4537 22.8171 17.7944 23.1808 18.0318 23.6479C18.2768 24.1073 18.3993 24.6204 18.3993 25.187C18.3993 25.7537 18.2768 26.2667 18.0318 26.7262C17.7944 27.1856 17.4537 27.5493 17.0095 27.8173C16.5731 28.0777 16.0715 28.2079 15.5049 28.2079ZM15.5049 27.1397C16.0026 27.1397 16.4046 26.9559 16.7109 26.5883C17.0248 26.2208 17.1818 25.7537 17.1818 25.187C17.1818 24.6127 17.0248 24.1418 16.7109 23.7742C16.4046 23.399 16.0026 23.2114 15.5049 23.2114C15.0071 23.2114 14.6051 23.399 14.2988 23.7742C14.0002 24.1418 13.8509 24.6127 13.8509 25.187C13.8509 25.7537 14.0002 26.2208 14.2988 26.5883C14.6051 26.9559 15.0071 27.1397 15.5049 27.1397Z" fill="#6D3805"/>
<path d="M9.52547 22.2121C10.207 22.2121 10.7239 22.4227 11.0761 22.8438C11.436 23.265 11.6159 23.7895 11.6159 24.4174V28.047H10.4214V24.7505C10.4214 24.2528 10.3142 23.8776 10.0998 23.6249C9.88537 23.3645 9.57907 23.2344 9.18088 23.2344C8.77504 23.2344 8.44577 23.3645 8.19308 23.6249C7.94038 23.8852 7.81404 24.2605 7.81404 24.7505V28.047H6.61948V19.6622H7.81404V23.1425C7.9825 22.8438 8.21222 22.6141 8.5032 22.4533C8.79418 22.2925 9.13494 22.2121 9.52547 22.2121Z" fill="#6D3805"/>
<path d="M2.75667 28.2082C2.19002 28.2082 1.66931 28.0934 1.19456 27.8637C0.719796 27.6339 0.321611 27.2779 0 26.7954L0.872944 26.0833C1.06438 26.3666 1.3209 26.6078 1.64251 26.8069C1.97178 27.006 2.35082 27.1056 2.77964 27.1056C3.22377 27.1056 3.58367 26.9984 3.85933 26.784C4.135 26.5619 4.27283 26.2479 4.27283 25.8421C4.27283 25.4899 4.16563 25.2218 3.95122 25.0381C3.73681 24.8543 3.40755 24.6858 2.96342 24.5327L2.42357 24.3489C1.67314 24.0885 1.1333 23.7784 0.804028 23.4185C0.474759 23.0586 0.310125 22.626 0.310125 22.1206C0.310125 21.6841 0.4135 21.2974 0.62025 20.9605C0.834657 20.6159 1.1333 20.3479 1.51617 20.1565C1.90669 19.9574 2.35082 19.8578 2.84856 19.8578C3.43818 19.8578 3.94739 19.988 4.37621 20.2484C4.80502 20.5087 5.11132 20.8418 5.2951 21.2477L4.38769 21.8449C4.00482 21.2477 3.48412 20.949 2.82558 20.949C2.44271 20.949 2.13259 21.0447 1.89521 21.2362C1.66549 21.4276 1.55062 21.688 1.55062 22.0172C1.55062 22.3235 1.66166 22.5686 1.88372 22.7523C2.10579 22.9285 2.44654 23.0969 2.90599 23.2577L3.44583 23.4415C4.15031 23.6865 4.66719 23.9967 4.99646 24.3719C5.32573 24.7471 5.49036 25.2218 5.49036 25.7962C5.49036 26.2939 5.3755 26.7265 5.14578 27.0941C4.91605 27.454 4.59444 27.7296 4.18094 27.9211C3.76744 28.1125 3.29268 28.2082 2.75667 28.2082Z" fill="#6D3805"/>
<path d="M22.0608 7.84241C22.0603 7.84199 22.0598 7.84158 22.0594 7.84117L13.6247 0.486419C13.2652 0.172778 12.7872 0 12.2788 0C11.7703 0 11.2923 0.17264 10.9327 0.486282L2.50246 7.83732C2.49962 7.83979 2.49678 7.84241 2.49394 7.84488C1.75565 8.49239 1.75692 9.54295 2.49757 10.1888C2.83595 10.484 3.28287 10.655 3.76071 10.6729C3.78011 10.6745 3.79967 10.6754 3.81939 10.6754H4.15556V16.088C4.15556 17.1591 5.15493 18.0305 6.38352 18.0305H9.68341C10.0179 18.0305 10.2892 17.7941 10.2892 17.5023V13.2588C10.2892 12.77 10.7451 12.3725 11.3056 12.3725H13.252C13.8125 12.3725 14.2684 12.77 14.2684 13.2588V17.5023C14.2684 17.7941 14.5395 18.0305 14.8741 18.0305H18.174C19.4026 18.0305 20.402 17.1591 20.402 16.088V10.6754H20.7137C21.222 10.6754 21.7 10.5027 22.0598 10.1891C22.8013 9.54212 22.8016 8.48977 22.0608 7.84241Z" fill="#6D3805"/>
</svg>
