<svg width="65" height="52" viewBox="0 0 65 52" fill="none" xmlns="http://www.w3.org/2000/svg">
<path fill-rule="evenodd" clip-rule="evenodd" d="M0 24.375C14.5316 8.58681 26.836 11.3717 28.1132 11.4997C33.4145 12.0301 48.6476 20.6376 47.6397 26.1429C46.8615 30.3983 36.5819 37.9839 26.4263 38.0632C12.2598 38.1739 0.51468 26.2933 0 24.375ZM37.9012 37.0297L39.841 37.665C39.841 37.665 46.3691 45.6421 46.9623 44.8515C47.5562 44.0601 46.9623 36.0813 46.9623 36.0813C46.9623 36.0813 44.7201 36.8735 44.3905 35.6864C44.2839 35.3006 44.0378 34.5191 43.7544 33.6392C42.0435 34.8735 40.0583 36.0416 37.9012 37.0297ZM25.0524 39.9327C25.8744 42.2921 25.5489 42.3012 26.7196 42.6763C28.3685 43.2042 28.4346 42.3467 29.0278 43.2042C29.6209 44.0601 28.3016 53.9513 26.9831 50.2585C25.6654 46.5665 24.741 42.6763 22.7632 40.6977C22.4485 40.3838 22.1081 40.0434 21.7562 39.6948C22.8384 39.8319 23.938 39.9145 25.0524 39.9327ZM47.7289 30.1265C51.5382 31.1964 55.5895 33.5872 65 39.6452C65 39.6452 60.2861 32.3521 60.4175 26.1107C60.2861 19.8701 65 12.577 65 12.577C56.0993 18.3062 51.9934 20.7549 48.351 21.909C49.5357 23.4696 50.1553 24.9938 49.9066 26.3519C49.7034 27.4614 48.9326 28.7684 47.7289 30.1265ZM23.6191 9.36172C29.0691 0.274276 31.4706 0 31.4706 0L45.7131 14.9687C45.7131 14.9687 44.2451 15.8121 43.2719 17.1455C38.0219 13.252 31.0501 10.0044 27.6539 9.66408C27.2417 9.6236 25.8207 9.33941 23.6191 9.36172ZM9.674 20.5376C10.748 20.5376 11.6187 21.4075 11.6187 22.4823C11.6187 23.5571 10.748 24.427 9.674 24.427C8.5992 24.427 7.72928 23.5571 7.72928 22.4823C7.72928 21.4075 8.5992 20.5376 9.674 20.5376Z" fill="#DE736C"/>
</svg>
