<svg width="35" height="33" viewBox="0 0 35 33" fill="none" xmlns="http://www.w3.org/2000/svg">
<path d="M14.0086 3.30033C11.2221 3.30033 8.54976 4.34406 6.57942 6.20192C4.60908 8.05978 3.50215 10.5796 3.50215 13.207C3.50215 15.8344 4.60908 18.3542 6.57942 20.212C8.54976 22.0699 11.2221 23.1136 14.0086 23.1136C16.7951 23.1136 19.4675 22.0699 21.4378 20.212C23.4081 18.3542 24.5151 15.8344 24.5151 13.207C24.5151 10.5796 23.4081 8.05978 21.4378 6.20192C19.4675 4.34406 16.7951 3.30033 14.0086 3.30033ZM8.65316e-08 13.207C0.000319267 11.1049 0.532709 9.03322 1.55292 7.16416C2.57314 5.29509 4.05171 3.68261 5.86576 2.46071C7.67981 1.23882 9.77695 0.44281 11.9829 0.138836C14.1888 -0.165139 16.4398 0.0317026 18.5489 0.713001C20.6579 1.3943 22.564 2.54038 24.1088 4.05599C25.6536 5.5716 26.7925 7.41297 27.4308 9.42706C28.0691 11.4412 28.1883 13.5698 27.7787 15.6361C27.369 17.7024 26.4422 19.6467 25.0754 21.3073L34.5085 30.2018C34.8274 30.5132 35.0039 30.9303 34.9999 31.3632C34.9959 31.7962 34.8118 32.2103 34.4871 32.5164C34.1625 32.8225 33.7233 32.9962 33.2641 32.9999C32.805 33.0037 32.3627 32.8373 32.0324 32.5365L22.5994 23.642C20.5287 25.1579 18.0484 26.0955 15.4406 26.3481C12.8328 26.6008 10.2021 26.1584 7.8477 25.0713C5.49331 23.9842 3.50967 22.296 2.12235 20.1986C0.73503 18.1012 -0.00029124 15.6789 8.65316e-08 13.207Z" fill="#0D0D0D"/>
</svg>
