<svg width="26" height="30" viewBox="0 0 26 30" fill="none" xmlns="http://www.w3.org/2000/svg">
<path d="M21.65 27.5565C21.65 27.9735 21.7405 28.2843 21.9215 28.4888C22.1103 28.6855 22.4171 28.7839 22.842 28.7839V29.8814H22.6532C21.9215 29.8814 21.3668 29.6965 20.9891 29.3267C20.6115 28.9491 20.4227 28.418 20.4227 27.7335V24.9719H19.5965V23.9452H20.4227V22.293H21.65V23.9452H22.8066V24.9719H21.65V27.5565Z" fill="#6D3805"/>
<path d="M17.3081 25.2196C17.4734 24.7711 17.7173 24.4289 18.0398 24.1928C18.3703 23.9568 18.7558 23.8466 19.1964 23.8624V25.1724C18.6063 25.1566 18.15 25.3415 17.8274 25.727C17.5127 26.1126 17.3553 26.6672 17.3553 27.3911V29.8458H16.128V23.945H17.3081V25.2196Z" fill="#6D3805"/>
<path d="M14.5698 27.9703C14.5698 28.2929 14.6091 28.5171 14.6878 28.643C14.7743 28.7689 14.9199 28.8397 15.1244 28.8555V29.8822C15.0536 29.8979 14.9356 29.9058 14.7704 29.9058C14.141 29.9058 13.7161 29.6462 13.4958 29.1269C13.3385 29.3865 13.1142 29.595 12.8231 29.7524C12.532 29.9019 12.174 29.9766 11.7492 29.9766C11.1512 29.9766 10.6713 29.8193 10.3094 29.5046C9.95532 29.182 9.77829 28.7689 9.77829 28.2654C9.77829 27.7304 9.95532 27.3173 10.3094 27.0262C10.6713 26.7272 11.1512 26.5069 11.7492 26.3653C12.2212 26.2473 12.5635 26.1529 12.7759 26.0821C12.9962 26.0113 13.1418 25.9405 13.2126 25.8696C13.2913 25.791 13.3306 25.6887 13.3306 25.5628C13.3306 25.3425 13.2322 25.1655 13.0356 25.0317C12.8467 24.8901 12.591 24.8193 12.2684 24.8193C11.938 24.8193 11.643 24.8901 11.3833 25.0317C11.1316 25.1733 10.9152 25.3582 10.7342 25.5864L9.97892 24.9491C10.215 24.6029 10.5257 24.3236 10.9113 24.1112C11.3046 23.8988 11.7767 23.7925 12.3275 23.7925C13.0119 23.7925 13.5548 23.9656 13.9561 24.3118C14.3652 24.658 14.5698 25.1261 14.5698 25.7162V27.9703ZM12.0442 28.9853C12.4455 28.9853 12.7641 28.883 13.0001 28.6784C13.2362 28.466 13.3542 28.171 13.3542 27.7933V26.6958C13.2598 26.7744 13.13 26.8413 12.9647 26.8964C12.7995 26.9515 12.5241 27.0341 12.1386 27.1442C11.761 27.2544 11.4777 27.3881 11.2889 27.5455C11.1079 27.7028 11.0175 27.9074 11.0175 28.1592C11.0175 28.4267 11.1079 28.6312 11.2889 28.7729C11.4699 28.9145 11.7216 28.9853 12.0442 28.9853Z" fill="#6D3805"/>
<path d="M5.61762 30.0006C4.83871 30.0006 4.15028 29.8118 3.55233 29.4341C2.95438 29.0565 2.49018 28.5411 2.15973 27.8881C1.83716 27.2351 1.67587 26.5112 1.67587 25.7166C1.67587 24.922 1.83716 24.1981 2.15973 23.5451C2.49018 22.8921 2.95438 22.3767 3.55233 21.9991C4.15028 21.6214 4.83871 21.4326 5.61762 21.4326C6.42013 21.4326 7.1243 21.6332 7.73012 22.0345C8.33594 22.4279 8.7844 22.9707 9.07551 23.6631L7.89534 24.147C7.67504 23.6513 7.37214 23.2658 6.98661 22.9904C6.60109 22.7072 6.14476 22.5656 5.61762 22.5656C5.09048 22.5656 4.62628 22.7072 4.22503 22.9904C3.82377 23.2658 3.51299 23.6434 3.29269 24.1234C3.08026 24.6033 2.97405 25.1344 2.97405 25.7166C2.97405 26.2988 3.08026 26.8299 3.29269 27.3098C3.51299 27.7898 3.82377 28.1713 4.22503 28.4546C4.62628 28.73 5.09048 28.8676 5.61762 28.8676C6.14476 28.8676 6.60109 28.73 6.98661 28.4546C7.37214 28.1713 7.67504 27.7819 7.89534 27.2862L9.07551 27.7701C8.7844 28.4624 8.33594 29.0093 7.73012 29.4105C7.1243 29.8039 6.42013 30.0006 5.61762 30.0006Z" fill="#6D3805"/>
<path d="M0.741819 1.26194H3.29961C3.60444 1.26194 3.89683 1.36477 4.11266 1.54787C4.32848 1.73097 4.45013 1.97941 4.45091 2.23869V14.6057C4.4517 15.2488 4.75238 15.8653 5.28698 16.3201C5.82158 16.7748 6.54643 17.0305 7.30246 17.0312H9.03239C8.94635 17.2335 8.90217 17.447 8.90183 17.6622C8.90183 18.1642 9.13629 18.6457 9.55365 19.0007C9.971 19.3556 10.5371 19.5551 11.1273 19.5551C11.7175 19.5551 12.2836 19.3556 12.7009 19.0007C13.1183 18.6457 13.3527 18.1642 13.3527 17.6622C13.3524 17.447 13.3082 17.2335 13.2222 17.0312H14.9669C14.8809 17.2335 14.8367 17.447 14.8364 17.6622C14.8364 18.1642 15.0708 18.6457 15.4882 19.0007C15.9056 19.3556 16.4716 19.5551 17.0618 19.5551C17.6521 19.5551 18.2181 19.3556 18.6355 19.0007C19.0528 18.6457 19.2873 18.1642 19.2873 17.6622C19.2869 17.447 19.2428 17.2335 19.1567 17.0312H20.7709C20.9677 17.0312 21.1564 16.9647 21.2955 16.8464C21.4346 16.7281 21.5127 16.5676 21.5127 16.4002C21.5127 16.2329 21.4346 16.0724 21.2955 15.9541C21.1564 15.8357 20.9677 15.7692 20.7709 15.7692H7.30246C6.94093 15.7686 6.59435 15.6465 6.33815 15.4295C6.08196 15.2125 5.9369 14.9183 5.93455 14.6108V14.5124H19.2873C19.4192 14.5125 19.5488 14.4827 19.6625 14.4258C19.7763 14.369 19.8701 14.2874 19.9342 14.1893L24.9251 6.6252H25.2218C25.4186 6.6252 25.6073 6.55873 25.7464 6.4404C25.8855 6.32207 25.9637 6.16158 25.9637 5.99423V3.47035C25.9637 3.303 25.8855 3.14251 25.7464 3.02418C25.6073 2.90585 25.4186 2.83937 25.2218 2.83937H5.93455V2.23869C5.93376 1.64472 5.65581 1.07531 5.16175 0.655543C4.66768 0.23578 3.99793 -3.76624e-07 3.29961 0H0.741819C0.545076 4.98769e-09 0.356392 0.0664772 0.217274 0.184807C0.0781557 0.303138 0 0.463628 0 0.630972C0 0.798316 0.0781557 0.958806 0.217274 1.07714C0.356392 1.19547 0.545076 1.26194 0.741819 1.26194ZM24.48 4.10132V5.36326H5.93455V4.10132H24.48Z" fill="#6D3805"/>
</svg>
