<svg width="11" height="9" viewBox="0 0 11 9" fill="none" xmlns="http://www.w3.org/2000/svg">
<path d="M11 3.42067C10.9981 3.02839 10.9541 2.63744 10.8689 2.25446C9.68758 2.41324 8.48533 2.29183 7.3599 1.9001C6.23448 1.50836 5.21764 0.857353 4.39205 0C3.24783 1.17179 1.75722 1.94727 0.138744 2.21273C-0.0342467 2.96606 -0.0456031 3.74734 0.105425 4.50535C0.256452 5.26336 0.566454 5.98097 1.0151 6.61116C1.46375 7.24135 2.04091 7.76988 2.70875 8.16208C3.37659 8.55429 4.12002 8.80133 4.89032 8.88699C5.66061 8.97266 6.44037 8.89503 7.17846 8.65919C7.91656 8.42334 8.59633 8.03461 9.17321 7.51848C9.75008 7.00234 10.211 6.37046 10.5259 5.66426C10.8407 4.95806 11.0023 4.19349 11 3.42067Z" fill="#612A83"/>
</svg>
