<svg width="32" height="32" viewBox="0 0 32 32" fill="none" xmlns="http://www.w3.org/2000/svg">
<path fill-rule="evenodd" clip-rule="evenodd" d="M27.0769 18.0571C27.3231 19.4286 27.5692 20.5714 28.0615 21.9429L29.5385 25.8286L28.3077 27.4286H19.6923C19.6923 28.5714 19.2 29.7143 18.2154 30.6286C17.2308 31.5429 16 32 14.7692 32C13.5385 32 12.0615 31.5429 11.3231 30.6286C10.3385 29.7143 9.84615 28.5714 9.84615 27.4286H1.23077L0 25.8286L1.47692 21.9429C1.96923 20.1143 2.46154 18.2857 2.46154 16.4571V11.4286C2.46154 9.82857 2.70769 8.22857 3.44615 6.85714C4.18462 5.25714 5.16923 4.11429 6.4 2.97143C7.63077 1.82857 9.10769 1.14286 10.8308 0.685714C12.0615 0.228571 13.5385 0 14.7692 0C14.2769 0.685714 13.7846 1.6 13.2923 2.51429C12.8 2.51429 12.3077 2.51429 11.5692 2.97143C10.3385 3.2 9.10769 3.88571 8.12308 4.8C7.13846 5.48571 6.15385 6.62857 5.66154 7.77143C5.16923 8.91429 4.92308 10.0571 4.92308 11.4286V16.4571C4.92308 18.5143 4.43077 20.5714 3.93846 22.6286L2.95385 25.1429H26.5846L25.6 22.6286C25.1692 21.4263 24.9255 20.0457 24.7065 18.8023L24.6154 18.2857C25.6 18.2857 26.3385 18.2857 27.0769 18.0571ZM14.7692 29.7143C15.2615 29.7143 16 29.4857 16.4923 29.0286C16.9846 28.5714 17.2308 28.1143 17.2308 27.4286H12.3077C12.3077 28.1143 12.5538 28.5714 13.0462 29.0286C13.5385 29.4857 14.2769 29.7143 14.7692 29.7143ZM32 6.85714C32 8.67577 31.222 10.4199 29.8371 11.7059C28.4522 12.9918 26.5739 13.7143 24.6154 13.7143C22.6569 13.7143 20.7786 12.9918 19.3937 11.7059C18.0088 10.4199 17.2308 8.67577 17.2308 6.85714C17.2308 5.03852 18.0088 3.29437 19.3937 2.00841C20.7786 0.722447 22.6569 0 24.6154 0C26.5739 0 28.4522 0.722447 29.8371 2.00841C31.222 3.29437 32 5.03852 32 6.85714Z" fill="#6D3805"/>
</svg>
