<svg width="39" height="29" viewBox="0 0 39 29" fill="none" xmlns="http://www.w3.org/2000/svg">
<path d="M39 26.0501H34.8556C34.9026 26.5666 35.0709 26.9775 35.3605 27.2828C35.6501 27.5881 36.0453 27.7407 36.5463 27.7407C37.1724 27.7407 37.6812 27.5059 38.0725 27.0363L38.8826 27.7407C38.3112 28.4686 37.5325 28.8325 36.5463 28.8325C35.9514 28.8325 35.4309 28.6995 34.9848 28.4334C34.5386 28.1673 34.1942 27.8033 33.9516 27.3415C33.7168 26.8719 33.5994 26.3397 33.5994 25.7448C33.5994 25.1578 33.7168 24.6295 33.9516 24.1598C34.1864 23.6824 34.5191 23.3106 34.9495 23.0445C35.38 22.7784 35.8692 22.6453 36.4171 22.6453C36.9259 22.6453 37.3759 22.7627 37.7673 22.9975C38.1586 23.2245 38.4599 23.5532 38.6713 23.9837C38.8904 24.4064 39 24.8995 39 25.463V26.0501ZM36.4171 23.6902C36.0101 23.6902 35.6735 23.8272 35.4074 24.1011C35.1491 24.3673 34.9769 24.7195 34.8908 25.1578H37.7907C37.7594 24.7116 37.6225 24.3555 37.3798 24.0894C37.145 23.8233 36.8241 23.6902 36.4171 23.6902Z" fill="#6D3805"/>
<path d="M31.8438 26.3897C31.8438 26.8046 31.9338 27.1137 32.1138 27.3172C32.3017 27.5129 32.6069 27.6108 33.0296 27.6108V28.7026H32.8417C32.1138 28.7026 31.562 28.5187 31.1863 28.1508C30.8106 27.7751 30.6228 27.2468 30.6228 26.5659V23.8186H29.801V22.7972H30.6228V21.1535H31.8438V22.7972H32.9944V23.8186H31.8438V26.3897Z" fill="#6D3805"/>
<path d="M27.5893 22.7964H28.8103V28.6666H27.5893V22.7964ZM28.1998 21.8219C27.9884 21.8219 27.8123 21.7554 27.6715 21.6223C27.5384 21.4814 27.4719 21.3093 27.4719 21.1058C27.4719 20.9022 27.5384 20.734 27.6715 20.6009C27.8123 20.46 27.9884 20.3896 28.1998 20.3896C28.4033 20.3896 28.5716 20.46 28.7046 20.6009C28.8455 20.734 28.9159 20.9022 28.9159 21.1058C28.9159 21.3093 28.8455 21.4814 28.7046 21.6223C28.5716 21.7554 28.4033 21.8219 28.1998 21.8219Z" fill="#6D3805"/>
<path d="M24.8405 24.0649C25.0049 23.6188 25.2475 23.2783 25.5684 23.0435C25.8971 22.8087 26.2807 22.6991 26.719 22.7148V24.018C26.1319 24.0023 25.678 24.1862 25.3571 24.5698C25.044 24.9533 24.8875 25.5051 24.8875 26.2252V28.6672H23.6664V22.797H24.8405V24.0649Z" fill="#6D3805"/>
<path d="M19.6299 28.8325C19.0507 28.8325 18.538 28.6995 18.0919 28.4334C17.6457 28.1594 17.3014 27.7876 17.0587 27.318C16.8161 26.8484 16.6948 26.324 16.6948 25.7448C16.6948 25.1656 16.8161 24.6412 17.0587 24.1716C17.3014 23.6941 17.6457 23.3223 18.0919 23.0562C18.538 22.7823 19.0507 22.6453 19.6299 22.6453C20.2091 22.6453 20.7218 22.7823 21.1679 23.0562C21.6219 23.3223 21.9702 23.6941 22.2128 24.1716C22.4633 24.6412 22.5885 25.1656 22.5885 25.7448C22.5885 26.324 22.4633 26.8484 22.2128 27.318C21.9702 27.7876 21.6219 28.1594 21.1679 28.4334C20.7218 28.6995 20.2091 28.8325 19.6299 28.8325ZM19.6299 27.7407C20.1386 27.7407 20.5496 27.5528 20.8626 27.1771C21.1835 26.8014 21.344 26.324 21.344 25.7448C21.344 25.1578 21.1835 24.6764 20.8626 24.3007C20.5496 23.9172 20.1386 23.7254 19.6299 23.7254C19.1211 23.7254 18.7102 23.9172 18.3971 24.3007C18.0919 24.6764 17.9393 25.1578 17.9393 25.7448C17.9393 26.324 18.0919 26.8014 18.3971 27.1771C18.7102 27.5528 19.1211 27.7407 19.6299 27.7407Z" fill="#6D3805"/>
<path d="M16.352 22.7973L14.2152 28.6675H12.7829L10.6461 22.7973H11.9141L13.5225 27.4935L15.1192 22.7973H16.352Z" fill="#6D3805"/>
<path d="M9.96064 26.8014C9.96064 27.1223 9.99978 27.3454 10.078 27.4706C10.1641 27.5959 10.3089 27.6663 10.5124 27.682V28.7034C10.442 28.7191 10.3246 28.7269 10.1602 28.7269C9.53407 28.7269 9.11141 28.4686 8.89226 27.952C8.73572 28.2103 8.51265 28.4177 8.22305 28.5743C7.93345 28.723 7.57733 28.7973 7.15467 28.7973C6.55982 28.7973 6.08237 28.6408 5.72233 28.3277C5.37012 28.0068 5.19401 27.5959 5.19401 27.095C5.19401 26.5627 5.37012 26.1518 5.72233 25.8622C6.08237 25.5648 6.55982 25.3456 7.15467 25.2047C7.62429 25.0873 7.96476 24.9934 8.17609 24.923C8.39525 24.8525 8.54004 24.7821 8.61049 24.7116C8.68876 24.6334 8.72789 24.5316 8.72789 24.4064C8.72789 24.1872 8.63005 24.0111 8.43438 23.8781C8.24653 23.7372 7.99216 23.6667 7.67125 23.6667C7.34252 23.6667 7.049 23.7372 6.79071 23.8781C6.54025 24.0189 6.32501 24.2029 6.14499 24.4299L5.3936 23.7959C5.62841 23.4515 5.93757 23.1736 6.3211 22.9623C6.71244 22.751 7.18206 22.6453 7.72995 22.6453C8.4109 22.6453 8.95096 22.8175 9.35014 23.1619C9.75714 23.5063 9.96064 23.972 9.96064 24.559V26.8014ZM7.44818 27.8111C7.84736 27.8111 8.16435 27.7094 8.39916 27.5059C8.63397 27.2945 8.75137 27.001 8.75137 26.6253V25.5335C8.65745 25.6117 8.5283 25.6783 8.36394 25.7331C8.19957 25.7878 7.92563 25.87 7.5421 25.9796C7.16641 26.0892 6.88464 26.2222 6.69679 26.3788C6.51677 26.5353 6.42676 26.7388 6.42676 26.9893C6.42676 27.2554 6.51677 27.4589 6.69679 27.5998C6.87681 27.7407 7.12727 27.8111 7.44818 27.8111Z" fill="#6D3805"/>
<path d="M1.26797 21.5532V23.9248H4.33224V25.0284H1.26797V28.6679H0V20.4496H4.96622V21.5532H1.26797Z" fill="#6D3805"/>
<path d="M23.6955 0C26.9226 0 29.5391 2.34748 29.5391 5.24226C29.5391 10.027 18.9724 16.3821 18.9724 16.3821C18.9724 16.3821 8.40625 10.2561 8.40625 5.24222C8.40625 1.63811 11.0228 0 14.2493 0C16.1929 0 17.9097 0.855152 18.9724 2.16445C20.0352 0.855152 21.7524 0 23.6955 0Z" fill="#6D3805"/>
</svg>
