<svg width="81" height="9" viewBox="0 0 81 9" fill="none" xmlns="http://www.w3.org/2000/svg">
<path d="M70.2654 8.58827L67.5033 0.145271H69.5296L71.9298 7.62335H70.9167L73.4254 0.145271H75.2347L77.6469 7.62335H76.67L79.1305 0.145271H81L78.238 8.58827H76.1393L74.0044 2.02685H74.5592L72.364 8.58827H70.2654Z" fill="white"/>
<path d="M62.5999 8.73247C61.9325 8.73247 61.3133 8.62392 60.7424 8.40681C60.1795 8.18971 59.6891 7.88415 59.2709 7.49014C58.8608 7.09614 58.5392 6.63378 58.306 6.10308C58.0809 5.57238 57.9683 4.99343 57.9683 4.36623C57.9683 3.73904 58.0809 3.16009 58.306 2.62939C58.5392 2.09869 58.8649 1.63633 59.283 1.24233C59.7011 0.848319 60.1916 0.542763 60.7545 0.325658C61.3173 0.108553 61.9285 0 62.5878 0C63.2552 0 63.8663 0.108553 64.4211 0.325658C64.984 0.542763 65.4705 0.848319 65.8806 1.24233C66.2987 1.63633 66.6244 2.09869 66.8576 2.62939C67.0907 3.15205 67.2073 3.731 67.2073 4.36623C67.2073 4.99343 67.0907 5.5764 66.8576 6.11514C66.6244 6.64584 66.2987 7.1082 65.8806 7.5022C65.4705 7.88817 64.984 8.18971 64.4211 8.40681C63.8663 8.62392 63.2592 8.73247 62.5999 8.73247ZM62.5878 7.06799C62.9657 7.06799 63.3115 7.00366 63.6251 6.87501C63.9467 6.74635 64.2282 6.56141 64.4694 6.32018C64.7106 6.07896 64.8956 5.7935 65.0242 5.46382C65.1609 5.13414 65.2293 4.76828 65.2293 4.36623C65.2293 3.96419 65.1609 3.59832 65.0242 3.26864C64.8956 2.93897 64.7106 2.65351 64.4694 2.41228C64.2362 2.17106 63.9588 1.98611 63.6372 1.85746C63.3155 1.7288 62.9657 1.66448 62.5878 1.66448C62.2099 1.66448 61.8601 1.7288 61.5385 1.85746C61.2249 1.98611 60.9475 2.17106 60.7062 2.41228C60.465 2.65351 60.276 2.93897 60.1393 3.26864C60.0107 3.59832 59.9464 3.96419 59.9464 4.36623C59.9464 4.76024 60.0107 5.1261 60.1393 5.46382C60.276 5.7935 60.461 6.07896 60.6942 6.32018C60.9354 6.56141 61.2168 6.74635 61.5385 6.87501C61.8601 7.00366 62.2099 7.06799 62.5878 7.06799Z" fill="white"/>
<path d="M48.9238 8.58827V0.145271H50.54L55.5214 6.22423H54.7374V0.145271H56.6673V8.58827H55.0631L50.0697 2.50931H50.8536V8.58827H48.9238Z" fill="white"/>
<path d="M36.9704 8.58827V0.145271H40.625C41.3808 0.145271 42.0321 0.269906 42.5789 0.519175C43.1257 0.760403 43.5479 1.11018 43.8454 1.56852C44.1429 2.02685 44.2917 2.57364 44.2917 3.20887C44.2917 3.83607 44.1429 4.37883 43.8454 4.83716C43.5479 5.28746 43.1257 5.63322 42.5789 5.87445C42.0321 6.11567 41.3808 6.23629 40.625 6.23629H38.0559L38.9243 5.37993V8.58827H36.9704ZM42.3377 8.58827L40.227 5.52466H42.3136L44.4485 8.58827H42.3377ZM38.9243 5.59703L38.0559 4.68037H40.5164C41.1195 4.68037 41.5698 4.55171 41.8673 4.2944C42.1648 4.02905 42.3136 3.66721 42.3136 3.20887C42.3136 2.7425 42.1648 2.38065 41.8673 2.12334C41.5698 1.86603 41.1195 1.73738 40.5164 1.73738H38.0559L38.9243 0.808649V5.59703Z" fill="white"/>
<path d="M30.8413 3.54659H34.906V5.06633H30.8413V3.54659ZM30.986 7.02028H35.5814V8.58827H29.0441V0.145271H35.4246V1.71326H30.986V7.02028Z" fill="white"/>
<path d="M19.2452 8.58827V0.145271H23.0808C23.9974 0.145271 24.8055 0.322172 25.5051 0.675974C26.2047 1.02173 26.7514 1.50821 27.1454 2.13541C27.5395 2.7626 27.7365 3.50639 27.7365 4.36677C27.7365 5.21911 27.5395 5.9629 27.1454 6.59813C26.7514 7.22532 26.2047 7.71582 25.5051 8.06962C24.8055 8.41539 23.9974 8.58827 23.0808 8.58827H19.2452ZM21.1992 6.9841H22.9843C23.5471 6.9841 24.0336 6.87956 24.4437 6.6705C24.8618 6.45339 25.1835 6.14784 25.4086 5.75383C25.6418 5.35983 25.7584 4.89747 25.7584 4.36677C25.7584 3.82802 25.6418 3.36567 25.4086 2.9797C25.1835 2.5857 24.8618 2.28416 24.4437 2.0751C24.0336 1.85799 23.5471 1.74944 22.9843 1.74944H21.1992V6.9841Z" fill="white"/>
<path d="M10.5417 8.58827V0.145271H14.1963C14.9522 0.145271 15.6035 0.269906 16.1503 0.519175C16.6971 0.760403 17.1192 1.11018 17.4167 1.56852C17.7142 2.02685 17.863 2.57364 17.863 3.20887C17.863 3.83607 17.7142 4.37883 17.4167 4.83716C17.1192 5.28746 16.6971 5.63322 16.1503 5.87445C15.6035 6.11567 14.9522 6.23629 14.1963 6.23629H11.6272L12.4957 5.37993V8.58827H10.5417ZM15.909 8.58827L13.7983 5.52466H15.8849L18.0198 8.58827H15.909ZM12.4957 5.59703L11.6272 4.68037H14.0878C14.6908 4.68037 15.1411 4.55171 15.4387 4.2944C15.7362 4.02905 15.8849 3.66721 15.8849 3.20887C15.8849 2.7425 15.7362 2.38065 15.4387 2.12334C15.1411 1.86603 14.6908 1.73738 14.0878 1.73738H11.6272L12.4957 0.808649V5.59703Z" fill="white"/>
<path d="M4.63159 8.73247C3.96419 8.73247 3.34503 8.62392 2.77413 8.40681C2.21126 8.18971 1.72076 7.88415 1.30263 7.49014C0.892545 7.09614 0.570907 6.63378 0.33772 6.10308C0.112573 5.57238 0 4.99343 0 4.36623C0 3.73904 0.112573 3.16009 0.33772 2.62939C0.570907 2.09869 0.896566 1.63633 1.31469 1.24233C1.73282 0.848319 2.22332 0.542763 2.78619 0.325658C3.34905 0.108553 3.96017 0 4.61952 0C5.28692 0 5.89803 0.108553 6.45286 0.325658C7.01573 0.542763 7.5022 0.848319 7.91229 1.24233C8.33042 1.63633 8.65608 2.09869 8.88927 2.62939C9.12245 3.15205 9.23905 3.731 9.23905 4.36623C9.23905 4.99343 9.12245 5.5764 8.88927 6.11514C8.65608 6.64584 8.33042 7.1082 7.91229 7.5022C7.5022 7.88817 7.01573 8.18971 6.45286 8.40681C5.89803 8.62392 5.29094 8.73247 4.63159 8.73247ZM4.61952 7.06799C4.99745 7.06799 5.34321 7.00366 5.65681 6.87501C5.97844 6.74635 6.25988 6.56141 6.50111 6.32018C6.74233 6.07896 6.92728 5.7935 7.05593 5.46382C7.19263 5.13414 7.26098 4.76828 7.26098 4.36623C7.26098 3.96419 7.19263 3.59832 7.05593 3.26864C6.92728 2.93897 6.74233 2.65351 6.50111 2.41228C6.26792 2.17106 5.99051 1.98611 5.66887 1.85746C5.34723 1.7288 4.99745 1.66448 4.61952 1.66448C4.2416 1.66448 3.89182 1.7288 3.57018 1.85746C3.25658 1.98611 2.97917 2.17106 2.73794 2.41228C2.49671 2.65351 2.30775 2.93897 2.17106 3.26864C2.0424 3.59832 1.97807 3.96419 1.97807 4.36623C1.97807 4.76024 2.0424 5.1261 2.17106 5.46382C2.30775 5.7935 2.49269 6.07896 2.72588 6.32018C2.96711 6.56141 3.24854 6.74635 3.57018 6.87501C3.89182 7.00366 4.2416 7.06799 4.61952 7.06799Z" fill="white"/>
</svg>
