<svg width="61" height="56" viewBox="0 0 61 56" fill="none" xmlns="http://www.w3.org/2000/svg">
<path d="M19.5794 23.3804C15.2469 32.9282 15.3501 42.6835 19.7857 52.2313C18.5479 52.335 16.0721 52.4388 14.7311 52.335C9.36708 51.9199 4.72512 47.665 2.35256 42.9949C-1.25786 35.6265 -0.948393 25.456 4.93143 19.333C9.88285 14.144 16.8974 12.6911 24.0151 12.276C23.1898 12.6911 20.4046 13.4176 20.3015 13.4176C19.7857 13.3138 19.2699 13.6251 19.0636 14.0403C18.8573 14.5592 19.0636 15.1818 19.5794 15.3894C19.5794 15.3894 22.0551 16.0121 23.8087 16.1159C22.3646 18.1915 20.8173 20.6822 19.5794 23.3804Z" fill="#FF7300"/>
<path d="M38.6631 52.5427C38.4567 53.0616 38.0441 53.4767 37.6315 53.788C35.981 54.5145 33.5053 55.241 30.4107 55.241C27.4192 55.3447 24.9435 54.6183 23.1898 53.788C22.7772 53.4767 22.4678 52.9578 22.1583 52.5427C17.4132 43.0987 17.1037 33.6547 21.3331 24.3145C22.8804 20.9936 24.7372 18.1915 26.4908 16.0122C26.9034 15.9084 27.4192 15.8046 27.8318 15.7008C28.3476 17.1537 29.276 19.1256 30.9264 19.3331C32.6801 19.4369 33.7116 17.7764 34.4337 16.4273C36.0842 18.6067 37.8378 21.2011 39.282 24.4183C43.7176 33.6547 43.4082 43.0987 38.6631 52.5427Z" fill="#FF7300"/>
<path d="M58.5719 42.9949C56.3025 47.665 51.5574 51.9199 46.1933 52.335C44.8523 52.4388 42.4797 52.335 41.1387 52.2313C45.6775 42.5797 45.7807 32.9282 41.345 23.3804C40.2103 20.8897 38.8693 18.7104 37.5283 16.7385C38.663 16.8423 39.9009 16.6348 41.2419 16.2196C41.6545 16.0121 41.964 15.597 41.964 15.1818C41.964 14.3516 41.345 14.2478 40.8293 14.144C40.623 14.0403 38.2504 13.0025 37.2189 12.276C44.2334 12.6911 51.0416 14.144 55.993 19.2293C61.976 25.456 62.2855 35.6265 58.5719 42.9949Z" fill="#FF7300"/>
<path d="M34.4337 0.0297924C33.9179 -0.177767 33.1958 0.756252 32.9895 1.06759C32.3706 1.79405 31.0296 7.08683 30.1012 8.7473C28.3475 11.6531 25.0466 13.4174 21.8488 14.2476C21.4362 14.3514 20.5078 14.7665 20.0951 14.6628C20.0951 14.6628 24.7371 16.1157 28.8633 14.3514C28.8633 14.3514 30.7201 22.8614 34.2273 14.9741C34.2273 14.9741 37.5283 16.7384 41.0356 15.3892C40.7261 15.493 39.9009 14.9741 39.6945 14.8703C36.9094 13.7287 33.9179 11.5494 33.4021 8.33218C33.1958 6.87926 33.9179 3.86965 35.7747 3.76587C35.981 3.76587 36.1873 3.66209 36.2904 3.35075C36.3936 2.62429 36.5999 0.860032 34.4337 0.0297924Z" fill="#55AE0F"/>
</svg>
