<svg width="123" height="30" viewBox="0 0 123 30" fill="none" xmlns="http://www.w3.org/2000/svg">
<path d="M27.0336 29.2588V21.0201H29.2488V22.4576H29.3346C29.4848 21.9463 29.7369 21.5601 30.0909 21.299C30.4449 21.0344 30.8526 20.9021 31.3138 20.9021C31.4283 20.9021 31.5516 20.9093 31.6839 20.9236C31.8162 20.9379 31.9325 20.9576 32.0326 20.9826V23.0101C31.9253 22.9779 31.7769 22.9493 31.5874 22.9243C31.3979 22.8992 31.2244 22.8867 31.0671 22.8867C30.731 22.8867 30.4306 22.96 30.166 23.1066C29.905 23.2497 29.6976 23.4499 29.5438 23.7074C29.3936 23.9648 29.3185 24.2616 29.3185 24.5977V29.2588H27.0336Z" fill="black"/>
<path d="M21.9273 29.4208C21.0798 29.4208 20.3503 29.2492 19.7389 28.9059C19.131 28.559 18.6625 28.0692 18.3336 27.4362C18.0046 26.7997 17.8401 26.047 17.8401 25.1781C17.8401 24.3306 18.0046 23.5869 18.3336 22.9468C18.6625 22.3067 19.1256 21.8079 19.7228 21.4503C20.3235 21.0927 21.0279 20.9139 21.8361 20.9139C22.3796 20.9139 22.8856 21.0015 23.354 21.1768C23.826 21.3484 24.2372 21.6076 24.5877 21.9545C24.9417 22.3013 25.217 22.7376 25.4137 23.2632C25.6104 23.7853 25.7087 24.3968 25.7087 25.0976V25.7252H18.7519V24.3092H23.5578C23.5578 23.9802 23.4863 23.6888 23.3433 23.4349C23.2003 23.181 23.0018 22.9825 22.7479 22.8395C22.4976 22.6929 22.2062 22.6196 21.8736 22.6196C21.5268 22.6196 21.2192 22.7001 20.9511 22.861C20.6864 23.0183 20.4791 23.2311 20.3289 23.4993C20.1787 23.7639 20.1018 24.0589 20.0982 24.3843V25.7306C20.0982 26.1382 20.1733 26.4904 20.3235 26.7872C20.4773 27.084 20.6936 27.3129 20.9725 27.4738C21.2514 27.6347 21.5822 27.7151 21.9648 27.7151C22.2187 27.7151 22.4511 27.6794 22.6621 27.6079C22.8731 27.5364 23.0536 27.4291 23.2038 27.2861C23.354 27.143 23.4684 26.9678 23.5471 26.7604L25.6604 26.8999C25.5531 27.4076 25.3332 27.851 25.0007 28.2301C24.6717 28.6055 24.2462 28.8987 23.7241 29.1097C23.2056 29.3171 22.6067 29.4208 21.9273 29.4208Z" fill="black"/>
<path d="M16.7121 23.3705L14.6203 23.4993C14.5845 23.3205 14.5076 23.1595 14.3896 23.0165C14.2716 22.8699 14.1161 22.7537 13.923 22.6679C13.7335 22.5785 13.5064 22.5338 13.2418 22.5338C12.8878 22.5338 12.5892 22.6089 12.3461 22.7591C12.1029 22.9057 11.9813 23.1023 11.9813 23.3491C11.9813 23.5457 12.06 23.712 12.2173 23.8479C12.3747 23.9838 12.6446 24.0928 13.0272 24.1751L14.5184 24.4755C15.3194 24.6399 15.9165 24.9046 16.3099 25.2693C16.7032 25.634 16.8999 26.1132 16.8999 26.7068C16.8999 27.2467 16.7407 27.7205 16.4225 28.1282C16.1078 28.5358 15.6751 28.8541 15.1245 29.0829C14.5774 29.3082 13.9462 29.4208 13.2311 29.4208C12.1404 29.4208 11.2715 29.1938 10.6243 28.7396C9.98064 28.2819 9.60339 27.6597 9.49254 26.873L11.7399 26.755C11.8079 27.0876 11.9724 27.3415 12.2334 27.5167C12.4944 27.6883 12.8288 27.7742 13.2364 27.7742C13.6369 27.7742 13.9587 27.6973 14.2019 27.5435C14.4486 27.3862 14.5738 27.1841 14.5774 26.9374C14.5738 26.73 14.4862 26.5602 14.3145 26.4279C14.1429 26.292 13.8783 26.1883 13.5207 26.1168L12.094 25.8325C11.2894 25.6716 10.6904 25.3927 10.2971 24.9957C9.90734 24.5988 9.71246 24.0928 9.71246 23.4778C9.71246 22.9486 9.85549 22.4927 10.1416 22.11C10.4312 21.7274 10.8371 21.4324 11.3591 21.225C11.8848 21.0176 12.4998 20.9139 13.2042 20.9139C14.2448 20.9139 15.0637 21.1338 15.6608 21.5737C16.2616 22.0135 16.612 22.6124 16.7121 23.3705Z" fill="black"/>
<path d="M5.91078 25.7509V21.0201H8.19574V29.2588H6.00197V27.7624H5.91615C5.7302 28.2451 5.4209 28.6331 4.98822 28.9263C4.55912 29.2195 4.03526 29.3661 3.41665 29.3661C2.86597 29.3661 2.38144 29.241 1.96307 28.9906C1.5447 28.7403 1.21751 28.3845 0.981508 27.9233C0.749079 27.462 0.631077 26.9095 0.627501 26.2659V21.0201H2.91245V25.8582C2.91603 26.3445 3.04655 26.7289 3.30401 27.0114C3.56147 27.2939 3.90653 27.4352 4.33921 27.4352C4.61455 27.4352 4.87201 27.3726 5.11159 27.2474C5.35117 27.1187 5.54426 26.9292 5.69087 26.6789C5.84106 26.4286 5.91436 26.1193 5.91078 25.7509Z" fill="black"/>
<path d="M113.748 11.1344V0.149469H116.07V4.99293H116.215L120.168 0.149469H122.952L118.875 5.06802L123 11.1344H120.222L117.212 6.61814L116.07 8.01271V11.1344H113.748Z" fill="black"/>
<path d="M112.248 3.99599H109.899C109.856 3.69204 109.768 3.42206 109.636 3.18606C109.504 2.94648 109.334 2.74266 109.127 2.57459C108.919 2.40653 108.68 2.2778 108.408 2.18841C108.14 2.09901 107.848 2.05431 107.534 2.05431C106.965 2.05431 106.47 2.19556 106.048 2.47805C105.626 2.75696 105.299 3.16461 105.066 3.70098C104.834 4.23378 104.718 4.881 104.718 5.64265C104.718 6.42576 104.834 7.08371 105.066 7.61651C105.302 8.14931 105.631 8.55159 106.053 8.82335C106.475 9.09511 106.963 9.23099 107.517 9.23099C107.829 9.23099 108.116 9.18987 108.381 9.10763C108.649 9.02538 108.887 8.90559 109.094 8.74826C109.302 8.58734 109.473 8.39246 109.609 8.16361C109.749 7.93476 109.845 7.67372 109.899 7.3805L112.248 7.39123C112.187 7.89542 112.035 8.38173 111.792 8.85017C111.553 9.31503 111.229 9.73161 110.822 10.0999C110.417 10.4647 109.935 10.7543 109.373 10.9688C108.815 11.1798 108.184 11.2853 107.48 11.2853C106.5 11.2853 105.624 11.0636 104.852 10.6202C104.083 10.1768 103.475 9.53494 103.028 8.69462C102.585 7.8543 102.363 6.83698 102.363 5.64265C102.363 4.44475 102.588 3.42564 103.039 2.58532C103.489 1.745 104.101 1.10493 104.873 0.665104C105.645 0.221701 106.514 0 107.48 0C108.116 0 108.706 0.0893956 109.25 0.268187C109.797 0.446978 110.282 0.708013 110.703 1.05129C111.125 1.391 111.469 1.80758 111.733 2.30104C112.002 2.79451 112.173 3.35949 112.248 3.99599Z" fill="black"/>
<path d="M93.8331 11.1344H91.3443L95.1365 0.149469H98.1294L101.916 11.1344H99.4275L96.6759 2.6597H96.59L93.8331 11.1344ZM93.6775 6.8166H99.5562V8.62954H93.6775V6.8166Z" fill="black"/>
<path d="M82.1198 11.1344V0.149469H86.5181C87.3262 0.149469 88.0003 0.26926 88.5402 0.50884C89.0802 0.748421 89.486 1.08097 89.7578 1.5065C90.0296 1.92844 90.1655 2.41476 90.1655 2.96543C90.1655 3.39453 90.0796 3.77178 89.908 4.09718C89.7364 4.41901 89.5003 4.68362 89.2 4.89101C88.9032 5.09484 88.5635 5.23966 88.1809 5.32548V5.43275C88.5992 5.45063 88.9908 5.56863 89.3555 5.78676C89.7238 6.00488 90.0224 6.31062 90.2513 6.70396C90.4801 7.09372 90.5946 7.55858 90.5946 8.09853C90.5946 8.68139 90.4497 9.20167 90.1601 9.65938C89.874 10.1135 89.4503 10.4729 88.8889 10.7375C88.3275 11.0021 87.6356 11.1344 86.8131 11.1344H82.1198ZM84.4423 9.23564H86.3357C86.983 9.23564 87.455 9.11228 87.7518 8.86554C88.0486 8.61524 88.197 8.28268 88.197 7.86789C88.197 7.56394 88.1237 7.29576 87.9771 7.06333C87.8304 6.8309 87.6213 6.64853 87.3495 6.51623C87.0813 6.38392 86.7613 6.31777 86.3894 6.31777H84.4423V9.23564ZM84.4423 4.74619H86.1641C86.4824 4.74619 86.7648 4.69077 87.0116 4.57992C87.2619 4.46549 87.4586 4.30458 87.6016 4.09718C87.7482 3.88978 87.8215 3.64126 87.8215 3.35162C87.8215 2.9547 87.6803 2.63467 87.3978 2.39151C87.1189 2.14836 86.7219 2.02678 86.207 2.02678H84.4423V4.74619Z" fill="black"/>
<path d="M69.7079 11.1344V0.149469H77.1098V2.06432H72.0304V4.68183H76.729V6.59668H72.0304V9.21955H77.1313V11.1344H69.7079Z" fill="black"/>
<path d="M56.053 0.149469H58.9173L61.9424 7.52997H62.0711L65.0963 0.149469H67.9605V11.1344H65.7078V3.98454H65.6166L62.7738 11.0808H61.2398L58.397 3.95772H58.3058V11.1344H56.053V0.149469Z" fill="black"/>
<path d="M54.4988 5.64265C54.4988 6.84055 54.2717 7.85966 53.8176 8.69998C53.367 9.5403 52.752 10.1822 51.9725 10.6256C51.1965 11.0654 50.324 11.2853 49.355 11.2853C48.3788 11.2853 47.5027 11.0636 46.7267 10.6202C45.9508 10.1768 45.3375 9.53494 44.887 8.69462C44.4364 7.8543 44.2111 6.83698 44.2111 5.64265C44.2111 4.44475 44.4364 3.42564 44.887 2.58532C45.3375 1.745 45.9508 1.10493 46.7267 0.665104C47.5027 0.221701 48.3788 0 49.355 0C50.324 0 51.1965 0.221701 51.9725 0.665104C52.752 1.10493 53.367 1.745 53.8176 2.58532C54.2717 3.42564 54.4988 4.44475 54.4988 5.64265ZM52.1441 5.64265C52.1441 4.8667 52.0279 4.21232 51.7955 3.67952C51.5666 3.14673 51.243 2.74266 50.8246 2.46732C50.4063 2.19198 49.9164 2.05431 49.355 2.05431C48.7936 2.05431 48.3037 2.19198 47.8853 2.46732C47.4669 2.74266 47.1415 3.14673 46.9091 3.67952C46.6802 4.21232 46.5658 4.8667 46.5658 5.64265C46.5658 6.41861 46.6802 7.07298 46.9091 7.60578C47.1415 8.13858 47.4669 8.54265 47.8853 8.81799C48.3037 9.09332 48.7936 9.23099 49.355 9.23099C49.9164 9.23099 50.4063 9.09332 50.8246 8.81799C51.243 8.54265 51.5666 8.13858 51.7955 7.60578C52.0279 7.07298 52.1441 6.41861 52.1441 5.64265Z" fill="black"/>
<path d="M42.905 3.99599H40.5557C40.5127 3.69204 40.4251 3.42206 40.2928 3.18606C40.1605 2.94648 39.9907 2.74266 39.7833 2.57459C39.5759 2.40653 39.3363 2.2778 39.0645 2.18841C38.7964 2.09901 38.5049 2.05431 38.1902 2.05431C37.6217 2.05431 37.1264 2.19556 36.7045 2.47805C36.2825 2.75696 35.9554 3.16461 35.7229 3.70098C35.4905 4.23378 35.3743 4.881 35.3743 5.64265C35.3743 6.42576 35.4905 7.08371 35.7229 7.61651C35.9589 8.14931 36.2879 8.55159 36.7099 8.82335C37.1318 9.09511 37.6199 9.23099 38.1742 9.23099C38.4853 9.23099 38.7731 9.18987 39.0377 9.10763C39.3059 9.02538 39.5437 8.90559 39.7511 8.74826C39.9585 8.58734 40.1301 8.39246 40.266 8.16361C40.4055 7.93476 40.502 7.67372 40.5557 7.3805L42.905 7.39123C42.8442 7.89542 42.6922 8.38173 42.4491 8.85017C42.2095 9.31503 41.8859 9.73161 41.4782 10.0999C41.0742 10.4647 40.5914 10.7543 40.03 10.9688C39.4722 11.1798 38.8411 11.2853 38.1366 11.2853C37.1568 11.2853 36.2808 11.0636 35.5084 10.6202C34.7396 10.1768 34.1317 9.53494 33.6847 8.69462C33.2413 7.8543 33.0196 6.83698 33.0196 5.64265C33.0196 4.44475 33.2449 3.42564 33.6954 2.58532C34.146 1.745 34.7575 1.10493 35.5298 0.665104C36.3022 0.221701 37.1711 0 38.1366 0C38.7731 0 39.3631 0.0893956 39.9066 0.268187C40.4537 0.446978 40.9383 0.708013 41.3602 1.05129C41.7822 1.391 42.1254 1.80758 42.3901 2.30104C42.6582 2.79451 42.8299 3.35949 42.905 3.99599Z" fill="black"/>
<path d="M25.2366 11.1344V0.149469H27.5591V9.21955H32.2685V11.1344H25.2366Z" fill="black"/>
<path d="M16.1544 11.1344V0.149469H23.5563V2.06432H18.4769V4.68183H23.1755V6.59668H18.4769V9.21955H23.5778V11.1344H16.1544Z" fill="black"/>
<path d="M3.14315 11.1344L0 0.149469H2.53705L4.35536 7.78207H4.44654L6.45258 0.149469H8.62489L10.6256 7.79816H10.7221L12.5404 0.149469H15.0775L11.9343 11.1344H9.67082L7.57896 3.95236H7.49314L5.40665 11.1344H3.14315Z" fill="black"/>
</svg>
