<svg width="41" height="29" viewBox="0 0 41 29" fill="none" xmlns="http://www.w3.org/2000/svg">
<path d="M39.8288 26.0644C39.8288 26.4742 39.9177 26.7795 40.0955 26.9805C40.2811 27.1738 40.5826 27.2704 41 27.2704V28.3488H40.8145C40.0955 28.3488 39.5505 28.1671 39.1795 27.8038C38.8084 27.4327 38.6229 26.9109 38.6229 26.2384V23.525H37.8112V22.5161H38.6229V20.8927H39.8288V22.5161H40.9652V23.525H39.8288V26.0644Z" fill="#6D3805"/>
<path d="M35.0041 22.4136C35.6921 22.4136 36.2139 22.6262 36.5695 23.0513C36.9252 23.4688 37.103 23.9983 37.103 24.64V28.3158H35.897V25.011C35.897 24.5163 35.7849 24.1413 35.5607 23.8862C35.3443 23.6234 35.0389 23.492 34.6446 23.492C34.2349 23.492 33.9025 23.6234 33.6474 23.8862C33.4 24.1491 33.2764 24.524 33.2764 25.011V28.3158H32.0704V22.5179H33.23V23.3992C33.5856 22.7421 34.177 22.4136 35.0041 22.4136Z" fill="#6D3805"/>
<path d="M30.5422 22.5163V28.3142H29.3826V27.4909C29.0425 28.117 28.4665 28.4301 27.6548 28.4301C26.9823 28.4301 26.4721 28.2253 26.1242 27.8155C25.7763 27.4058 25.6024 26.8879 25.6024 26.2617V22.5163H26.8084V25.937C26.8084 26.4009 26.9127 26.7526 27.1214 26.9922C27.3302 27.2319 27.6278 27.3517 28.0143 27.3517C28.4086 27.3517 28.7255 27.228 28.9652 26.9806C29.2125 26.7255 29.3362 26.3661 29.3362 25.9022V22.5163H30.5422Z" fill="#6D3805"/>
<path d="M21.6504 28.4771C21.0784 28.4771 20.572 28.3457 20.1314 28.0829C19.6907 27.8123 19.3506 27.4451 19.1109 26.9813C18.8713 26.5175 18.7515 25.9995 18.7515 25.4275C18.7515 24.8554 18.8713 24.3375 19.1109 23.8736C19.3506 23.4021 19.6907 23.0349 20.1314 22.772C20.572 22.5015 21.0784 22.3662 21.6504 22.3662C22.2225 22.3662 22.7288 22.5015 23.1695 22.772C23.6178 23.0349 23.9618 23.4021 24.2015 23.8736C24.4489 24.3375 24.5725 24.8554 24.5725 25.4275C24.5725 25.9995 24.4489 26.5175 24.2015 26.9813C23.9618 27.4451 23.6178 27.8123 23.1695 28.0829C22.7288 28.3457 22.2225 28.4771 21.6504 28.4771ZM21.6504 27.3987C22.1529 27.3987 22.5587 27.2132 22.868 26.8421C23.1849 26.4711 23.3434 25.9995 23.3434 25.4275C23.3434 24.8477 23.1849 24.3722 22.868 24.0012C22.5587 23.6224 22.1529 23.433 21.6504 23.433C21.1479 23.433 20.7421 23.6224 20.4329 24.0012C20.1314 24.3722 19.9806 24.8477 19.9806 25.4275C19.9806 25.9995 20.1314 26.4711 20.4329 26.8421C20.7421 27.2132 21.1479 27.3987 21.6504 27.3987Z" fill="#6D3805"/>
<path d="M16.1461 28.4771C15.5586 28.4771 15.0445 28.3457 14.6039 28.0829C14.1633 27.82 13.8231 27.4567 13.5835 26.9929C13.3516 26.529 13.2356 26.0034 13.2356 25.4159C13.2356 24.8361 13.3516 24.3143 13.5835 23.8504C13.8231 23.3866 14.1633 23.0233 14.6039 22.7604C15.0445 22.4976 15.5586 22.3662 16.1461 22.3662C17.0815 22.3662 17.8237 22.7334 18.3725 23.4678L17.5956 24.1287C17.1704 23.6649 16.6873 23.433 16.1461 23.433C15.6127 23.433 15.1991 23.6185 14.9054 23.9896C14.6116 24.3529 14.4647 24.8283 14.4647 25.4159C14.4647 26.0034 14.6116 26.4827 14.9054 26.8537C15.1991 27.2171 15.6127 27.3987 16.1461 27.3987C16.695 27.3987 17.1782 27.1707 17.5956 26.7146L18.3725 27.3755C17.8237 28.1099 17.0815 28.4771 16.1461 28.4771Z" fill="#6D3805"/>
<path d="M10.6301 28.4771C10.0426 28.4771 9.52854 28.3457 9.0879 28.0829C8.64726 27.82 8.30712 27.4567 8.06748 26.9929C7.83556 26.529 7.7196 26.0034 7.7196 25.4159C7.7196 24.8361 7.83556 24.3143 8.06748 23.8504C8.30712 23.3866 8.64726 23.0233 9.0879 22.7604C9.52854 22.4976 10.0426 22.3662 10.6301 22.3662C11.5655 22.3662 12.3077 22.7334 12.8565 23.4678L12.0796 24.1287C11.6544 23.6649 11.1713 23.433 10.6301 23.433C10.0967 23.433 9.68315 23.6185 9.38939 23.9896C9.09563 24.3529 8.94875 24.8283 8.94875 25.4159C8.94875 26.0034 9.09563 26.4827 9.38939 26.8537C9.68315 27.2171 10.0967 27.3987 10.6301 27.3987C11.179 27.3987 11.6622 27.1707 12.0796 26.7146L12.8565 27.3755C12.3077 28.1099 11.5655 28.4771 10.6301 28.4771Z" fill="#6D3805"/>
<path d="M5.4616 26.2969H2.01766L1.29872 28.3145H0L3.0149 20.1975H4.51075L7.52564 28.3145H6.18054L5.4616 26.2969ZM5.06734 25.2069L3.74543 21.4846L2.41192 25.2069H5.06734Z" fill="#6D3805"/>
<path d="M19.6084 9.60695C22.5363 9.60695 24.9093 7.45664 24.9093 4.80347C24.9093 2.1503 22.5363 0 19.6084 0C16.6805 0 14.3075 2.1503 14.3075 4.80347C14.3075 7.45664 16.6805 9.60695 19.6084 9.60695ZM23.3191 10.8078H22.6275C21.7081 11.1906 20.6852 11.4082 19.6084 11.4082C18.5317 11.4082 17.5129 11.1906 16.5894 10.8078H15.8978C12.8249 10.8078 10.3318 13.0669 10.3318 15.8515V17.4126C10.3318 18.4071 11.2222 19.2139 12.3197 19.2139H26.8972C27.9946 19.2139 28.885 18.4071 28.885 17.4126V15.8515C28.885 13.0669 26.3919 10.8078 23.3191 10.8078Z" fill="#6D3805"/>
</svg>
