<svg width="351" height="356" viewBox="0 0 351 356" fill="none" xmlns="http://www.w3.org/2000/svg">
<path d="M175.5 355.999C272.426 355.999 351 351.357 351 345.63C351 339.904 272.426 335.262 175.5 335.262C78.574 335.262 0 339.904 0 345.63C0 351.357 78.574 355.999 175.5 355.999Z" fill="#E6E6E6"/>
<path d="M198.952 82.1353H197.064V30.1104C197.064 22.1246 193.91 14.4659 188.296 8.81913C182.682 3.17234 175.067 0 167.128 0H57.547C49.6076 0 41.9934 3.17234 36.3794 8.81913C30.7654 14.4659 27.6115 22.1246 27.6115 30.1104V315.521C27.6115 323.507 30.7654 331.166 36.3794 336.813C41.9934 342.46 49.6076 345.632 57.547 345.632H167.128C175.067 345.632 182.682 342.46 188.296 336.813C193.91 331.166 197.064 323.507 197.064 315.521V119.167H198.952V82.1353Z" fill="#3F3D56"/>
<path d="M190.692 30.3228V315.314C190.692 321.277 188.336 326.997 184.144 331.214C179.951 335.431 174.265 337.8 168.336 337.8H58.2289C52.2999 337.8 46.6137 335.431 42.4213 331.214C38.2288 326.997 35.8734 321.278 35.8731 315.314V30.3228C35.8733 24.359 38.2287 18.6394 42.4213 14.4223C46.6139 10.2053 52.3002 7.83607 58.2294 7.83594H71.587C70.9306 9.45821 70.6806 11.2179 70.8589 12.9602C71.0373 14.7024 71.6387 16.3739 72.61 17.8276C73.5814 19.2812 74.893 20.4725 76.4296 21.2966C77.9661 22.1207 79.6804 22.5524 81.4217 22.5536H144.2C145.941 22.5525 147.655 22.1208 149.192 21.2968C150.729 20.4727 152.04 19.2814 153.012 17.8278C153.983 16.3741 154.585 14.7026 154.763 12.9603C154.941 11.218 154.691 9.45825 154.035 7.83594H168.336C174.265 7.83607 179.951 10.2053 184.144 14.4223C188.336 18.6394 190.692 24.359 190.692 30.3228Z" fill="white"/>
<path d="M86.7377 246.097H84.4219L85.1951 200.602H85.9682L86.7377 246.097Z" fill="#E6E6E6"/>
<path d="M88.6669 171.955L92.4048 166.145C91.2963 163.065 90.016 160.051 88.57 157.116L86.1532 159.08L88.067 156.105C86.2429 152.494 84.808 150.219 84.808 150.219C84.808 150.219 77.3128 162.1 74.8073 174.681L79.6038 182.137L74.295 177.823C74.1059 179.288 74.0086 180.764 74.0038 182.242C74.0038 197.141 78.8415 209.219 84.809 209.219C90.7765 209.219 95.6143 197.14 95.6143 182.242C95.6143 177.623 94.5752 172.791 93.1403 168.321L88.6669 171.955Z" fill="#CCCCCC"/>
<path d="M147.021 246.097H144.705L145.478 200.602H146.251L147.021 246.097Z" fill="#E6E6E6"/>
<path d="M148.95 171.955L152.688 166.145C151.579 163.065 150.299 160.051 148.853 157.116L146.436 159.08L148.35 156.105C146.526 152.494 145.091 150.219 145.091 150.219C145.091 150.219 137.595 162.101 135.092 174.681L139.885 182.136L134.576 177.822C134.387 179.287 134.289 180.763 134.285 182.241C134.285 197.14 139.122 209.218 145.09 209.218C151.057 209.218 155.895 197.139 155.895 182.241C155.895 177.622 154.856 172.79 153.421 168.32L148.95 171.955Z" fill="#CCCCCC"/>
<path d="M84.9755 95.2859C96.7262 95.2859 106.252 85.7045 106.252 73.8852C106.252 62.0658 96.7262 52.4844 84.9755 52.4844C73.2248 52.4844 63.699 62.0658 63.699 73.8852C63.699 85.7045 73.2248 95.2859 84.9755 95.2859Z" fill="#E6E6E6"/>
<path d="M114.445 239.471H109.671L111.262 145.664H112.853L114.445 239.471Z" fill="#E6E6E6"/>
<path d="M118.424 86.6039L126.131 74.6251C123.845 68.2747 121.205 62.0591 118.224 56.0078L113.24 60.0562L117.186 53.9221C113.424 46.4764 110.467 41.7852 110.467 41.7852C110.467 41.7852 95.0102 66.2841 89.8462 92.2232L99.7335 107.597L88.785 98.7025C88.3951 101.724 88.1945 104.767 88.1845 107.814C88.1845 138.535 98.1594 163.439 110.464 163.439C122.769 163.439 132.743 138.535 132.743 107.814C132.743 98.2909 130.601 88.3272 127.647 79.11L118.424 86.6039Z" fill="#CCCCCC"/>
<path d="M190.692 252.993V316.764C190.692 329.698 180.683 340.183 168.336 340.184H58.2289C45.882 340.184 35.8726 329.699 35.8721 316.764V259.21C54.9622 235.734 82.5634 221.704 111.98 220.522C141.396 219.341 169.942 231.117 190.692 252.993Z" fill="#E6E6E6"/>
<path opacity="0.2" d="M113.402 315.897C131.395 315.897 145.981 301.226 145.981 283.128C145.981 265.031 131.395 250.359 113.402 250.359C95.4097 250.359 80.8238 265.031 80.8238 283.128C80.8238 301.226 95.4097 315.897 113.402 315.897Z" fill="#6C63FF"/>
<path d="M113.402 309.517C127.89 309.517 139.635 297.704 139.635 283.132C139.635 268.559 127.89 256.746 113.402 256.746C98.9147 256.746 87.1702 268.559 87.1702 283.132C87.1702 297.704 98.9147 309.517 113.402 309.517Z" fill="#6C63FF"/>
<path d="M110.343 294.412L101.098 282.456L106.474 278.25L110.851 283.911L125.638 268.211L130.583 272.922L110.343 294.412Z" fill="white"/>
<path d="M252.806 242.091C262.199 242.091 269.814 234.432 269.814 224.983C269.814 215.535 262.199 207.875 252.806 207.875C243.412 207.875 235.797 215.535 235.797 224.983C235.797 234.432 243.412 242.091 252.806 242.091Z" fill="#2F2E41"/>
<path d="M259.698 321.026L261.008 327.243L285.475 325.118L283.542 315.941L259.698 321.026Z" fill="#FFB8B8"/>
<path d="M257.793 340.457L253.676 320.915L261.182 319.315L263.709 331.307C263.918 332.298 263.93 333.322 263.746 334.318C263.562 335.314 263.184 336.265 262.635 337.114C262.086 337.964 261.375 338.696 260.545 339.27C259.714 339.844 258.779 340.247 257.793 340.457Z" fill="#2F2E41"/>
<path d="M244.37 320.695L241.616 326.416L218.371 318.454L222.436 310.012L244.37 320.695Z" fill="#FFB8B8"/>
<path d="M238.027 329.714L243.338 318.682L250.244 322.045L241.589 340.024C239.758 339.132 238.353 337.544 237.685 335.611C237.017 333.678 237.14 331.556 238.027 329.714Z" fill="#2F2E41"/>
<path d="M198.57 309.395C199.365 309.544 200.184 309.515 200.968 309.312C201.751 309.108 202.481 308.734 203.106 308.216C203.73 307.698 204.234 307.049 204.582 306.314C204.93 305.579 205.114 304.776 205.12 303.961L243.454 268.412L233.934 260.996L199.227 298.293C197.866 298.373 196.582 298.952 195.617 299.921C194.652 300.89 194.075 302.181 193.994 303.55C193.913 304.919 194.334 306.27 195.177 307.347C196.021 308.424 197.228 309.153 198.57 309.394L198.57 309.395Z" fill="#FFB8B8"/>
<path d="M250.671 242.865C257.662 242.865 263.33 237.164 263.33 230.132C263.33 223.099 257.662 217.398 250.671 217.398C243.679 217.398 238.011 223.099 238.011 230.132C238.011 237.164 243.679 242.865 250.671 242.865Z" fill="#FFB8B8"/>
<path d="M262.032 304.979C253.151 304.979 242.457 303.098 235.859 295.4L235.711 295.227L235.865 295.057C235.917 295.001 240.769 289.422 235.922 279.472L229.258 281.534L222.625 272.726L226.3 261.638L241.338 249.455C243.492 247.718 246.116 246.672 248.868 246.452C253.849 245.967 258.701 244.578 263.189 242.35C265.242 241.346 267.504 240.848 269.786 240.898L270.082 240.906C270.776 240.926 271.459 241.087 272.089 241.38C272.72 241.673 273.284 242.092 273.749 242.611C274.214 243.13 274.569 243.739 274.792 244.4C275.016 245.061 275.104 245.761 275.051 246.458C274.031 259.745 272.231 291.842 277.521 302.894L277.657 303.18L277.352 303.258C272.324 304.396 267.187 304.973 262.033 304.978L262.032 304.979Z" fill="#6C63FF"/>
<path d="M237.601 295.232C237.601 295.232 204.098 292.121 200.491 301.971C196.883 311.821 201.006 316.487 207.191 318.561C213.376 320.635 228.323 323.227 228.323 323.227L235.024 314.932L252.548 315.969C252.548 315.969 272.074 327.36 277.473 339.544C278.632 342.18 280.479 344.452 282.818 346.116C285.158 347.781 287.902 348.777 290.759 348.998C295.089 349.301 298.935 347.657 298.935 340.853C298.935 325.3 277.288 303.007 277.288 303.007L237.601 295.232Z" fill="#2F2E41"/>
<path d="M212.088 310.525C212.088 310.525 220.85 307.933 234.766 314.673L212.088 310.525Z" fill="#2F2E41"/>
<path d="M238.042 222.009C242.986 225.044 248.56 226.891 254.33 227.407L252.613 225.337C253.863 225.802 255.178 226.065 256.51 226.115C257.177 226.135 257.839 225.997 258.443 225.712C259.047 225.428 259.577 225.005 259.989 224.477C260.326 223.93 260.526 223.308 260.572 222.666C260.619 222.024 260.51 221.38 260.255 220.789C259.732 219.61 258.917 218.586 257.89 217.814C256.068 216.364 253.917 215.39 251.63 214.979C249.343 214.568 246.991 214.732 244.782 215.457C243.266 215.912 241.909 216.788 240.865 217.983C240.352 218.585 239.996 219.306 239.828 220.08C239.661 220.855 239.687 221.659 239.905 222.421" fill="#2F2E41"/>
<path d="M252.714 211.832C254.964 206.579 258.33 201.885 262.578 198.081C265.305 195.645 268.491 193.549 272.085 192.916C275.679 192.284 279.731 193.367 281.935 196.292C283.739 198.683 284.076 201.887 283.877 204.882C283.679 207.876 283.013 210.844 283.077 213.842C283.142 216.904 283.966 219.901 285.474 222.56C286.983 225.22 289.128 227.459 291.715 229.074C294.302 230.688 297.249 231.627 300.288 231.806C303.328 231.984 306.363 231.396 309.119 230.095C306.015 231.821 303.597 234.554 300.718 236.632C297.839 238.71 294.036 240.136 290.764 238.763C287.302 237.311 285.713 233.361 284.473 229.799L278.941 213.914C278.001 211.214 277.014 208.433 275.095 206.322C273.176 204.21 270.062 202.922 267.421 203.984C265.419 204.789 264.116 206.71 262.973 208.546C261.831 210.383 260.624 212.341 258.695 213.305C256.766 214.269 253.902 213.676 253.272 211.602" fill="#2F2E41"/>
<path d="M257.058 305.022C256.839 305.022 256.621 305.01 256.404 304.986C254.964 304.823 253.64 304.111 252.705 302.997C251.77 301.882 251.295 300.45 251.378 298.994C251.46 297.538 252.094 296.17 253.149 295.17C254.204 294.169 255.599 293.613 257.049 293.616C257.302 293.618 257.554 293.636 257.805 293.673L275.111 275.141L273.305 269.084L282.376 264.992L284.919 271.244C285.772 273.362 285.923 275.7 285.35 277.911C284.777 280.122 283.51 282.089 281.738 283.518L262.688 298.76C262.708 298.946 262.718 299.133 262.719 299.319C262.718 300.122 262.55 300.915 262.225 301.647C261.899 302.38 261.424 303.035 260.83 303.571C259.796 304.509 258.451 305.027 257.058 305.022Z" fill="#FFB8B8"/>
<path d="M270.588 243.387C271.188 243.119 271.835 242.976 272.492 242.965C273.149 242.955 273.8 243.079 274.408 243.328C275.016 243.578 275.568 243.949 276.03 244.418C276.492 244.888 276.854 245.446 277.096 246.06L286.05 268.79L272.134 278.122L270.588 243.387Z" fill="#6C63FF"/>
</svg>
