<svg width="37" height="14" viewBox="0 0 37 14" fill="none" xmlns="http://www.w3.org/2000/svg">
<path fill-rule="evenodd" clip-rule="evenodd" d="M0 0.0259524C0 0.0259524 0.892965 8.83666 3.02461 12.5983C3.35121 13.1749 3.77694 14.0066 4.44801 14.0003C6.5824 13.9746 9.4292 13.9746 11.5647 14.0003C12.2356 14.0003 12.6243 13.1536 12.9881 12.5983C14.3545 10.5136 15.6569 5.6348 15.6569 5.6348L20.6379 5.60914C20.6379 5.60914 22.2257 10.4811 23.6625 12.5724C24.0386 13.12 24.4148 13.9807 25.0859 13.9746C27.2214 13.9489 30.0682 13.9489 32.2026 13.9746C32.8735 13.9746 33.3068 13.1543 33.626 12.5724C35.6947 8.8058 36.2947 0 36.2947 0" fill="#8ABDD2"/>
</svg>
