<svg width="100" height="100" viewBox="0 0 100 100" fill="none" xmlns="http://www.w3.org/2000/svg">
<circle cx="50" cy="50" r="50" fill="#FFC0C0"/>
<path d="M56.89 43.66C56.36 43.43 56.02 42.92 56.02 42.35V13.08C56.66 12.89 57.12 12.31 57.12 11.61V10.54C57.12 9.69 56.43 9 55.58 9H49.27C48.42 9 47.73 9.69 47.73 10.54V11.61C47.73 12.31 48.2 12.89 48.83 13.08V42.35C48.83 42.92 48.49 43.43 47.95 43.66C43.73 45.45 41 49.57 41 54.16V74.34C41 77.05 43.2 79.25 45.9 79.25H58.93C61.63 79.25 63.83 77.05 63.83 74.34V54.16C63.84 49.57 61.11 45.45 56.89 43.66ZM48.74 10.55C48.74 10.26 48.99 10.01 49.28 10.01H55.59C55.88 10.01 56.13 10.26 56.13 10.55V11.62C56.13 11.91 55.88 12.16 55.59 12.16H49.28C48.99 12.16 48.74 11.91 48.74 11.62V10.55Z" fill="#7C1919"/>
<path d="M76.14 62.7703L76.52 47.6103C76.53 47.2303 76.39 46.8703 76.12 46.5803C75.79 46.2403 75.31 46.0403 74.81 46.0403L68.78 46.0303C68.28 46.0303 67.8 46.2203 67.48 46.5603C67.2 46.8503 67.05 47.2203 67.05 47.6103L67.43 62.7703C67.48 64.6003 69.16 66.0603 71.29 66.1503V77.0803H69C68.48 77.0803 68.07 77.5003 68.07 78.0103V78.3103C68.07 78.8303 68.49 79.2503 69 79.2503H74.59C75.11 79.2503 75.52 78.8303 75.52 78.3103V78.0103C75.52 77.4903 75.1 77.0803 74.59 77.0803H72.3V66.1503C74.42 66.0703 76.1 64.6103 76.14 62.7703Z" fill="#7C1919"/>
</svg>
