<svg width="26" height="26" viewBox="0 0 26 26" fill="none" xmlns="http://www.w3.org/2000/svg">
<path d="M20.5833 11.9175H7.73494L11.6674 7.19418C11.8513 6.97294 11.9398 6.68772 11.9134 6.40126C11.887 6.1148 11.7478 5.85056 11.5266 5.66668C11.3054 5.48279 11.0202 5.39433 10.7337 5.42074C10.4472 5.44715 10.183 5.58628 9.99911 5.80751L4.58244 12.3075C4.546 12.3592 4.51341 12.4135 4.48494 12.47C4.48494 12.5242 4.48494 12.5567 4.4091 12.6109C4.36 12.7351 4.33429 12.8673 4.33327 13.0009C4.33429 13.1344 4.36 13.2666 4.4091 13.3909C4.4091 13.445 4.4091 13.4775 4.48494 13.5317C4.51341 13.5882 4.546 13.6425 4.58244 13.6942L9.99911 20.1942C10.101 20.3165 10.2285 20.4148 10.3727 20.4822C10.5169 20.5496 10.6741 20.5845 10.8333 20.5842C11.0864 20.5847 11.3317 20.4965 11.5266 20.335C11.6363 20.2441 11.727 20.1324 11.7935 20.0063C11.8599 19.8803 11.9009 19.7424 11.9139 19.6005C11.927 19.4586 11.912 19.3155 11.8697 19.1795C11.8274 19.0434 11.7587 18.917 11.6674 18.8075L7.73494 14.0842H20.5833C20.8706 14.0842 21.1462 13.9701 21.3493 13.7669C21.5525 13.5637 21.6666 13.2882 21.6666 13.0009C21.6666 12.7135 21.5525 12.438 21.3493 12.2348C21.1462 12.0317 20.8706 11.9175 20.5833 11.9175Z" fill="black"/>
</svg>
