<svg width="17" height="17" viewBox="0 0 17 17" fill="none" xmlns="http://www.w3.org/2000/svg">
<path d="M16.5761 13.3875L12.7964 10.3771C12.5844 10.2354 12.2665 10.2354 12.0899 10.4125L11.9839 10.5188L10.9948 9.5625C12.6551 7.18958 12.4431 3.89583 10.3236 1.77083C9.19325 0.6375 7.67429 0 6.04935 0C4.42442 0 2.90545 0.6375 1.77506 1.77083C-0.591688 4.14375 -0.591688 7.96875 1.77506 10.3417C2.90545 11.475 4.42442 12.1125 6.04935 12.1125C7.32104 12.1125 8.52208 11.7229 9.54649 11.0146L10.5356 12.0063L10.4296 12.1125C10.253 12.2896 10.2177 12.6083 10.3943 12.8208L13.3969 16.6104C13.6088 16.8583 13.8914 17 14.2094 17C14.4919 17 14.7392 16.8938 14.9158 16.7167L16.6821 14.9458C16.894 14.7333 17 14.45 17 14.1667C16.9293 13.8479 16.7881 13.5646 16.5761 13.3875Z" fill="#FF5E00"/>
</svg>
