<svg width="131" height="17" viewBox="0 0 131 17" fill="none" xmlns="http://www.w3.org/2000/svg">
<path d="M128.72 11.8655L128.321 1.26173H130.823L130.402 11.8655H128.72ZM129.583 16.8907C129.17 16.8907 128.823 16.7505 128.543 16.4701C128.262 16.1897 128.122 15.8576 128.122 15.4739C128.122 15.0607 128.262 14.7212 128.543 14.4556C128.823 14.1899 129.17 14.0571 129.583 14.0571C129.996 14.0571 130.336 14.1899 130.602 14.4556C130.867 14.7212 131 15.0607 131 15.4739C131 15.8576 130.867 16.1897 130.602 16.4701C130.336 16.7505 129.996 16.8907 129.583 16.8907Z" fill="#FFB55E"/>
<path d="M115.271 16.8896C114.297 16.8896 113.367 16.7568 112.481 16.4911C111.611 16.2255 110.924 15.9008 110.423 15.5171L111.308 13.8346C111.81 14.1741 112.43 14.4619 113.168 14.698C113.906 14.9341 114.658 15.0522 115.426 15.0522C116.414 15.0522 117.123 14.912 117.551 14.6316C117.994 14.3512 118.215 13.9601 118.215 13.4583C118.215 13.0893 118.082 12.8016 117.817 12.5949C117.551 12.3883 117.197 12.2334 116.754 12.1301C116.326 12.0268 115.846 11.9382 115.315 11.8644C114.784 11.7759 114.252 11.6726 113.721 11.5545C113.19 11.4217 112.703 11.2446 112.26 11.0232C111.817 10.7871 111.463 10.4698 111.197 10.0713C110.932 9.65806 110.799 9.112 110.799 8.43313C110.799 7.72473 110.998 7.10489 111.397 6.57359C111.795 6.04229 112.356 5.63644 113.079 5.35604C113.817 5.06087 114.688 4.91329 115.691 4.91329C116.459 4.91329 117.234 5.00922 118.016 5.20108C118.813 5.37817 119.462 5.63644 119.964 5.97588L119.056 7.65832C118.525 7.30412 117.971 7.06061 117.396 6.92779C116.82 6.79496 116.245 6.72855 115.669 6.72855C114.739 6.72855 114.046 6.88351 113.588 7.19343C113.131 7.4886 112.902 7.87231 112.902 8.34458C112.902 8.74305 113.035 9.05297 113.3 9.27434C113.581 9.48096 113.935 9.6433 114.363 9.76136C114.806 9.87943 115.293 9.98274 115.824 10.0713C116.355 10.1451 116.887 10.2484 117.418 10.3812C117.949 10.4993 118.429 10.669 118.857 10.8904C119.3 11.1117 119.654 11.4217 119.92 11.8201C120.2 12.2186 120.34 12.7499 120.34 13.414C120.34 14.1224 120.134 14.7349 119.72 15.2514C119.307 15.768 118.724 16.1738 117.971 16.469C117.219 16.7494 116.319 16.8896 115.271 16.8896Z" fill="#FFB55E"/>
<path d="M100.525 13.9225L100.569 11.1996L107.321 5.02329H109.889L104.709 10.1149L103.558 11.0889L100.525 13.9225ZM98.7982 16.7561V0.330173H100.923V16.7561H98.7982ZM107.764 16.7561L103.159 11.0446L104.532 9.34006L110.376 16.7561H107.764Z" fill="#FFB55E"/>
<path d="M90.161 4.91329C91.1203 4.91329 91.9615 5.09777 92.6847 5.46672C93.4226 5.83568 93.9982 6.39649 94.4114 7.14916C94.8246 7.90183 95.0312 8.85373 95.0312 10.0049V16.7568H92.9061V10.2484C92.9061 9.112 92.6256 8.25603 92.0648 7.68046C91.5188 7.10489 90.744 6.8171 89.7404 6.8171C88.9877 6.8171 88.331 6.96468 87.7702 7.25985C87.2094 7.55501 86.774 7.99038 86.4641 8.56595C86.1689 9.14152 86.0213 9.85729 86.0213 10.7133V16.7568H83.8962V5.02398H85.9328V8.18961L85.6007 7.3484C85.9844 6.58097 86.5748 5.98326 87.3717 5.55527C88.1687 5.12728 89.0984 4.91329 90.161 4.91329Z" fill="#FFB55E"/>
<path d="M77.8793 16.758V5.02517H80.0045V16.758H77.8793ZM78.9419 2.76717C78.5287 2.76717 78.1819 2.63434 77.9015 2.36869C77.6358 2.10305 77.503 1.77836 77.503 1.39465C77.503 0.99618 77.6358 0.66412 77.9015 0.398472C78.1819 0.132824 78.5287 0 78.9419 0C79.3551 0 79.6946 0.132824 79.9602 0.398472C80.2406 0.649361 80.3808 0.966663 80.3808 1.35038C80.3808 1.74885 80.248 2.08829 79.9824 2.36869C79.7167 2.63434 79.3699 2.76717 78.9419 2.76717Z" fill="#FFB55E"/>
<path d="M69.1169 16.7568V5.02398H71.1535V8.21175L70.9543 7.41481C71.2789 6.60311 71.825 5.98326 72.5924 5.55527C73.3598 5.12728 74.3044 4.91329 75.426 4.91329V6.97206C75.3374 6.9573 75.2489 6.94992 75.1604 6.94992C75.0866 6.94992 75.0128 6.94992 74.939 6.94992C73.8026 6.94992 72.9023 7.28936 72.2382 7.96824C71.5741 8.64712 71.242 9.62854 71.242 10.9125V16.7568H69.1169Z" fill="#FFB55E"/>
<path d="M51.3036 16.7579V1.26173H57.8341C59.487 1.26173 60.9407 1.58641 62.1952 2.23578C63.4644 2.88514 64.4458 3.79277 65.1394 4.95867C65.8478 6.12457 66.202 7.47494 66.202 9.0098C66.202 10.5447 65.8478 11.895 65.1394 13.0609C64.4458 14.2268 63.4644 15.1345 62.1952 15.7838C60.9407 16.4332 59.487 16.7579 57.8341 16.7579H51.3036ZM53.5173 14.8319H57.7013C58.9852 14.8319 60.0921 14.5884 61.0219 14.1014C61.9664 13.6144 62.6969 12.9355 63.2135 12.0647C63.73 11.1793 63.9883 10.1609 63.9883 9.0098C63.9883 7.8439 63.73 6.82558 63.2135 5.95485C62.6969 5.08411 61.9664 4.40523 61.0219 3.91821C60.0921 3.43119 58.9852 3.18768 57.7013 3.18768H53.5173V14.8319Z" fill="#FFB55E"/>
<path d="M40.2434 16.8902C39.0627 16.8902 38.1477 16.5729 37.4984 15.9383C36.849 15.3037 36.5243 14.396 36.5243 13.2154V2.45665H38.6495V13.1268C38.6495 13.7614 38.8045 14.2485 39.1144 14.5879C39.4391 14.9273 39.8966 15.0971 40.4869 15.0971C41.151 15.0971 41.7044 14.9126 42.1472 14.5436L42.8113 16.0711C42.4866 16.3515 42.0955 16.5581 41.638 16.6909C41.1953 16.8238 40.7304 16.8902 40.2434 16.8902ZM34.532 6.77342V5.02457H42.0144V6.77342H34.532Z" fill="#FFB55E"/>
<path d="M28.8861 16.7592V3.98594C28.8861 2.8348 29.2182 1.91979 29.8823 1.24092C30.5612 0.54728 31.5205 0.200462 32.7601 0.200462C33.2177 0.200462 33.653 0.259495 34.0663 0.377561C34.4942 0.480868 34.8558 0.650588 35.151 0.886719L34.509 2.50274C34.2876 2.32564 34.0367 2.19282 33.7563 2.10427C33.4759 2.00096 33.1808 1.94931 32.8708 1.94931C32.251 1.94931 31.7787 2.12641 31.454 2.48061C31.1294 2.82004 30.967 3.3292 30.967 4.00808V5.57983L31.0113 6.55387V16.7592H28.8861ZM26.8938 6.77525V5.0264H34.3762V6.77525H26.8938Z" fill="#FFB55E"/>
<path d="M19.7154 16.8896C18.5348 16.8896 17.4869 16.6313 16.5719 16.1148C15.6569 15.5982 14.9338 14.8898 14.4025 13.9896C13.8712 13.0746 13.6055 12.0415 13.6055 10.8904C13.6055 9.72447 13.8712 8.69139 14.4025 7.79114C14.9338 6.89089 15.6569 6.18988 16.5719 5.6881C17.4869 5.17156 18.5348 4.91329 19.7154 4.91329C20.8813 4.91329 21.9218 5.17156 22.8368 5.6881C23.7665 6.18988 24.4897 6.89089 25.0062 7.79114C25.5375 8.67664 25.8032 9.70971 25.8032 10.8904C25.8032 12.0563 25.5375 13.0893 25.0062 13.9896C24.4897 14.8898 23.7665 15.5982 22.8368 16.1148C21.9218 16.6313 20.8813 16.8896 19.7154 16.8896ZM19.7154 15.03C20.4681 15.03 21.1396 14.8603 21.7299 14.5209C22.335 14.1814 22.8073 13.7018 23.1467 13.082C23.4861 12.4474 23.6559 11.7168 23.6559 10.8904C23.6559 10.0492 23.4861 9.326 23.1467 8.72091C22.8073 8.10107 22.335 7.62142 21.7299 7.28198C21.1396 6.94255 20.4681 6.77283 19.7154 6.77283C18.9627 6.77283 18.2913 6.94255 17.7009 7.28198C17.1106 7.62142 16.6383 8.10107 16.2841 8.72091C15.9299 9.326 15.7528 10.0492 15.7528 10.8904C15.7528 11.7168 15.9299 12.4474 16.2841 13.082C16.6383 13.7018 17.1106 14.1814 17.7009 14.5209C18.2913 14.8603 18.9627 15.03 19.7154 15.03Z" fill="#FFB55E"/>
<path d="M5.9328 16.9352C4.75215 16.9352 3.62314 16.7581 2.54579 16.4039C1.46844 16.0349 0.619845 15.5627 0 14.9871L0.819081 13.2604C1.40941 13.7769 2.16208 14.2049 3.07709 14.5443C3.9921 14.8838 4.944 15.0535 5.9328 15.0535C6.83305 15.0535 7.56359 14.9502 8.1244 14.7436C8.68521 14.537 9.09844 14.2566 9.36409 13.9024C9.62974 13.5334 9.76256 13.1202 9.76256 12.6627C9.76256 12.1314 9.58546 11.7034 9.23126 11.3787C8.89183 11.054 8.4417 10.7958 7.88089 10.6039C7.33483 10.3973 6.72975 10.2202 6.06563 10.0726C5.40151 9.92503 4.73001 9.75531 4.05113 9.56345C3.38701 9.35683 2.77454 9.09857 2.21373 8.78864C1.66768 8.47872 1.22493 8.06549 0.885493 7.54895C0.546054 7.01766 0.376334 6.33878 0.376334 5.51232C0.376334 4.71537 0.58295 3.98484 0.99618 3.32072C1.42417 2.64185 2.07353 2.10317 2.94426 1.7047C3.82976 1.29147 4.95138 1.08485 6.30914 1.08485C7.20939 1.08485 8.10226 1.20292 8.98775 1.43905C9.87325 1.67518 10.6407 2.01462 11.29 2.45737L10.5595 4.22835C9.89538 3.78561 9.19437 3.46831 8.45646 3.27645C7.71855 3.06983 7.00277 2.96653 6.30914 2.96653C5.4384 2.96653 4.72263 3.07721 4.16182 3.29859C3.601 3.51996 3.18777 3.81512 2.92213 4.18408C2.67124 4.55303 2.54579 4.96626 2.54579 5.42377C2.54579 5.96982 2.71551 6.40519 3.05495 6.72987C3.40915 7.05455 3.85927 7.31282 4.40533 7.50468C4.96614 7.69653 5.57861 7.87363 6.24273 8.03597C6.90685 8.18356 7.57096 8.35328 8.23508 8.54513C8.91396 8.73699 9.52643 8.98788 10.0725 9.2978C10.6333 9.60772 11.0834 10.021 11.4229 10.5375C11.7623 11.054 11.932 11.7181 11.932 12.5299C11.932 13.312 11.718 14.0426 11.29 14.7214C10.862 15.3856 10.1979 15.9242 9.29768 16.3375C8.41218 16.7359 7.29056 16.9352 5.9328 16.9352Z" fill="#FFB55E"/>
</svg>
