<svg width="160" height="19" viewBox="0 0 160 19" fill="none" xmlns="http://www.w3.org/2000/svg">
<path d="M150.873 8.59729H158.964V11.728H150.873V8.59729ZM151.162 17.8691H147.26V1.01128H160V4.14201H151.162V17.8691Z" fill="white"/>
<path d="M135.657 8.59729H143.749V11.728H135.657V8.59729ZM135.946 17.8691H132.045V1.01128H144.785V4.14201H135.946V17.8691Z" fill="white"/>
<path d="M120.079 18.157C118.746 18.157 117.51 17.9403 116.37 17.5068C115.246 17.0733 114.267 16.4632 113.432 15.6765C112.613 14.8898 111.971 13.9666 111.505 12.907C111.056 11.8474 110.831 10.6914 110.831 9.43911C110.831 8.18682 111.056 7.03086 111.505 5.97122C111.971 4.91159 112.621 3.98842 113.456 3.20173C114.291 2.41503 115.27 1.80494 116.394 1.37145C117.518 0.937966 118.738 0.721223 120.055 0.721223C121.387 0.721223 122.608 0.937966 123.715 1.37145C124.839 1.80494 125.811 2.41503 126.629 3.20173C127.464 3.98842 128.114 4.91159 128.58 5.97122C129.046 7.0148 129.278 8.17076 129.278 9.43911C129.278 10.6914 129.046 11.8554 128.58 12.9311C128.114 13.9907 127.464 14.9139 126.629 15.7006C125.811 16.4712 124.839 17.0733 123.715 17.5068C122.608 17.9403 121.395 18.157 120.079 18.157ZM120.055 14.8336C120.809 14.8336 121.5 14.7052 122.126 14.4483C122.768 14.1914 123.33 13.8221 123.812 13.3405C124.293 12.8588 124.663 12.2889 124.919 11.6306C125.192 10.9724 125.329 10.2419 125.329 9.43911C125.329 8.63636 125.192 7.90586 124.919 7.2476C124.663 6.58934 124.293 6.01939 123.812 5.53774C123.346 5.05609 122.792 4.68682 122.15 4.42994C121.508 4.17306 120.809 4.04462 120.055 4.04462C119.3 4.04462 118.602 4.17306 117.96 4.42994C117.333 4.68682 116.78 5.05609 116.298 5.53774C115.816 6.01939 115.439 6.58934 115.166 7.2476C114.909 7.90586 114.781 8.63636 114.781 9.43911C114.781 10.2258 114.909 10.9563 115.166 11.6306C115.439 12.2889 115.808 12.8588 116.274 13.3405C116.755 13.8221 117.317 14.1914 117.96 14.4483C118.602 14.7052 119.3 14.8336 120.055 14.8336Z" fill="white"/>
<path d="M85.6551 17.8697L97.1666 1.01187H100.032L88.5209 17.8697H85.6551ZM87.1241 10.1151C86.3053 10.1151 85.5828 9.93045 84.9567 9.56119C84.3306 9.17587 83.8328 8.63802 83.4636 7.94766C83.1104 7.24123 82.9338 6.4144 82.9338 5.46715C82.9338 4.5199 83.1104 3.7011 83.4636 3.01073C83.8328 2.32036 84.3306 1.78252 84.9567 1.3972C85.5828 1.01188 86.3053 0.819215 87.1241 0.819215C87.9429 0.819215 88.6654 1.01188 89.2916 1.3972C89.9177 1.78252 90.4074 2.32036 90.7606 3.01073C91.1138 3.7011 91.2904 4.5199 91.2904 5.46715C91.2904 6.4144 91.1138 7.24123 90.7606 7.94766C90.4074 8.63802 89.9177 9.17587 89.2916 9.56119C88.6654 9.93045 87.9429 10.1151 87.1241 10.1151ZM87.1241 8.14032C87.6539 8.14032 88.0794 7.92357 88.4005 7.49009C88.7216 7.04055 88.8822 6.36623 88.8822 5.46715C88.8822 4.56807 88.7216 3.90178 88.4005 3.4683C88.0794 3.01876 87.6539 2.79398 87.1241 2.79398C86.6104 2.79398 86.1849 3.01876 85.8478 3.4683C85.5267 3.90178 85.3661 4.56807 85.3661 5.46715C85.3661 6.35018 85.5267 7.01646 85.8478 7.466C86.1849 7.91555 86.6104 8.14032 87.1241 8.14032ZM98.5633 18.0623C97.7606 18.0623 97.0381 17.8777 96.3959 17.5084C95.7698 17.1231 95.2801 16.5853 94.9269 15.8949C94.5737 15.1885 94.3971 14.3616 94.3971 13.4144C94.3971 12.4672 94.5737 11.6483 94.9269 10.958C95.2801 10.2676 95.7698 9.72977 96.3959 9.34445C97.0381 8.95912 97.7606 8.76646 98.5633 8.76646C99.3982 8.76646 100.129 8.95912 100.755 9.34445C101.381 9.72977 101.871 10.2676 102.224 10.958C102.577 11.6483 102.754 12.4672 102.754 13.4144C102.754 14.3616 102.577 15.1885 102.224 15.8949C101.871 16.5853 101.381 17.1231 100.755 17.5084C100.129 17.8777 99.3982 18.0623 98.5633 18.0623ZM98.5633 16.0876C99.0932 16.0876 99.5186 15.8708 99.8397 15.4373C100.161 14.9878 100.321 14.3135 100.321 13.4144C100.321 12.5314 100.161 11.8651 99.8397 11.4155C99.5186 10.966 99.0932 10.7412 98.5633 10.7412C98.0496 10.7412 97.6241 10.966 97.287 11.4155C96.9659 11.849 96.8053 12.5153 96.8053 13.4144C96.8053 14.3135 96.9659 14.9878 97.287 15.4373C97.6241 15.8708 98.0496 16.0876 98.5633 16.0876Z" fill="white"/>
<path d="M74.268 18.157C72.8873 18.157 71.651 17.8198 70.5593 17.1455C69.4675 16.4552 68.6086 15.4598 67.9824 14.1593C67.3563 12.8588 67.0432 11.2854 67.0432 9.43911C67.0432 7.59278 67.3563 6.01939 67.9824 4.71893C68.6086 3.41847 69.4675 2.43108 70.5593 1.75677C71.651 1.06641 72.8873 0.721223 74.268 0.721223C75.6648 0.721223 76.901 1.06641 77.9767 1.75677C79.0685 2.43108 79.9274 3.41847 80.5535 4.71893C81.1797 6.01939 81.4928 7.59278 81.4928 9.43911C81.4928 11.2854 81.1797 12.8588 80.5535 14.1593C79.9274 15.4598 79.0685 16.4552 77.9767 17.1455C76.901 17.8198 75.6648 18.157 74.268 18.157ZM74.268 14.8577C74.9263 14.8577 75.4962 14.6731 75.9779 14.3038C76.4756 13.9345 76.8609 13.3485 77.1338 12.5458C77.4228 11.743 77.5673 10.7075 77.5673 9.43911C77.5673 8.17076 77.4228 7.13521 77.1338 6.33246C76.8609 5.52971 76.4756 4.9437 75.9779 4.57443C75.4962 4.20517 74.9263 4.02053 74.268 4.02053C73.6258 4.02053 73.0558 4.20517 72.5581 4.57443C72.0765 4.9437 71.6912 5.52971 71.4022 6.33246C71.1292 7.13521 70.9928 8.17076 70.9928 9.43911C70.9928 10.7075 71.1292 11.743 71.4022 12.5458C71.6912 13.3485 72.0765 13.9345 72.5581 14.3038C73.0558 14.6731 73.6258 14.8577 74.268 14.8577Z" fill="white"/>
<path d="M58.6179 18.1581C57.4459 18.1581 56.2819 18.0055 55.1259 17.7005C53.986 17.3794 53.0067 16.9299 52.1878 16.3519L53.7291 13.3656C54.3713 13.8312 55.1099 14.2005 55.9447 14.4734C56.7956 14.7464 57.6546 14.8828 58.5216 14.8828C59.5009 14.8828 60.2716 14.6902 60.8335 14.3049C61.3954 13.9195 61.6764 13.3817 61.6764 12.6913C61.6764 12.2578 61.564 11.8725 61.3392 11.5354C61.1145 11.1982 60.7131 10.9413 60.1351 10.7647C59.5732 10.5881 58.7784 10.4998 57.7509 10.4998H53.4401L54.3071 1.01128H64.5904V4.14201H55.7039L57.7268 2.3599L57.1248 9.12711L55.1018 7.345H58.6661C60.3358 7.345 61.6764 7.57779 62.6878 8.04339C63.7154 8.49293 64.4619 9.11105 64.9275 9.89775C65.3931 10.6844 65.6259 11.5755 65.6259 12.5709C65.6259 13.5663 65.3771 14.4895 64.8794 15.3404C64.3816 16.1753 63.611 16.8576 62.5674 17.3874C61.5399 17.9012 60.2234 18.1581 58.6179 18.1581Z" fill="white"/>
<path d="M42.0244 18.061C40.4992 18.061 39.3111 17.6757 38.4602 16.905C37.6093 16.1183 37.1838 14.9543 37.1838 13.4131V2.04608H40.9407V13.3649C40.9407 13.9108 41.0852 14.3362 41.3742 14.6413C41.6632 14.9303 42.0565 15.0747 42.5542 15.0747C43.1483 15.0747 43.654 14.9142 44.0714 14.5931L45.0829 17.2422C44.6976 17.5151 44.232 17.7238 43.6861 17.8683C43.1563 17.9968 42.6024 18.061 42.0244 18.061ZM35.185 8.0908V5.20089H44.1678V8.0908H35.185Z" fill="white"/>
<path d="M29.9757 17.8684V15.3397L29.7349 14.7858V10.2583C29.7349 9.45554 29.486 8.8294 28.9883 8.37986C28.5067 7.93032 27.7601 7.70554 26.7486 7.70554C26.0583 7.70554 25.3759 7.81793 24.7016 8.0427C24.0434 8.25142 23.4814 8.54041 23.0158 8.90967L21.6672 6.28467C22.3736 5.78697 23.2245 5.40164 24.22 5.12871C25.2154 4.85577 26.2268 4.71931 27.2544 4.71931C29.2291 4.71931 30.7624 5.1849 31.8541 6.11609C32.9459 7.04729 33.4917 8.50027 33.4917 10.475V17.8684H29.9757ZM26.0261 18.061C25.0147 18.061 24.1477 17.8925 23.4252 17.5553C22.7028 17.2021 22.1489 16.7285 21.7635 16.1344C21.3782 15.5404 21.1856 14.8741 21.1856 14.1356C21.1856 13.3649 21.3702 12.6906 21.7395 12.1127C22.1248 11.5347 22.7268 11.0851 23.5456 10.764C24.3645 10.4269 25.4321 10.2583 26.7486 10.2583H30.1924V12.4498H27.158C26.275 12.4498 25.6649 12.5943 25.3278 12.8833C25.0067 13.1723 24.8461 13.5335 24.8461 13.967C24.8461 14.4487 25.0307 14.834 25.4 15.123C25.7853 15.3959 26.3071 15.5324 26.9654 15.5324C27.5915 15.5324 28.1534 15.3879 28.6512 15.0989C29.1489 14.7938 29.5101 14.3523 29.7349 13.7744L30.3128 15.5083C30.0399 16.3432 29.5422 16.9773 28.8197 17.4108C28.0973 17.8443 27.1661 18.061 26.0261 18.061Z" fill="white"/>
<path d="M14.9504 17.8693V0H18.7073V17.8693H14.9504Z" fill="white"/>
<path d="M3.61239 8.59729H11.7041V11.728H3.61239V8.59729ZM3.90138 17.8691H0V1.01128H12.7397V4.14201H3.90138V17.8691Z" fill="white"/>
</svg>
