<svg width="11" height="11" viewBox="0 0 11 11" fill="none" xmlns="http://www.w3.org/2000/svg">
<path d="M4.73492 0C3.59263 0.159992 2.52971 0.674039 1.6965 1.46943C0.863289 2.26481 0.301968 3.30128 0.0919415 4.43221C-0.118085 5.56314 0.0338127 6.73129 0.526147 7.77143C1.01848 8.81156 1.82633 9.67101 2.83542 10.2282C3.84452 10.7854 5.00377 11.0122 6.14921 10.8764C7.29464 10.7407 8.36828 10.2493 9.21825 9.47171C10.0682 8.69414 10.6515 7.6698 10.8856 6.54357C11.1196 5.41734 10.9927 4.24624 10.5226 3.19592C9.38035 3.1254 8.26823 2.80197 7.26708 2.24914C6.26593 1.69631 5.40091 0.927977 4.73492 0Z" fill="#612A83"/>
</svg>
