<svg width="9" height="11" viewBox="0 0 9 11" fill="none" xmlns="http://www.w3.org/2000/svg">
<path d="M4.77477 0C3.93069 0.111942 3.12421 0.417775 2.41885 0.893408C1.7135 1.36904 1.12854 2.00148 0.710051 2.74091C0.291564 3.48034 0.0509817 4.30656 0.00725654 5.15448C-0.0364686 6.0024 0.117858 6.84886 0.458078 7.62719C0.798299 8.40552 1.31512 9.09445 1.96783 9.63971C2.62054 10.185 3.39131 10.5717 4.21942 10.7693C5.04753 10.967 5.91036 10.9703 6.73995 10.7788C7.56953 10.5874 8.34321 10.2065 9.00003 9.66618C8.32322 8.64987 7.89899 7.48739 7.76247 6.27505C7.62594 5.0627 7.78106 3.83537 8.21496 2.6947C6.83053 2.14791 5.63533 1.21171 4.77477 0Z" fill="#612A83"/>
</svg>
