<svg width="37" height="30" viewBox="0 0 37 30" fill="none" xmlns="http://www.w3.org/2000/svg">
<path d="M36.2022 25.4857H32.1476C32.1935 25.991 32.3581 26.3931 32.6415 26.6917C32.9248 26.9903 33.3115 27.1397 33.8016 27.1397C34.4142 27.1397 34.9119 26.9099 35.2948 26.4505L36.0873 27.1397C35.5283 27.8518 34.7664 28.2079 33.8016 28.2079C33.2196 28.2079 32.7104 28.0777 32.2739 27.8173C31.8374 27.557 31.5005 27.2009 31.2631 26.7491C31.0334 26.2897 30.9185 25.769 30.9185 25.187C30.9185 24.6127 31.0334 24.0958 31.2631 23.6364C31.4929 23.1693 31.8183 22.8056 32.2394 22.5452C32.6606 22.2849 33.1392 22.1547 33.6752 22.1547C34.1729 22.1547 34.6132 22.2695 34.9961 22.4993C35.379 22.7213 35.6738 23.0429 35.8805 23.4641C36.095 23.8776 36.2022 24.36 36.2022 24.9114V25.4857ZM33.6752 23.177C33.277 23.177 32.9478 23.311 32.6874 23.579C32.4347 23.8393 32.2663 24.1839 32.182 24.6127H35.0191C34.9885 24.1762 34.8545 23.8278 34.6171 23.5675C34.3874 23.3071 34.0734 23.177 33.6752 23.177Z" fill="#FF5E00"/>
<path d="M28.7902 23.5435C28.9511 23.1071 29.1884 22.774 29.5024 22.5443C29.824 22.3145 30.1992 22.2073 30.628 22.2226V23.4976C30.0537 23.4823 29.6096 23.6622 29.2956 24.0374C28.9893 24.4127 28.8362 24.9525 28.8362 25.657V28.0461H27.6416V22.303H28.7902V23.5435Z" fill="#FF5E00"/>
<path d="M23.6925 28.2079C23.1259 28.2079 22.6243 28.0777 22.1879 27.8173C21.7514 27.5493 21.4145 27.1856 21.1771 26.7262C20.9397 26.2667 20.821 25.7537 20.821 25.187C20.821 24.6204 20.9397 24.1073 21.1771 23.6479C21.4145 23.1808 21.7514 22.8171 22.1879 22.5567C22.6243 22.2887 23.1259 22.1547 23.6925 22.1547C24.2592 22.1547 24.7607 22.2887 25.1972 22.5567C25.6413 22.8171 25.9821 23.1808 26.2195 23.6479C26.4645 24.1073 26.587 24.6204 26.587 25.187C26.587 25.7537 26.4645 26.2667 26.2195 26.7262C25.9821 27.1856 25.6413 27.5493 25.1972 27.8173C24.7607 28.0777 24.2592 28.2079 23.6925 28.2079ZM23.6925 27.1397C24.1903 27.1397 24.5923 26.9559 24.8986 26.5883C25.2125 26.2208 25.3695 25.7537 25.3695 25.187C25.3695 24.6127 25.2125 24.1418 24.8986 23.7742C24.5923 23.399 24.1903 23.2114 23.6925 23.2114C23.1948 23.2114 22.7928 23.399 22.4865 23.7742C22.1879 24.1418 22.0385 24.6127 22.0385 25.187C22.0385 25.7537 22.1879 26.2208 22.4865 26.5883C22.7928 26.9559 23.1948 27.1397 23.6925 27.1397Z" fill="#FF5E00"/>
<path d="M18.5872 19.6622H19.7818V28.047H18.5872V19.6622Z" fill="#FF5E00"/>
<path d="M14.9771 22.1899C15.4825 22.1899 15.9267 22.3163 16.3095 22.5689C16.6924 22.8216 16.9872 23.1777 17.194 23.6372C17.4084 24.0889 17.5156 24.6058 17.5156 25.1878C17.5156 25.7697 17.4084 26.2866 17.194 26.7384C16.9872 27.1902 16.6924 27.5424 16.3095 27.7951C15.9267 28.0478 15.4825 28.1742 14.9771 28.1742C14.579 28.1742 14.2267 28.0938 13.9204 27.933C13.6218 27.7722 13.3729 27.5386 13.1738 27.2323V30.0005H11.9793V22.3048H13.1279V23.2007C13.5337 22.5268 14.1501 22.1899 14.9771 22.1899ZM14.713 27.1174C15.1954 27.1174 15.5782 26.9413 15.8616 26.5891C16.1525 26.2292 16.298 25.7621 16.298 25.1878C16.298 24.6058 16.1525 24.1387 15.8616 23.7865C15.5782 23.4266 15.1954 23.2466 14.713 23.2466C14.2305 23.2466 13.8438 23.4266 13.5529 23.7865C13.2695 24.1387 13.1279 24.6058 13.1279 25.1878C13.1279 25.7621 13.2695 26.2292 13.5529 26.5891C13.8438 26.9413 14.2305 27.1174 14.713 27.1174Z" fill="#FF5E00"/>
<path d="M9.70846 28.0464L8.26121 25.8641L6.80247 28.0464H5.48157L7.49164 25.083L5.59643 22.3034H6.92882L8.26121 24.3134L9.5936 22.3034H10.9145L9.03078 25.083L11.0294 28.0464H9.70846Z" fill="#FF5E00"/>
<path d="M5.01943 26.9671V28.0468H0V20.0065H4.85862V21.0862H1.2405V23.326H4.00865V24.4057H1.2405V26.9671H5.01943Z" fill="#FF5E00"/>
<path d="M22.6691 13.4102L18.3276 10.3947C18.0842 10.2528 17.719 10.2528 17.5161 10.4302L17.3944 10.5366L16.2583 9.57871C18.1653 7.20177 17.9219 3.90244 15.4874 1.77384C14.189 0.638581 12.4443 0 10.5779 0C8.71149 0 6.96679 0.638581 5.66842 1.77384C2.94994 4.15078 2.94994 7.98226 5.66842 10.3592C6.96679 11.4945 8.71149 12.133 10.5779 12.133C12.0386 12.133 13.4181 11.7428 14.5948 11.0333L15.7308 12.0266L15.6091 12.133C15.4062 12.3104 15.3657 12.6297 15.5685 12.8426L19.0174 16.6386C19.2608 16.8869 19.5854 17.0288 19.9506 17.0288C20.2752 17.0288 20.5592 16.9224 20.7621 16.745L22.7908 14.9712C23.0342 14.7583 23.1559 14.4745 23.1559 14.1907C23.0748 13.8714 22.9125 13.5876 22.6691 13.4102Z" fill="#FF5E00"/>
</svg>
