<svg width="23" height="12" viewBox="0 0 23 12" fill="none" xmlns="http://www.w3.org/2000/svg">
<path d="M10.2528 11.7077C10.6559 10.5549 11.329 9.5146 12.216 8.67306C13.1031 7.83153 14.1786 7.21306 15.3534 6.86895C12.889 5.92462 10.2691 5.44887 7.62902 5.4663C7.33822 5.4663 7.05934 5.35112 6.85372 5.14609C6.6481 4.94107 6.53258 4.66299 6.53258 4.37304C6.53258 4.08309 6.6481 3.80502 6.85372 3.59999C7.05934 3.39496 7.33822 3.27978 7.62902 3.27978C12.3445 3.22196 16.96 4.63636 20.829 7.32484C21.4029 7.60203 21.9399 7.94945 22.4276 8.35907C22.6107 8.20492 22.8026 8.06061 23 7.92176C21.9794 5.57108 20.2922 3.56899 18.1458 2.1616C15.9994 0.754222 13.4873 0.00289885 10.9183 0H0C0.246512 2.78221 1.37197 5.4147 3.21439 7.51857C5.05681 9.62244 7.52118 11.0892 10.2528 11.7077Z" fill="#55AE0F"/>
</svg>
