<svg width="74" height="54" viewBox="0 0 74 54" fill="none" xmlns="http://www.w3.org/2000/svg">
<path d="M29.7041 31.8059C26.9406 30.8875 24.0384 30.3877 21.1247 30.2365C19.6447 30.1668 18.2225 30.2133 16.8119 30.2482C15.3897 30.2947 13.9791 30.3295 12.5569 30.4109L10.4294 30.5155C9.79344 30.5504 9.08812 30.5272 8.40594 30.4807C7.04156 30.3993 5.60781 30.2482 4.40531 29.8413L4.35906 29.8297C4.17406 29.7715 3.95437 29.8413 3.85031 30.0157C3.72312 30.2249 3.7925 30.4923 3.98906 30.6202C4.68281 31.0503 5.37656 31.2712 6.08187 31.492C6.78719 31.7013 7.4925 31.864 8.22094 32.0035C8.94937 32.1314 9.66625 32.236 10.4409 32.2709L12.5684 32.329C13.9906 32.3755 15.4013 32.3639 16.8234 32.3872C18.2456 32.3988 19.6563 32.3523 21.0206 32.4453C26.5359 32.6894 31.9472 34.0495 37.0578 36.3978C37.2313 36.4792 37.4509 36.4327 37.5666 36.2699C37.6938 36.0839 37.6591 35.8282 37.4741 35.7003C35.1153 34.003 32.4791 32.701 29.7041 31.8059Z" fill="#B62D2D"/>
<path d="M73.9884 30.039C73.1906 13.1944 56.7487 0 36.5259 0C19.5753 0 4.68281 9.52088 0.300625 23.1686C0.0578125 23.9243 0.0346875 24.6334 0.023125 25.3309C0.0115625 25.4123 0 25.4936 0 25.575V32.55C0 36.4676 3.74625 39.4204 8.70656 39.4204H19.2053C28.1084 39.4204 36.4681 42.6172 42.1569 48.174C45.6372 51.5801 50.5859 53.475 55.8931 53.475C56.2978 53.475 56.7025 53.4634 57.1072 53.4401C66.8081 52.9054 74 45.3375 74 37.0838V30.6551C74 30.225 74 30.0971 73.9884 30.039ZM70.3 36.2584C69.8722 37.0721 69.3519 37.8394 68.7622 38.5485C66.7966 40.92 64.1025 42.7103 61.1309 43.6635C59.6394 44.1401 58.0784 44.4191 56.5059 44.4889C54.9219 44.5819 53.3263 44.4889 51.7653 44.1866C48.655 43.5938 45.6256 42.2453 43.2438 40.0714C43.0934 39.9319 42.8506 39.9319 42.7003 40.083C42.55 40.2341 42.5384 40.4899 42.6887 40.641C45.0475 43.0822 48.1578 44.7679 51.4762 45.5584C54.7831 46.3489 58.3097 46.3721 61.6512 45.4189C63.0966 45.012 64.5072 44.4308 65.8253 43.6751C66.6116 43.2334 67.5713 43.7681 67.5713 44.6749C67.5713 46.0118 66.9238 47.2673 65.8369 48.0461C63.3741 49.8015 60.31 50.9291 56.9916 51.1151C51.8809 51.3825 47.0594 49.7085 43.7756 46.5C37.6591 40.5131 28.6981 37.0838 19.2053 37.0838H8.70656C5.60781 37.0954 2.3125 35.5028 2.3125 32.55V25.7377C2.32406 25.668 2.33562 25.5866 2.33562 25.5053C2.33562 24.924 2.34719 24.3776 2.50906 23.8778C6.57906 11.1833 20.5697 2.325 36.5259 2.325C55.5231 2.325 70.9591 14.5545 71.6759 30.1669V30.2483C71.6991 32.3291 71.2828 34.4216 70.3 36.2584Z" fill="#B62D2D"/>
<path d="M8.70657 27.7953H19.2053H19.2169C20.1072 27.7953 20.8588 27.1443 20.9744 26.2608C21.6219 21.4364 24.3391 17.1933 28.3628 14.6125C29.3803 13.9615 29.6347 12.5898 28.9756 11.5668C28.5016 10.8344 28.0738 10.0904 27.6806 9.31152C26.6863 7.37015 24.4084 6.47502 22.385 7.2539C13.8288 10.5554 7.20345 16.7864 4.70595 24.5984C4.64814 24.796 4.45157 25.4005 5.01814 26.1794C5.5847 26.9583 6.84501 27.7953 8.70657 27.7953Z" fill="#B62D2D"/>
<path d="M49.3488 12.7181C51.7653 11.1023 51.3491 7.35901 48.5856 6.47552C44.851 5.30139 40.781 4.65039 36.526 4.65039C35.4391 4.65039 34.3638 4.69689 33.2885 4.77827C30.7447 4.98752 29.3456 7.76589 30.6985 9.95139C32.4097 12.7181 34.6875 15.1129 37.3931 16.9613C39.5438 18.4376 42.4228 18.2051 44.4116 16.5079C45.776 15.3221 47.5219 13.9388 49.3488 12.7181Z" fill="#B62D2D"/>
<path d="M36.815 19.3439C35.601 18.565 34.4447 17.6931 33.381 16.7399C32.3982 15.8564 30.9528 15.7285 29.8313 16.426C26.4088 18.5418 24.0385 22.0293 23.3447 26.0399C23.1597 27.0861 23.9113 28.0743 24.9519 28.2254C28.4553 28.7136 31.82 29.6436 34.9419 30.9805C36.4797 31.6431 38.1563 30.5504 38.2835 28.8764C38.3875 27.5279 38.6188 26.2026 38.9657 24.9006C39.5553 22.7849 38.6535 20.518 36.815 19.3439Z" fill="#B62D2D"/>
<path d="M55.7428 13.276C55.6503 13.2876 55.5694 13.2993 55.5 13.3225C51.0947 14.2525 47.1519 16.903 44.6197 20.7276C42.3534 24.1454 41.359 28.2606 41.81 32.341C41.995 34.0499 42.8506 35.6076 44.1456 36.7353C44.5734 37.1073 44.9781 37.4909 45.3828 37.8745C47.9728 40.4088 51.8 41.8619 55.9047 41.8619C56.2284 41.8619 56.5406 41.8503 56.8644 41.8386C63.9175 41.455 69.6409 36.1656 69.3634 30.2834C69.1322 25.1684 67.1434 20.4603 63.8944 16.4961C61.9172 14.0665 58.8184 12.7994 55.7428 13.276ZM56.6562 33.7128C53.465 33.7128 50.875 31.6319 50.875 29.0628C50.875 26.4936 53.465 24.4128 56.6562 24.4128C59.8475 24.4128 62.4375 26.4936 62.4375 29.0628C62.4375 31.6319 59.8475 33.7128 56.6562 33.7128Z" fill="#B62D2D"/>
<path d="M56.6562 26.7373C54.7369 26.7373 53.1875 27.7836 53.1875 29.0623C53.1875 29.2599 53.2338 29.4576 53.3147 29.6436C53.6963 28.6438 55.0375 27.8998 56.6562 27.8998C58.275 27.8998 59.6162 28.6438 59.9978 29.6436C60.0787 29.4576 60.125 29.2599 60.125 29.0623C60.125 27.7719 58.5756 26.7373 56.6562 26.7373Z" fill="#B62D2D"/>
</svg>
