<svg width="26" height="26" viewBox="0 0 26 26" fill="none" xmlns="http://www.w3.org/2000/svg">
<path d="M3.25 10.5489C3.24731 10.7136 3.29475 10.8752 3.38602 11.0124C3.47729 11.1495 3.60809 11.2556 3.76106 11.3167L11.5619 14.4375L14.6827 22.2392C14.743 22.3901 14.8471 22.5194 14.9817 22.6105C15.1162 22.7016 15.275 22.7503 15.4375 22.7502H15.4505C15.6151 22.7477 15.775 22.6951 15.909 22.5997C16.0431 22.5042 16.145 22.3703 16.2013 22.2156L22.7013 4.34059C22.7545 4.19518 22.765 4.03758 22.7317 3.88637C22.6983 3.73516 22.6224 3.59663 22.513 3.4871C22.4035 3.37756 22.2651 3.30158 22.1139 3.26811C21.9627 3.23464 21.8051 3.24506 21.6596 3.29816L3.78463 9.79817C3.6299 9.85458 3.49594 9.95664 3.40048 10.0908C3.30501 10.225 3.25254 10.3851 3.25 10.5497V10.5489Z" fill="#AF89FF"/>
</svg>
