<svg width="22" height="19" viewBox="0 0 22 19" fill="none" xmlns="http://www.w3.org/2000/svg">
<path d="M0.628571 1.22612H2.79589C3.05418 1.22612 3.30193 1.32603 3.48481 1.50393C3.66769 1.68184 3.77076 1.92322 3.77143 2.17514V14.1911C3.77209 14.816 4.02687 15.415 4.47986 15.8568C4.93285 16.2986 5.54704 16.5471 6.18766 16.5478H7.65349C7.58058 16.7443 7.54315 16.9518 7.54286 17.1608C7.54286 17.6486 7.74153 18.1164 8.09517 18.4613C8.44881 18.8062 8.92845 19 9.42857 19C9.92869 19 10.4083 18.8062 10.762 18.4613C11.1156 18.1164 11.3143 17.6486 11.3143 17.1608C11.314 16.9518 11.2766 16.7443 11.2037 16.5478H12.6821C12.6092 16.7443 12.5717 16.9518 12.5714 17.1608C12.5714 17.6486 12.7701 18.1164 13.1237 18.4613C13.4774 18.8062 13.957 19 14.4571 19C14.9573 19 15.4369 18.8062 15.7905 18.4613C16.1442 18.1164 16.3429 17.6486 16.3429 17.1608C16.3426 16.9518 16.3051 16.7443 16.2322 16.5478H17.6C17.7667 16.5478 17.9266 16.4832 18.0445 16.3682C18.1623 16.2532 18.2286 16.0973 18.2286 15.9347C18.2286 15.7721 18.1623 15.6162 18.0445 15.5012C17.9266 15.3862 17.7667 15.3216 17.6 15.3216H6.18766C5.88132 15.321 5.58764 15.2024 5.37056 14.9915C5.15347 14.7807 5.03056 14.4948 5.02857 14.196V14.1004H16.3429C16.4546 14.1006 16.5644 14.0716 16.6608 14.0164C16.7572 13.9612 16.8367 13.8818 16.891 13.7865L21.12 6.43714H21.3714C21.5381 6.43714 21.698 6.37256 21.8159 6.25758C21.9338 6.14261 22 5.98668 22 5.82408V3.37184C22 3.20924 21.9338 3.05331 21.8159 2.93834C21.698 2.82337 21.5381 2.75878 21.3714 2.75878H5.02857V2.17514C5.0279 1.59803 4.79238 1.04478 4.37374 0.636935C3.95511 0.229087 3.3876 -3.65933e-07 2.79589 0H0.628571C0.461864 4.84612e-09 0.301984 0.0645902 0.184104 0.179562C0.0662243 0.294533 0 0.450467 0 0.613061C0 0.775655 0.0662243 0.93159 0.184104 1.04656C0.301984 1.16153 0.461864 1.22612 0.628571 1.22612ZM20.7429 3.9849V5.21102H5.02857V3.9849H20.7429Z" fill="#6D3805"/>
</svg>
