<svg width="100" height="107" viewBox="0 0 100 107" fill="none" xmlns="http://www.w3.org/2000/svg">
<circle cx="50" cy="50" r="50" fill="#D6FAE9"/>
<path fill-rule="evenodd" clip-rule="evenodd" d="M48.3307 39.5273H48.3308C56.062 39.5273 62.3876 45.8871 62.3876 53.6601V64.2637L62.3695 64.2586C61.3283 63.965 59.8002 63.5339 58.256 63.2131C57.3888 63.033 56.527 62.911 55.7656 62.8299C54.5711 62.7027 53.6091 62.6759 53.2684 62.6836L53.1953 62.6851V62.6851C52.7197 62.6942 51.1598 62.7242 49.5981 63.0955C48.594 63.3343 47.5924 63.6956 46.8307 63.9704C46.37 64.1367 46.0014 64.2697 45.8012 64.3142C45.1364 64.4622 44.6577 64.5456 44.2744 64.594C43.8939 64.642 43.628 64.6534 43.3707 64.6588L43.2565 64.6615H43.2548C42.7519 64.6734 42.1768 64.6871 40.9106 64.466C40.2116 64.3439 39.5235 64.162 38.8364 63.9804C38.2936 63.837 37.7512 63.6936 37.1944 63.5765C36.6967 63.4719 36.1996 63.3784 35.7022 63.2849C35.2237 63.1949 34.7447 63.1048 34.2739 63.0068V53.6601C34.2739 45.8871 40.5995 39.5273 48.3307 39.5273L48.3307 39.5273ZM40.1777 67.8354C40.8647 67.8354 41.4868 68.1154 41.9371 68.5681C42.3873 69.0208 42.6659 69.6462 42.6659 70.3369C42.6659 71.0277 42.3873 71.6531 41.9371 72.1058C41.4868 72.5585 40.8647 72.8385 40.1777 72.8385C39.4907 72.8385 38.8687 72.5585 38.4184 72.1058C37.9681 71.6531 37.6896 71.0277 37.6896 70.3369C37.6896 69.6462 37.9681 69.0208 38.4184 68.5681C38.8687 68.1154 39.4907 67.8354 40.1777 67.8354ZM41.5283 68.9791C41.1827 68.6316 40.7052 68.4167 40.1777 68.4167C39.6503 68.4167 39.1728 68.6316 38.8272 68.9791C38.4816 69.3265 38.2678 69.8067 38.2678 70.3369C38.2678 70.8672 38.4816 71.3474 38.8272 71.6948C39.1728 72.0423 39.6503 72.2572 40.1777 72.2572C40.7052 72.2572 41.1827 72.0423 41.5283 71.6948C41.8739 71.3474 42.0877 70.8672 42.0877 70.3369C42.0877 69.8067 41.8739 69.3265 41.5283 68.9791ZM50.0176 69.2144C49.7868 69.2144 49.5779 69.3084 49.4268 69.4604C49.2756 69.6123 49.1821 69.8224 49.1821 70.0544C49.1821 70.2863 49.2756 70.4964 49.4268 70.6483C49.5779 70.8003 49.7868 70.8943 50.0176 70.8943C50.2483 70.8943 50.4572 70.8003 50.6083 70.6483C50.7595 70.4964 50.853 70.2863 50.853 70.0544C50.853 69.8224 50.7595 69.6123 50.6083 69.4604C50.4572 69.3084 50.2483 69.2144 50.0176 69.2144ZM49.0181 69.0494C49.2738 68.7922 49.6273 68.6331 50.0176 68.6331C50.4079 68.6331 50.7613 68.7922 51.0171 69.0494C51.2729 69.3066 51.4312 69.662 51.4312 70.0544C51.4312 70.4467 51.2729 70.8021 51.0171 71.0593C50.7613 71.3165 50.4079 71.4756 50.0176 71.4756C49.6273 71.4756 49.2738 71.3165 49.0181 71.0593C48.7622 70.8021 48.604 70.4467 48.604 70.0544C48.604 69.662 48.7622 69.3066 49.0181 69.0494ZM54.5157 73.7369C54.285 73.7369 54.0761 73.8309 53.925 73.9829C53.7738 74.1348 53.6803 74.3449 53.6803 74.5769C53.6803 74.8088 53.7738 75.0189 53.925 75.1708C54.0761 75.3228 54.285 75.4168 54.5157 75.4168C54.7465 75.4168 54.9554 75.3228 55.1065 75.1708C55.2577 75.0189 55.3512 74.8088 55.3512 74.5769C55.3512 74.3449 55.2577 74.1348 55.1065 73.9829C54.9554 73.831 54.7465 73.7369 54.5157 73.7369ZM53.5162 73.5719C53.772 73.3148 54.1255 73.1556 54.5157 73.1556C54.9061 73.1556 55.2595 73.3148 55.5153 73.5719C55.7711 73.8291 55.9294 74.1845 55.9294 74.5769C55.9294 74.9692 55.7711 75.3247 55.5153 75.5818C55.2595 75.839 54.9061 75.9981 54.5157 75.9981C54.1255 75.9981 53.772 75.839 53.5162 75.5818C53.2604 75.3247 53.1021 74.9693 53.1021 74.5769C53.1021 74.1845 53.2604 73.8291 53.5162 73.5719ZM55.6403 68.0837C55.4096 68.0837 55.2006 68.1778 55.0495 68.3297C54.8983 68.4817 54.8048 68.6917 54.8048 68.9237C54.8048 69.1557 54.8984 69.3657 55.0495 69.5177C55.2006 69.6696 55.4096 69.7637 55.6403 69.7637C55.871 69.7637 56.0799 69.6697 56.231 69.5177C56.3822 69.3658 56.4757 69.1557 56.4757 68.9237C56.4757 68.6917 56.3822 68.4817 56.2311 68.3297C56.08 68.1778 55.871 68.0837 55.6403 68.0837ZM54.6407 67.9188C54.8965 67.6616 55.25 67.5024 55.6403 67.5024C56.0306 67.5024 56.384 67.6616 56.6398 67.9188C56.8956 68.176 57.0539 68.5313 57.0539 68.9237C57.0539 69.3161 56.8956 69.6715 56.6398 69.9287C56.384 70.1859 56.0306 70.345 55.6403 70.345C55.25 70.345 54.8965 70.1859 54.6407 69.9287C54.3849 69.6714 54.2266 69.3161 54.2266 68.9237C54.2266 68.5313 54.3849 68.1759 54.6407 67.9188ZM45.5194 74.8675C45.2887 74.8675 45.0797 74.9616 44.9286 75.1135C44.7775 75.2654 44.6839 75.4755 44.6839 75.7075C44.6839 75.9394 44.7775 76.1495 44.9286 76.3014C45.0797 76.4534 45.2887 76.5474 45.5194 76.5474C45.7501 76.5474 45.959 76.4534 46.1102 76.3014C46.2613 76.1495 46.3548 75.9394 46.3548 75.7075C46.3548 75.4755 46.2613 75.2654 46.1102 75.1135C45.959 74.9616 45.7501 74.8675 45.5194 74.8675ZM44.5198 74.7025C44.7757 74.4454 45.1291 74.2862 45.5194 74.2862C45.9097 74.2862 46.2631 74.4454 46.5189 74.7025C46.7747 74.9597 46.933 75.3151 46.933 75.7075C46.933 76.0999 46.7747 76.4552 46.5189 76.7124C46.2631 76.9696 45.9097 77.1287 45.5194 77.1287C45.1291 77.1287 44.7757 76.9696 44.5198 76.7124C44.264 76.4552 44.1058 76.0999 44.1058 75.7075C44.1058 75.3151 44.264 74.9597 44.5198 74.7025ZM62.3875 65.1673V79.0994H34.2738V63.8941C34.6991 63.9811 35.1211 64.0605 35.5428 64.1398C36.0371 64.2327 36.5311 64.3256 37.0181 64.428C37.5484 64.5395 38.082 64.6806 38.616 64.8217C39.3253 65.0091 40.0356 65.1969 40.7647 65.3242C42.1023 65.5579 42.7279 65.543 43.275 65.5299V65.5299L43.3875 65.5273C43.6854 65.521 43.9864 65.5087 44.3792 65.4591C44.7691 65.4099 45.2705 65.3218 45.9874 65.1623C46.2398 65.1061 46.6319 64.9646 47.1219 64.7878C47.8552 64.5233 48.8194 64.1754 49.7944 63.9436C51.2805 63.5902 52.7613 63.5621 53.2104 63.5535H53.2121L53.2851 63.5521C53.6035 63.5448 54.5166 63.5714 55.6774 63.695C56.4164 63.7737 57.25 63.8916 58.0831 64.0646C59.5796 64.3755 61.0999 64.8043 62.1357 65.0964L62.3875 65.1674L62.3875 65.1673Z" fill="#2EE38D"/>
<path fill-rule="evenodd" clip-rule="evenodd" d="M52.6652 41.7594L43.9956 41.9802V30.4697H48.3657H52.6652V41.7594Z" fill="#2EE38D"/>
<path d="M46.9966 33.8539V24.6465H49.6644V33.8539H46.9966Z" fill="#2EE38D"/>
<path d="M39.8963 23.2998C39.1567 23.2998 38.5571 23.9026 38.5571 24.6462C38.5571 25.3897 39.1567 25.9926 39.8963 25.9926H58.4591L61.4404 28.99C61.9632 29.5157 62.8111 29.5157 63.334 28.99C63.8568 28.4643 63.8568 27.6119 63.334 27.0862L59.968 23.7019C59.725 23.4538 59.3872 23.2998 59.0135 23.2998H39.8963L39.8963 23.2998Z" fill="#2EE38D"/>
</svg>
