<svg width="43" height="67" viewBox="0 0 43 67" fill="none" xmlns="http://www.w3.org/2000/svg">
<path d="M38.4329 63.4325C38.4329 65.4338 36.8818 67 34.8998 67H13.3567C11.4609 67 9.82365 65.4338 9.82365 63.4325L6.5491 27.7571C8.70341 28.8883 11.2024 29.5844 13.7876 29.5844C22.3186 29.5844 29.2986 22.5364 29.2986 13.9221H41.2766V13.4C41.2766 10.7026 40.8457 9.57143 37.7435 9.57143H28.6092C28.4369 8.96234 28.2645 8.35325 28.006 7.83117H38.3467C40.9319 7.83117 43 9.91948 43 12.6169L38.4329 63.4325ZM12.9259 50.4675C13.4429 50.4675 13.7876 50.0325 13.7876 49.5974C13.7876 49.0753 13.4429 48.7273 12.9259 48.7273C12.4088 48.7273 12.0641 49.1623 12.0641 49.5974C12.0641 50.1195 12.495 50.4675 12.9259 50.4675ZM12.9259 37.4156C11.978 37.4156 11.2024 38.1987 11.2024 39.1558C11.2024 40.113 11.978 40.8961 12.9259 40.8961C13.8737 40.8961 14.6493 40.113 14.6493 39.1558C14.6493 38.1987 13.8737 37.4156 12.9259 37.4156ZM18.0962 61.7792C17.5792 61.7792 17.2345 62.2143 17.2345 62.6494C17.2345 63.1714 17.5792 63.5195 18.0962 63.5195C18.6132 63.5195 18.9579 63.0844 18.9579 62.6494C18.9579 62.1273 18.6132 61.7792 18.0962 61.7792ZM21.5431 50.4675C20.5952 50.4675 19.8196 51.2507 19.8196 52.2078C19.8196 53.1649 20.5952 53.9481 21.5431 53.9481C22.491 53.9481 23.2665 53.1649 23.2665 52.2078C23.2665 51.2507 22.491 50.4675 21.5431 50.4675ZM24.99 36.5455C24.4729 36.5455 24.1283 36.9805 24.1283 37.4156C24.1283 37.9377 24.4729 38.2857 24.99 38.2857C25.507 38.2857 25.8517 37.8507 25.8517 37.4156C25.8517 36.8935 25.507 36.5455 24.99 36.5455ZM33.6072 61.7792C34.5551 61.7792 35.3307 60.9961 35.3307 60.039C35.3307 59.0818 34.5551 58.2987 33.6072 58.2987C32.6593 58.2987 31.8838 59.0818 31.8838 60.039C31.8838 60.9961 32.6593 61.7792 33.6072 61.7792ZM30.1603 48.7273C29.6433 48.7273 29.2986 49.1623 29.2986 49.5974C29.2986 50.1195 29.6433 50.4675 30.1603 50.4675C30.6774 50.4675 31.022 50.0325 31.022 49.5974C31.022 49.0753 30.6774 48.7273 30.1603 48.7273ZM33.6072 29.5844C33.0902 29.5844 32.7455 30.0195 32.7455 30.4545C32.7455 30.9766 33.0902 31.3247 33.6072 31.3247C34.1242 31.3247 34.4689 30.8896 34.4689 30.4545C34.4689 29.9325 34.1242 29.5844 33.6072 29.5844ZM33.6072 39.1558C32.6593 39.1558 31.8838 39.939 31.8838 40.8961C31.8838 41.8532 32.6593 42.6364 33.6072 42.6364C34.5551 42.6364 35.3307 41.8532 35.3307 40.8961C35.3307 39.939 34.5551 39.1558 33.6072 39.1558ZM37.0541 18.2727C36.1062 18.2727 35.3307 19.0558 35.3307 20.013C35.3307 20.9701 36.1062 21.7532 37.0541 21.7532C38.002 21.7532 38.7776 20.9701 38.7776 20.013C38.7776 19.0558 38.002 18.2727 37.0541 18.2727ZM13.7876 27.8442C6.20441 27.8442 0 21.5792 0 13.9221C0 6.26494 6.20441 0 13.7876 0C21.3707 0 27.5751 6.26494 27.5751 13.9221C27.5751 21.5792 21.3707 27.8442 13.7876 27.8442ZM13.7876 1.74026C7.1523 1.74026 1.72345 7.22208 1.72345 13.9221C1.72345 20.6221 7.1523 26.1039 13.7876 26.1039C20.4228 26.1039 25.8517 20.6221 25.8517 13.9221C25.8517 7.22208 20.4228 1.74026 13.7876 1.74026ZM21.4569 21.0571C20.8537 21.4052 20.3367 21.6662 19.8196 21.0571C18.9579 20.1 15.4249 16.0974 14.9078 15.1403C14.5631 14.5312 14.7355 14.2701 15.511 14.1831C16.2866 14.1831 22.0601 15.0532 23.4389 15.3143C24.1283 15.4883 24.2144 15.9234 24.2144 16.6195C24.2144 18.0987 22.8357 20.361 21.4569 21.0571ZM23.3527 12.5299C22.0601 12.7909 16.6313 13.661 15.511 13.661C14.7355 13.661 14.5631 13.313 14.9078 12.7039C15.2525 12.0078 18.9579 7.74416 19.8196 6.78701C20.2505 6.26494 20.7675 6.43896 21.4569 6.78701C22.8357 7.48312 24.2144 9.74545 24.1283 11.2247C24.1283 11.8338 24.1283 12.3558 23.3527 12.5299ZM14.3908 12.4429C14.0461 13.0519 13.6152 13.0519 13.2705 12.4429C12.8397 11.7468 10.7715 6.61299 10.3407 5.3948C10.0822 4.78571 10.513 4.43766 11.2024 4.08961C12.495 3.30649 15.2525 3.30649 16.5451 4.08961C17.1483 4.43766 17.6653 4.6987 17.4068 5.3948C16.8898 6.61299 14.9078 11.4857 14.3908 12.4429ZM12.7535 12.7039C13.0982 13.313 12.9258 13.574 12.1503 13.661C11.0301 13.661 5.6012 12.7909 4.30862 12.5299C3.53307 12.3558 3.53306 11.8338 3.53306 11.1377C3.44689 9.65844 4.82565 7.3961 6.20441 6.7C6.89379 6.35195 7.32465 6.17792 7.84168 6.7C8.70341 7.74416 12.3226 12.0078 12.7535 12.7039ZM4.22245 15.3143C5.51503 15.0532 11.2886 14.1831 12.1503 14.1831C12.8397 14.1831 13.0982 14.5312 12.7535 15.1403C12.2365 16.0974 8.70341 20.1 7.84168 21.0571C7.32465 21.6662 6.80762 21.4052 6.20441 21.0571C4.82565 20.361 3.44689 18.0987 3.53306 16.6195C3.53306 15.9234 3.53307 15.4013 4.22245 15.3143ZM13.2705 15.4013C13.6152 14.7922 14.0461 14.7922 14.3908 15.4013C14.994 16.3584 16.8898 21.2312 17.3206 22.4494C17.5792 23.1455 17.0621 23.4065 16.4589 23.7545C15.1663 24.5377 12.4088 24.5377 11.1162 23.7545C10.4269 23.3195 10.0822 23.0584 10.2545 22.4494C10.6854 21.2312 12.8397 16.0974 13.2705 15.4013Z" fill="#55AE0F"/>
</svg>
