<svg width="24" height="55" viewBox="0 0 24 55" fill="none" xmlns="http://www.w3.org/2000/svg">
<path fill-rule="evenodd" clip-rule="evenodd" d="M18.8023 0.00428512C14.0589 0.00428512 9.2693 0.00428512 4.52592 0.00428512C3.08234 0.184484 3.19517 2.30731 4.65025 2.33539H5.53906V2.58222C5.41239 7.95847 0.107905 13.8571 0 19.8921H23.3247C22.689 13.7412 17.9414 7.96866 17.9414 2.58679V2.33539H18.6744C20.2853 2.47815 20.4194 0.0344017 18.8034 0L18.8023 0.00428512ZM0.0314335 38.6184V47.9157C0.0314335 49.4092 0.524279 50.9795 1.40605 52.1662C2.41075 53.5189 4.23998 55.0001 5.53859 55.0001H17.9409C19.3237 55.0001 20.5585 53.9625 21.5191 52.8336C20.696 50.7639 20.1905 48.3839 19.8011 46.2562C19.2939 43.4912 19.0542 41.21 19.0542 41.21C19.0542 41.1328 19.0542 41.0556 19.0542 40.9761C17.9003 40.5745 16.9233 39.7362 16.4474 38.6175L0.0314335 38.6184Z" fill="#8ABDD2"/>
</svg>
