<svg width="119" height="16" viewBox="0 0 119 16" fill="none" xmlns="http://www.w3.org/2000/svg">
<path d="M114.933 12.0109C114.196 12.0109 113.486 11.9255 112.803 11.7547C112.13 11.5732 111.596 11.349 111.201 11.0822L112.034 9.28863C112.429 9.53417 112.893 9.73701 113.427 9.89715C113.972 10.0466 114.506 10.1213 115.029 10.1213C115.605 10.1213 116.011 10.0519 116.246 9.91316C116.491 9.77437 116.614 9.58221 116.614 9.33667C116.614 9.13383 116.518 8.98437 116.326 8.88829C116.144 8.78153 115.899 8.70146 115.589 8.64808C115.28 8.5947 114.938 8.54132 114.564 8.48795C114.201 8.43457 113.833 8.36517 113.459 8.27977C113.086 8.18369 112.744 8.0449 112.434 7.86341C112.125 7.68193 111.874 7.43638 111.682 7.12679C111.5 6.81719 111.41 6.41685 111.41 5.92576C111.41 5.3813 111.564 4.90089 111.874 4.48454C112.194 4.06818 112.653 3.74257 113.251 3.50771C113.849 3.26216 114.564 3.13939 115.397 3.13939C115.984 3.13939 116.582 3.20345 117.19 3.33155C117.799 3.45966 118.306 3.64649 118.712 3.89203L117.879 5.66955C117.463 5.424 117.041 5.25853 116.614 5.17312C116.198 5.07704 115.792 5.029 115.397 5.029C114.842 5.029 114.436 5.10373 114.18 5.25319C113.924 5.40265 113.796 5.59482 113.796 5.82968C113.796 6.0432 113.886 6.20333 114.068 6.31009C114.26 6.41685 114.511 6.50225 114.82 6.56631C115.13 6.63036 115.466 6.68908 115.829 6.74246C116.203 6.78516 116.577 6.85455 116.95 6.95064C117.324 7.04672 117.66 7.1855 117.959 7.36699C118.269 7.5378 118.52 7.77801 118.712 8.0876C118.904 8.38653 119 8.78153 119 9.27261C119 9.8064 118.84 10.2815 118.52 10.6978C118.199 11.1035 117.735 11.4238 117.126 11.6586C116.529 11.8935 115.797 12.0109 114.933 12.0109Z" fill="white"/>
<path d="M106.372 12.0109C105.39 12.0109 104.526 11.8188 103.778 11.4345C103.042 11.0501 102.47 10.527 102.065 9.86512C101.659 9.19255 101.456 8.42923 101.456 7.57517C101.456 6.71043 101.654 5.94711 102.049 5.28522C102.454 4.61265 103.004 4.08953 103.698 3.71588C104.392 3.33156 105.177 3.13939 106.052 3.13939C106.896 3.13939 107.654 3.32088 108.326 3.68385C109.009 4.03615 109.548 4.54859 109.943 5.22116C110.338 5.88306 110.536 6.6784 110.536 7.6072C110.536 7.70328 110.531 7.81537 110.52 7.94348C110.509 8.06092 110.499 8.17301 110.488 8.27977H103.49V6.82253H109.175L108.214 7.2549C108.214 6.80651 108.123 6.41685 107.942 6.0859C107.76 5.75495 107.509 5.49873 107.189 5.31725C106.869 5.12508 106.495 5.029 106.068 5.029C105.641 5.029 105.262 5.12508 104.931 5.31725C104.611 5.49873 104.36 5.76029 104.179 6.10191C103.997 6.43286 103.906 6.82787 103.906 7.28692V7.67125C103.906 8.14098 104.008 8.55734 104.211 8.92031C104.424 9.27261 104.718 9.54485 105.091 9.73701C105.476 9.9185 105.924 10.0092 106.436 10.0092C106.896 10.0092 107.296 9.93985 107.638 9.80106C107.99 9.66228 108.31 9.4541 108.598 9.17653L109.927 10.6178C109.532 11.0661 109.036 11.4131 108.438 11.6586C107.84 11.8935 107.152 12.0109 106.372 12.0109Z" fill="white"/>
<path d="M95.1008 15.1176C94.2894 15.1176 93.5047 15.0162 92.7468 14.8133C91.9994 14.6212 91.3749 14.3276 90.8732 13.9326L91.866 12.1391C92.229 12.438 92.688 12.6728 93.2432 12.8437C93.809 13.0251 94.3641 13.1159 94.9086 13.1159C95.7947 13.1159 96.4352 12.9184 96.8302 12.5234C97.2359 12.1284 97.4387 11.5412 97.4387 10.7619V9.46478L97.5989 7.30294L97.5669 5.12508V3.2675H99.9369V10.4416C99.9369 12.043 99.5205 13.2226 98.6878 13.9806C97.8551 14.7386 96.6594 15.1176 95.1008 15.1176ZM94.7164 11.4665C93.9157 11.4665 93.1898 11.2957 92.5386 10.954C91.898 10.6017 91.3803 10.116 90.9852 9.4968C90.6009 8.86693 90.4088 8.13565 90.4088 7.30294C90.4088 6.45955 90.6009 5.72826 90.9852 5.10907C91.3803 4.4792 91.898 3.99345 92.5386 3.65183C93.1898 3.3102 93.9157 3.13939 94.7164 3.13939C95.4424 3.13939 96.0829 3.28885 96.6381 3.58777C97.1932 3.87602 97.6256 4.32974 97.9352 4.94893C98.2448 5.55745 98.3996 6.34212 98.3996 7.30294C98.3996 8.25308 98.2448 9.03775 97.9352 9.65694C97.6256 10.2655 97.1932 10.7192 96.6381 11.0181C96.0829 11.317 95.4424 11.4665 94.7164 11.4665ZM95.2129 9.41674C95.6506 9.41674 96.0402 9.33133 96.3819 9.16052C96.7235 8.97903 96.9904 8.72815 97.1825 8.40788C97.3747 8.0876 97.4708 7.71929 97.4708 7.30294C97.4708 6.87591 97.3747 6.50759 97.1825 6.198C96.9904 5.87772 96.7235 5.63218 96.3819 5.46137C96.0402 5.27988 95.6506 5.18914 95.2129 5.18914C94.7751 5.18914 94.3855 5.27988 94.0439 5.46137C93.7022 5.63218 93.43 5.87772 93.2272 6.198C93.035 6.50759 92.9389 6.87591 92.9389 7.30294C92.9389 7.71929 93.035 8.0876 93.2272 8.40788C93.43 8.72815 93.7022 8.97903 94.0439 9.16052C94.3855 9.33133 94.7751 9.41674 95.2129 9.41674Z" fill="white"/>
<path d="M86.553 11.8828V10.2014L86.3928 9.83309V6.82253C86.3928 6.28874 86.2274 5.87238 85.8964 5.57346C85.5761 5.27454 85.0797 5.12508 84.4071 5.12508C83.9481 5.12508 83.4944 5.19981 83.046 5.34927C82.6083 5.48806 82.2346 5.68022 81.925 5.92576L81.0283 4.18028C81.498 3.84933 82.0638 3.59311 82.7257 3.41162C83.3876 3.23014 84.0602 3.13939 84.7434 3.13939C86.0566 3.13939 87.0761 3.44899 87.802 4.06818C88.528 4.68738 88.891 5.65353 88.891 6.96665V11.8828H86.553ZM83.9267 12.0109C83.2542 12.0109 82.6777 11.8988 82.1973 11.6747C81.7169 11.4398 81.3485 11.1249 81.0923 10.7299C80.8361 10.3349 80.708 9.89181 80.708 9.40072C80.708 8.88829 80.8308 8.4399 81.0763 8.05558C81.3325 7.67125 81.7329 7.37233 82.2773 7.15881C82.8218 6.93462 83.5317 6.82253 84.4071 6.82253H86.6971V8.27977H84.6794C84.0922 8.27977 83.6865 8.37585 83.4623 8.56801C83.2488 8.76018 83.1421 9.00038 83.1421 9.28863C83.1421 9.6089 83.2648 9.86512 83.5104 10.0573C83.7666 10.2388 84.1136 10.3295 84.5513 10.3295C84.9676 10.3295 85.3413 10.2334 85.6722 10.0413C86.0032 9.83843 86.2434 9.54484 86.3928 9.16052L86.7772 10.3135C86.5957 10.8686 86.2647 11.2903 85.7843 11.5786C85.3039 11.8668 84.6847 12.0109 83.9267 12.0109Z" fill="white"/>
<path d="M75.1626 11.8828V3.2675H77.5487V5.70157L77.2124 4.99697C77.4686 4.38846 77.8796 3.9294 78.4454 3.6198C79.0112 3.29953 79.6998 3.13939 80.5112 3.13939V5.44535C80.4044 5.43468 80.3083 5.42934 80.2229 5.42934C80.1375 5.41867 80.0468 5.41333 79.9507 5.41333C79.2675 5.41333 78.7123 5.61083 78.2853 6.00583C77.8689 6.39016 77.6608 6.99334 77.6608 7.81537V11.8828H75.1626Z" fill="white"/>
<path d="M69.5011 12.0109C68.5189 12.0109 67.6542 11.8188 66.9069 11.4345C66.1702 11.0501 65.5991 10.527 65.1934 9.86512C64.7877 9.19255 64.5849 8.42923 64.5849 7.57517C64.5849 6.71043 64.7824 5.94711 65.1774 5.28522C65.5831 4.61265 66.1329 4.08953 66.8268 3.71588C67.5207 3.33156 68.3054 3.13939 69.1808 3.13939C70.0242 3.13939 70.7822 3.32088 71.4547 3.68385C72.138 4.03615 72.6771 4.54859 73.0721 5.22116C73.4671 5.88306 73.6646 6.6784 73.6646 7.6072C73.6646 7.70328 73.6593 7.81537 73.6486 7.94348C73.6379 8.06092 73.6273 8.17301 73.6166 8.27977H66.6186V6.82253H72.3035L71.3426 7.2549C71.3426 6.80651 71.2519 6.41685 71.0704 6.0859C70.8889 5.75495 70.638 5.49873 70.3178 5.31725C69.9975 5.12508 69.6239 5.029 69.1968 5.029C68.7698 5.029 68.3908 5.12508 68.0599 5.31725C67.7396 5.49873 67.4887 5.76029 67.3072 6.10191C67.1257 6.43286 67.035 6.82787 67.035 7.28692V7.67125C67.035 8.14098 67.1364 8.55734 67.3392 8.92031C67.5528 9.27261 67.8463 9.54485 68.22 9.73701C68.6043 9.9185 69.0527 10.0092 69.5651 10.0092C70.0242 10.0092 70.4245 9.93985 70.7662 9.80106C71.1185 9.66228 71.4387 9.4541 71.727 9.17653L73.0561 10.6178C72.6611 11.0661 72.1647 11.4131 71.5668 11.6586C70.969 11.8935 70.2804 12.0109 69.5011 12.0109Z" fill="white"/>
<path d="M58.3925 11.8837L54.7734 3.26841H57.3516L60.3622 10.6827H59.0811L62.2038 3.26841H64.6058L60.9707 11.8837H58.3925Z" fill="white"/>
<path d="M50.5493 12.0109C49.5671 12.0109 48.7024 11.8188 47.9551 11.4345C47.2184 11.0501 46.6473 10.527 46.2416 9.86512C45.8359 9.19255 45.6331 8.42923 45.6331 7.57517C45.6331 6.71043 45.8306 5.94711 46.2256 5.28522C46.6313 4.61265 47.1811 4.08953 47.875 3.71588C48.5689 3.33156 49.3536 3.13939 50.229 3.13939C51.0724 3.13939 51.8304 3.32088 52.5029 3.68385C53.1862 4.03615 53.7253 4.54859 54.1203 5.22116C54.5153 5.88306 54.7128 6.6784 54.7128 7.6072C54.7128 7.70328 54.7075 7.81537 54.6968 7.94348C54.6861 8.06092 54.6755 8.17301 54.6648 8.27977H47.6668V6.82253H53.3517L52.3908 7.2549C52.3908 6.80651 52.3001 6.41685 52.1186 6.0859C51.9371 5.75495 51.6862 5.49873 51.366 5.31725C51.0457 5.12508 50.672 5.029 50.245 5.029C49.818 5.029 49.439 5.12508 49.108 5.31725C48.7878 5.49873 48.5369 5.76029 48.3554 6.10191C48.1739 6.43286 48.0832 6.82787 48.0832 7.28692V7.67125C48.0832 8.14098 48.1846 8.55734 48.3874 8.92031C48.601 9.27261 48.8945 9.54485 49.2682 9.73701C49.6525 9.9185 50.1009 10.0092 50.6133 10.0092C51.0724 10.0092 51.4727 9.93985 51.8144 9.80106C52.1667 9.66228 52.4869 9.4541 52.7752 9.17653L54.1043 10.6178C53.7093 11.0661 53.2129 11.4131 52.615 11.6586C52.0172 11.8935 51.3286 12.0109 50.5493 12.0109Z" fill="white"/>
<path d="M40.4749 12.0102C39.7169 12.0102 39.0657 11.8501 38.5212 11.5298C37.9767 11.2095 37.5604 10.7238 37.2722 10.0726C36.9839 9.41068 36.8398 8.57797 36.8398 7.57445C36.8398 6.56025 36.9892 5.72754 37.2882 5.07632C37.5978 4.4251 38.0248 3.93935 38.5693 3.61908C39.1137 3.29881 39.7489 3.13867 40.4749 3.13867C41.2862 3.13867 42.0122 3.32016 42.6527 3.68314C43.304 4.04611 43.8164 4.55855 44.19 5.22045C44.5744 5.88234 44.7665 6.66701 44.7665 7.57445C44.7665 8.47121 44.5744 9.25054 44.19 9.91244C43.8164 10.5743 43.304 11.0921 42.6527 11.4658C42.0122 11.8287 41.2862 12.0102 40.4749 12.0102ZM35.3825 11.8821V0H37.8807V5.01227L37.7205 7.55844L37.7686 10.1206V11.8821H35.3825ZM40.0425 9.96048C40.4589 9.96048 40.8272 9.8644 41.1474 9.67224C41.4784 9.48007 41.74 9.20784 41.9321 8.85554C42.135 8.49257 42.2364 8.06553 42.2364 7.57445C42.2364 7.07269 42.135 6.64566 41.9321 6.29336C41.74 5.94106 41.4784 5.66883 41.1474 5.47666C40.8272 5.2845 40.4589 5.18842 40.0425 5.18842C39.6262 5.18842 39.2525 5.2845 38.9216 5.47666C38.5906 5.66883 38.329 5.94106 38.1369 6.29336C37.9447 6.64566 37.8486 7.07269 37.8486 7.57445C37.8486 8.06553 37.9447 8.49257 38.1369 8.85554C38.329 9.20784 38.5906 9.48007 38.9216 9.67224C39.2525 9.8644 39.6262 9.96048 40.0425 9.96048Z" fill="white"/>
<path d="M14.051 11.882V0.672448H16.1969L22.8105 8.74332H21.7696V0.672448H24.3318V11.882H22.202L15.5723 3.81112H16.6132V11.882H14.051Z" fill="white"/>
<path d="M6.14924 12.0747C5.26315 12.0747 4.44111 11.9306 3.68314 11.6424C2.93583 11.3541 2.28461 10.9485 1.72947 10.4253C1.18501 9.90223 0.757979 9.28838 0.448382 8.58378C0.149461 7.87918 0 7.11052 0 6.27781C0 5.4451 0.149461 4.67645 0.448382 3.97185C0.757979 3.26725 1.19035 2.65339 1.74549 2.13028C2.30063 1.60717 2.95185 1.20149 3.69915 0.913246C4.44645 0.625001 5.25781 0.480878 6.13322 0.480878C7.01931 0.480878 7.83067 0.625001 8.56729 0.913246C9.3146 1.20149 9.96048 1.60717 10.5049 2.13028C11.0601 2.65339 11.4925 3.26725 11.802 3.97185C12.1116 4.66577 12.2664 5.43443 12.2664 6.27781C12.2664 7.11052 12.1116 7.88451 11.802 8.59979C11.4925 9.30439 11.0601 9.91825 10.5049 10.4414C9.96048 10.9538 9.3146 11.3541 8.56729 11.6424C7.83067 11.9306 7.02465 12.0747 6.14924 12.0747ZM6.13322 9.86487C6.63498 9.86487 7.09404 9.77946 7.51039 9.60865C7.93742 9.43784 8.31108 9.19229 8.63135 8.87202C8.95162 8.55175 9.19716 8.17276 9.36798 7.73505C9.54946 7.29735 9.64021 6.8116 9.64021 6.27781C9.64021 5.74403 9.54946 5.25828 9.36798 4.82057C9.19716 4.38287 8.95162 4.00388 8.63135 3.6836C8.32175 3.36333 7.95344 3.11779 7.52641 2.94698C7.09938 2.77617 6.63498 2.69076 6.13322 2.69076C5.63146 2.69076 5.16707 2.77617 4.74004 2.94698C4.32368 3.11779 3.95537 3.36333 3.63509 3.6836C3.31482 4.00388 3.06394 4.38287 2.88245 4.82057C2.71164 5.25828 2.62624 5.74403 2.62624 6.27781C2.62624 6.80093 2.71164 7.28667 2.88245 7.73505C3.06394 8.17276 3.30948 8.55175 3.61908 8.87202C3.93935 9.19229 4.31301 9.43784 4.74004 9.60865C5.16707 9.77946 5.63146 9.86487 6.13322 9.86487Z" fill="white"/>
</svg>
