<svg width="20" height="17" viewBox="0 0 20 17" fill="none" xmlns="http://www.w3.org/2000/svg">
<path d="M19.0073 13.3875L14.6732 10.3771C14.4301 10.2354 14.0656 10.2354 13.8631 10.4125L13.7415 10.5188L12.6074 9.5625C14.5111 7.18958 14.2681 3.89583 11.8378 1.77083C10.5416 0.6375 8.79985 0 6.93659 0C5.07333 0 3.33159 0.6375 2.03541 1.77083C-0.678469 4.14375 -0.678469 7.96875 2.03541 10.3417C3.33159 11.475 5.07333 12.1125 6.93659 12.1125C8.39479 12.1125 9.77198 11.7229 10.9466 11.0146L12.0808 12.0063L11.9593 12.1125C11.7568 12.2896 11.7163 12.6083 11.9188 12.8208L15.3618 16.6104C15.6048 16.8583 15.9288 17 16.2934 17C16.6174 17 16.901 16.8938 17.1035 16.7167L19.1288 14.9458C19.3718 14.7333 19.4933 14.45 19.4933 14.1667C19.4123 13.8479 19.2503 13.5646 19.0073 13.3875Z" fill="#FF5E00"/>
</svg>
