<svg width="58" height="73" viewBox="0 0 58 73" fill="none" xmlns="http://www.w3.org/2000/svg">
<path d="M44.1288 11.3941C44.0992 11.3946 44.0702 11.3981 44.0406 11.3981C42.3557 11.3981 40.9846 10.0181 40.9846 8.32163C40.9846 7.91575 41.0652 7.52914 41.2073 7.17349C41.216 7.15188 41.2235 7.13027 41.2328 7.10924C41.7009 6.01424 42.7826 5.24512 44.04 5.24512C45.7249 5.24512 47.0955 6.62511 47.0955 8.32163C47.0955 8.78416 46.9911 9.22099 46.8084 9.61461C46.8118 9.56555 46.8159 9.51649 46.8159 9.46685C46.8159 8.33915 45.9076 7.42577 44.7894 7.42577C43.67 7.42577 42.7629 8.33915 42.7629 9.46685C42.7634 10.361 43.3347 11.1178 44.1288 11.3941Z" fill="black"/>
<path d="M18.303 8.08594H38.7631C38.7585 8.08594 38.7492 8.25063 38.7492 8.3464C38.7492 11.2845 41.1231 13.6626 44.0411 13.6626C46.9591 13.6626 49.333 11.2903 49.333 8.35283C49.333 8.25647 49.3237 8.08594 49.3185 8.08594H55.8743C56.7767 8.08594 56.42 9.00749 56.42 9.00749L56.4183 8.99464C55.0472 13.3922 50.7616 22.4488 39.0038 22.4996L37.6333 22.5043L41.1562 27.7638C41.3093 28.1107 41.6161 29.0171 40.9149 29.4989C40.1278 30.0397 39.3321 29.0439 39.1737 28.8296L34.909 22.5131C34.6666 22.5137 34.4931 22.5142 34.1736 22.5154V15.5921C34.1736 15.3071 34.0703 14.8452 33.4903 14.8452H33.0089C32.1128 14.8452 31.9353 15.8631 31.9353 15.8631V22.1703L36.098 28.3356C36.2616 28.7414 36.5423 29.6449 35.8753 30.1004C35.0006 30.6984 34.1127 29.3494 34.1127 29.3494C34.1127 29.3494 34.1138 29.354 34.1132 29.3546L29.5655 22.5615C28.5899 22.5808 27.6451 22.6094 26.7316 22.648L30.5938 28.4138C30.7295 28.7671 30.9609 29.6063 30.3479 30.0741L30.2481 30.1413C29.5881 30.5361 28.9826 29.9585 28.7424 29.6764L24.1396 22.8022C23.5932 22.8448 23.0579 22.8921 22.5463 22.9487L21.0789 15.4075C20.9571 15.1284 20.6277 14.625 19.876 14.7459L19.7403 14.7733C18.9317 14.9777 18.8911 15.6838 18.9097 15.9658L20.3812 23.2623C17.2277 23.8195 14.8097 24.7983 13.1126 26.5193L8.69416 20.493C8.40879 20.2985 7.9158 20.0714 7.41874 20.3248L7.08176 20.5759C6.58702 21.0881 6.83816 21.6943 6.95648 21.9145L11.7096 28.3986C11.0466 29.5929 10.6169 31.0109 10.4034 32.6881L6.60442 32.0352C6.21234 32.0498 5.64974 32.1999 5.50764 32.8954L5.48965 33.0035C5.34407 34.0996 6.3353 34.2526 6.3353 34.2526C6.3353 34.2526 6.34748 34.2637 6.36488 34.2789L10.2491 34.9476C10.2428 35.333 10.2422 35.7267 10.2538 36.1355C10.2892 37.4594 10.5101 38.6128 10.8663 39.6219L9.66914 39.9624C9.39132 40.1423 8.9772 40.554 9.19122 41.3249L9.19644 41.343C9.40988 42.0841 9.92782 42.1647 10.252 42.1355L11.8923 41.67C14.0905 44.9136 18.0171 45.9239 20.6462 45.9239L20.9844 45.9175L31.4609 40.2375C32.2578 40.0156 32.2224 40.5879 32.1134 40.9867L28.9025 47.4715L31.8396 52.9354C31.9493 53.3617 31.8657 53.7454 30.9946 53.4166L21.0528 47.9872L20.8649 47.9568C20.0633 47.8254 1.25217 44.5573 1.25217 26.4837C1.25159 8.52394 17.6064 8.08594 18.303 8.08594Z" fill="#B88E24"/>
</svg>
