<svg width="33" height="64" viewBox="0 0 33 64" fill="none" xmlns="http://www.w3.org/2000/svg">
<path d="M2.90442 33.3005L13.9791 62.3383C14.8153 64.5357 17.7651 64.5599 18.6336 62.376L29.9435 33.9533C30.2196 33.2586 29.6186 32.4564 28.9387 32.6868C24.7525 34.1055 14.2444 36.2595 3.99381 32.0703C3.29887 31.7866 2.62687 32.5716 2.90442 33.3005Z" fill="#E18C39"/>
<path d="M5.29909 30.5614C5.29837 30.5614 5.29837 30.5614 5.29766 30.5607C4.24197 30.1241 -0.791191 29.2956 0.106717 24.1144C0.106717 24.1144 0.481084 22.0898 1.90899 20.6377C2.36153 20.1769 3.14541 20.2971 3.43801 20.871C5.10832 24.1464 12.8417 31.5612 31.0724 27.2291C32.3898 26.9162 33.0432 28.7509 31.824 29.3361C26.1403 32.0633 17.0831 34.3495 5.29909 30.5614Z" fill="#FC77D7"/>
<path d="M8.39517 15.7106C7.65074 14.821 6.22858 14.917 5.62256 15.904C4.73971 17.3412 4.28 19.4383 6.64741 21.6207C13.6184 28.0464 25.3285 26.4151 25.3285 26.4151C25.3285 26.4151 27.4313 26.2607 29.3626 25.199C32.3045 23.582 30.7575 19.0984 27.4241 19.5428C21.3338 20.3556 12.2557 20.3279 8.39517 15.7106Z" fill="#FC77D7"/>
<path d="M25.6247 14.6357C24.4872 10.4017 21.3001 0.459547 16.4025 0.0293204C13.4269 -0.233082 12.3217 1.31573 11.9194 2.67895C11.7594 3.2194 12.4049 3.63398 12.8524 3.28695C13.2992 2.93993 13.8242 2.72517 14.3291 2.98473C15.004 3.33317 14.9731 4.11612 14.8039 4.75897C14.6748 5.24822 14.4474 5.70618 14.1555 6.12076C13.1888 7.49677 9.88402 12.2918 10.0662 13.2824C10.0662 13.2824 10.1128 16.4775 17.2616 17.5527C20.3936 18.0227 22.672 18.0199 24.1243 17.5065C25.3019 17.0883 25.9474 15.8325 25.6247 14.6357ZM23.3993 15.9648C23.0521 16.3281 22.4002 16.3153 22.094 15.9185C21.876 15.6355 21.9362 15.3134 22.2374 14.7139C23.078 13.0449 22.1435 9.77448 22.0553 9.30586C22.0438 9.24185 22.1406 9.22123 22.1636 9.28025C22.5767 10.3889 23.737 13.5121 23.755 14.6997C23.7621 15.2928 23.6094 15.7457 23.3993 15.9648Z" fill="#FC77D7"/>
</svg>
