<svg width="95" height="19" viewBox="0 0 95 19" fill="none" xmlns="http://www.w3.org/2000/svg">
<path d="M94.7489 6.81767L91.9508 6.98986C91.903 6.75071 91.8001 6.53547 91.6423 6.34414C91.4845 6.14804 91.2764 5.99259 91.0181 5.87779C90.7646 5.75822 90.4609 5.69843 90.1069 5.69843C89.6334 5.69843 89.234 5.79887 88.9088 5.99976C88.5835 6.19587 88.4209 6.45894 88.4209 6.78897C88.4209 7.05204 88.5261 7.27445 88.7366 7.45621C88.947 7.63796 89.3082 7.78385 89.8199 7.89386L91.8145 8.29564C92.8859 8.51566 93.6847 8.86961 94.2108 9.35748C94.7369 9.84535 95 10.4863 95 11.2803C95 12.0025 94.7872 12.6363 94.3615 13.1815C93.9406 13.7268 93.3618 14.1525 92.6252 14.4586C91.8934 14.76 91.0492 14.9106 90.0926 14.9106C88.6337 14.9106 87.4715 14.6069 86.6057 13.9994C85.7448 13.3872 85.2402 12.555 85.0919 11.5027L88.098 11.3448C88.1889 11.7897 88.4089 12.1293 88.7581 12.3636C89.1073 12.5932 89.5545 12.708 90.0998 12.708C90.6355 12.708 91.0659 12.6052 91.3912 12.3995C91.7212 12.1891 91.8886 11.9188 91.8934 11.5888C91.8886 11.3114 91.7714 11.0842 91.5418 10.9072C91.3123 10.7254 90.9583 10.5867 90.48 10.4911L88.5716 10.1108C87.4954 9.89557 86.6942 9.52249 86.1681 8.99157C85.6467 8.46065 85.386 7.78385 85.386 6.96116C85.386 6.25327 85.5774 5.64342 85.96 5.13164C86.3474 4.61985 86.8903 4.22524 87.5886 3.94783C88.2918 3.67041 89.1144 3.5317 90.0567 3.5317C91.4486 3.5317 92.5439 3.82586 93.3427 4.41418C94.1462 5.00249 94.615 5.80366 94.7489 6.81767Z" fill="black"/>
<path d="M83.2981 0V14.6936H80.2417V0H83.2981Z" fill="black"/>
<path d="M71.8311 14.9034C71.128 14.9034 70.5014 14.7815 69.9513 14.5375C69.4013 14.2888 68.966 13.9229 68.6456 13.4398C68.3299 12.952 68.172 12.3445 68.172 11.6175C68.172 11.0052 68.2844 10.4911 68.5092 10.0749C68.734 9.65881 69.0402 9.324 69.4276 9.07049C69.815 8.81699 70.2551 8.62567 70.7477 8.49653C71.2452 8.36738 71.7665 8.2765 72.3118 8.22389C72.9527 8.15693 73.4693 8.09475 73.8615 8.03735C74.2537 7.97517 74.5383 7.88429 74.7153 7.76472C74.8922 7.64514 74.9807 7.46817 74.9807 7.23379V7.19075C74.9807 6.73636 74.8372 6.3848 74.5503 6.13608C74.2681 5.88736 73.8663 5.763 73.3449 5.763C72.7949 5.763 72.3572 5.88497 72.032 6.12891C71.7067 6.36806 71.4915 6.66939 71.3863 7.03291L68.5595 6.80332C68.703 6.13369 68.9852 5.55494 69.4061 5.06706C69.827 4.57441 70.3699 4.19654 71.0347 3.93348C71.7043 3.66562 72.4792 3.5317 73.3593 3.5317C73.9715 3.5317 74.5574 3.60344 75.1171 3.74694C75.6815 3.89043 76.1813 4.11284 76.6165 4.41418C77.0566 4.71551 77.4034 5.10294 77.6569 5.57646C77.9104 6.0452 78.0371 6.60721 78.0371 7.26249V14.6954H75.1386V13.1672H75.0525C74.8755 13.5116 74.6387 13.8153 74.3422 14.0784C74.0456 14.3367 73.6893 14.5399 73.2732 14.6882C72.857 14.8317 72.3764 14.9034 71.8311 14.9034ZM72.7064 12.7941C73.156 12.7941 73.553 12.7056 73.8974 12.5287C74.2418 12.3469 74.512 12.103 74.7081 11.7968C74.9042 11.4907 75.0023 11.144 75.0023 10.7565V9.58707C74.9066 9.64925 74.7751 9.70664 74.6077 9.75926C74.445 9.80709 74.2609 9.85253 74.0552 9.89557C73.8495 9.93384 73.6439 9.96971 73.4382 10.0032C73.2325 10.0319 73.046 10.0582 72.8786 10.0821C72.5198 10.1347 72.2066 10.2184 71.9387 10.3332C71.6708 10.448 71.4628 10.6035 71.3145 10.7996C71.1662 10.9909 71.0921 11.2301 71.0921 11.517C71.0921 11.9332 71.2428 12.2512 71.5441 12.4713C71.8502 12.6865 72.2376 12.7941 72.7064 12.7941Z" fill="black"/>
<path d="M66.6797 6.81767L63.8816 6.98986C63.8337 6.75071 63.7309 6.53547 63.5731 6.34414C63.4152 6.14804 63.2072 5.99259 62.9489 5.87779C62.6954 5.75822 62.3916 5.69843 62.0377 5.69843C61.5642 5.69843 61.1648 5.79887 60.8395 5.99976C60.5143 6.19587 60.3517 6.45894 60.3517 6.78897C60.3517 7.05204 60.4569 7.27445 60.6673 7.45621C60.8778 7.63796 61.2389 7.78385 61.7507 7.89386L63.7452 8.29564C64.8167 8.51566 65.6154 8.86961 66.1416 9.35748C66.6677 9.84535 66.9308 10.4863 66.9308 11.2803C66.9308 12.0025 66.7179 12.6363 66.2922 13.1815C65.8713 13.7268 65.2926 14.1525 64.556 14.4586C63.8242 14.76 62.98 14.9106 62.0233 14.9106C60.5645 14.9106 59.4022 14.6069 58.5365 13.9994C57.6755 13.3872 57.1709 12.555 57.0226 11.5027L60.0288 11.3448C60.1197 11.7897 60.3397 12.1293 60.6889 12.3636C61.038 12.5932 61.4852 12.708 62.0305 12.708C62.5662 12.708 62.9967 12.6052 63.3219 12.3995C63.652 12.1891 63.8194 11.9188 63.8242 11.5888C63.8194 11.3114 63.7022 11.0842 63.4726 10.9072C63.243 10.7254 62.8891 10.5867 62.4108 10.4911L60.5023 10.1108C59.4261 9.89557 58.625 9.52249 58.0988 8.99157C57.5775 8.46065 57.3168 7.78385 57.3168 6.96116C57.3168 6.25327 57.5081 5.64342 57.8908 5.13164C58.2782 4.61985 58.8211 4.22524 59.5194 3.94783C60.2225 3.67041 61.0452 3.5317 61.9875 3.5317C63.3793 3.5317 64.4747 3.82586 65.2734 4.41418C66.077 5.00249 66.5457 5.80366 66.6797 6.81767Z" fill="black"/>
<path d="M50.2659 14.9106C49.1514 14.9106 48.1876 14.6739 47.3745 14.2003C46.5662 13.722 45.942 13.0572 45.5019 12.2058C45.0619 11.3496 44.8419 10.3571 44.8419 9.22834C44.8419 8.08996 45.0619 7.09509 45.5019 6.2437C45.942 5.38753 46.5662 4.72268 47.3745 4.24916C48.1876 3.77085 49.1514 3.5317 50.2659 3.5317C51.3803 3.5317 52.3417 3.77085 53.15 4.24916C53.9632 4.72268 54.5898 5.38753 55.0298 6.2437C55.4698 7.09509 55.6899 8.08996 55.6899 9.22834C55.6899 10.3571 55.4698 11.3496 55.0298 12.2058C54.5898 13.0572 53.9632 13.722 53.15 14.2003C52.3417 14.6739 51.3803 14.9106 50.2659 14.9106ZM50.2802 12.543C50.7872 12.543 51.2105 12.3995 51.5501 12.1125C51.8897 11.8208 52.1456 11.4238 52.3178 10.9215C52.4948 10.4193 52.5833 9.84774 52.5833 9.20681C52.5833 8.56588 52.4948 7.9943 52.3178 7.49208C52.1456 6.98986 51.8897 6.59286 51.5501 6.3011C51.2105 6.00933 50.7872 5.86345 50.2802 5.86345C49.7684 5.86345 49.3379 6.00933 48.9888 6.3011C48.6444 6.59286 48.3837 6.98986 48.2067 7.49208C48.0346 7.9943 47.9485 8.56588 47.9485 9.20681C47.9485 9.84774 48.0346 10.4193 48.2067 10.9215C48.3837 11.4238 48.6444 11.8208 48.9888 12.1125C49.3379 12.3995 49.7684 12.543 50.2802 12.543Z" fill="black"/>
<path d="M32.6682 18.828V3.67519H35.6816V5.52624H35.8179C35.9518 5.22969 36.1455 4.92836 36.399 4.62224C36.6573 4.31134 36.9921 4.05305 37.4035 3.84738C37.8196 3.63693 38.3362 3.5317 38.9532 3.5317C39.7567 3.5317 40.4981 3.74215 41.1773 4.16306C41.8565 4.57919 42.3994 5.20816 42.8059 6.04999C43.2125 6.88702 43.4158 7.93691 43.4158 9.19964C43.4158 10.4289 43.2173 11.4668 42.8203 12.3134C42.4281 13.1552 41.8924 13.7938 41.2132 14.229C40.5388 14.6595 39.783 14.8747 38.946 14.8747C38.3529 14.8747 37.8483 14.7767 37.4322 14.5806C37.0208 14.3845 36.6836 14.1382 36.4205 13.8416C36.1575 13.5403 35.9566 13.2365 35.8179 12.9304H35.7246V18.828H32.6682ZM35.66 9.18529C35.66 9.84057 35.7509 10.4121 35.9327 10.9C36.1144 11.3879 36.3775 11.7681 36.7219 12.0408C37.0663 12.3086 37.4848 12.4426 37.9774 12.4426C38.4749 12.4426 38.8958 12.3062 39.2402 12.0336C39.5845 11.7562 39.8452 11.3735 40.0222 10.8857C40.2039 10.393 40.2948 9.82622 40.2948 9.18529C40.2948 8.54914 40.2063 7.98952 40.0294 7.50643C39.8524 7.02334 39.5917 6.64548 39.2473 6.37284C38.9029 6.10021 38.4797 5.96389 37.9774 5.96389C37.48 5.96389 37.0591 6.09542 36.7147 6.35849C36.3751 6.62156 36.1144 6.99464 35.9327 7.47773C35.7509 7.96082 35.66 8.53001 35.66 9.18529Z" fill="black"/>
<path d="M25.4235 14.9106C24.309 14.9106 23.3452 14.6739 22.5321 14.2003C21.7238 13.722 21.0996 13.0572 20.6595 12.2058C20.2195 11.3496 19.9995 10.3571 19.9995 9.22834C19.9995 8.08996 20.2195 7.09509 20.6595 6.2437C21.0996 5.38753 21.7238 4.72268 22.5321 4.24916C23.3452 3.77085 24.309 3.5317 25.4235 3.5317C26.5379 3.5317 27.4993 3.77085 28.3077 4.24916C29.1208 4.72268 29.7474 5.38753 30.1874 6.2437C30.6275 7.09509 30.8475 8.08996 30.8475 9.22834C30.8475 10.3571 30.6275 11.3496 30.1874 12.2058C29.7474 13.0572 29.1208 13.722 28.3077 14.2003C27.4993 14.6739 26.5379 14.9106 25.4235 14.9106ZM25.4378 12.543C25.9448 12.543 26.3681 12.3995 26.7077 12.1125C27.0473 11.8208 27.3032 11.4238 27.4754 10.9215C27.6524 10.4193 27.7409 9.84774 27.7409 9.20681C27.7409 8.56588 27.6524 7.9943 27.4754 7.49208C27.3032 6.98986 27.0473 6.59286 26.7077 6.3011C26.3681 6.00933 25.9448 5.86345 25.4378 5.86345C24.926 5.86345 24.4956 6.00933 24.1464 6.3011C23.802 6.59286 23.5413 6.98986 23.3644 7.49208C23.1922 7.9943 23.1061 8.56588 23.1061 9.20681C23.1061 9.84774 23.1922 10.4193 23.3644 10.9215C23.5413 11.4238 23.802 11.8208 24.1464 12.1125C24.4956 12.3995 24.926 12.543 25.4378 12.543Z" fill="black"/>
<path d="M12.857 14.694V3.67376H15.8201V5.59655H15.9349C16.1358 4.91257 16.473 4.396 16.9466 4.04684C17.4201 3.69289 17.9654 3.51592 18.5824 3.51592C18.7354 3.51592 18.9004 3.52548 19.0774 3.54461C19.2544 3.56375 19.4098 3.59005 19.5438 3.62353V6.33553C19.4003 6.29249 19.2018 6.25422 18.9483 6.22074C18.6948 6.18726 18.4628 6.17052 18.2523 6.17052C17.8027 6.17052 17.401 6.26857 17.047 6.46468C16.6978 6.656 16.4204 6.92385 16.2148 7.26823C16.0139 7.61261 15.9134 8.00961 15.9134 8.45922V14.694H12.857Z" fill="black"/>
<path d="M0 14.6936V0H5.79708C6.91154 0 7.86098 0.212847 8.6454 0.63854C9.42982 1.05945 10.0277 1.64538 10.4391 2.39632C10.8552 3.14248 11.0632 4.00343 11.0632 4.97918C11.0632 5.95492 10.8528 6.81588 10.4319 7.56203C10.011 8.30819 9.40112 8.88934 8.60235 9.30546C7.80836 9.72159 6.84696 9.92965 5.71816 9.92965H2.02324V7.44007H5.21594C5.81382 7.44007 6.30648 7.33723 6.69391 7.13156C7.08612 6.9211 7.37789 6.63173 7.56921 6.26343C7.76531 5.89035 7.86337 5.46227 7.86337 4.97918C7.86337 4.4913 7.76531 4.06561 7.56921 3.7021C7.37789 3.3338 7.08612 3.04921 6.69391 2.84832C6.30169 2.64265 5.80426 2.53981 5.20159 2.53981H3.1066V14.6936H0Z" fill="black"/>
</svg>
