<svg width="18" height="18" viewBox="0 0 18 18" fill="none" xmlns="http://www.w3.org/2000/svg">
<path d="M17.5165 7.82913C17.5161 7.82872 17.5157 7.82831 17.5152 7.8279L10.1719 0.485596C9.85892 0.172485 9.44277 0 9.00011 0C8.55746 0 8.1413 0.172348 7.82816 0.485458L0.488685 7.82405C0.486213 7.82652 0.483741 7.82913 0.481269 7.8316C-0.161497 8.47801 -0.160398 9.52679 0.484428 10.1716C0.779029 10.4663 1.16812 10.637 1.58413 10.6548C1.60103 10.6565 1.61806 10.6573 1.63523 10.6573H1.9279V16.0608C1.9279 17.13 2.79797 18 3.8676 18H6.74054C7.03171 18 7.26794 17.7639 7.26794 17.4727V13.2363C7.26794 12.7484 7.66486 12.3515 8.15284 12.3515H9.84738C10.3354 12.3515 10.7323 12.7484 10.7323 13.2363V17.4727C10.7323 17.7639 10.9684 18 11.2597 18H14.1326C15.2023 18 16.0723 17.13 16.0723 16.0608V10.6573H16.3437C16.7862 10.6573 17.2024 10.4849 17.5157 10.1718C18.1612 9.52597 18.1614 8.4754 17.5165 7.82913Z" fill="#6D3805"/>
</svg>
